%TF.GenerationSoftware,KiCad,Pcbnew,10.0.6*%
%TF.CreationDate,2026-10-09T19:07:00+07:00*%
%TF.ProjectId,field_device,6669656c-645f-4646-9576-6963652e6b69,rev?*%
%TF.SameCoordinates,Original*%
%TF.FileFunction,Copper,L3,Inr*%
%TF.FilePolarity,Positive*%
%FSLAX46Y46*%
G04 Gerber Fmt 4.6, Leading zero omitted, Abs format (unit mm)*
G04 Created by KiCad (PCBNEW 10.0.6) date 2026-10-09 19:07:00*
%MOMM*%
%LPD*%
G01*
G04 APERTURE LIST*
%TA.AperFunction,ComponentPad*%
%ADD10R,1.700000X1.700000*%
%TD*%
%TA.AperFunction,ComponentPad*%
%ADD11C,1.700000*%
%TD*%
%TA.AperFunction,HeatsinkPad*%
%ADD12C,0.500000*%
%TD*%
%TA.AperFunction,ViaPad*%
%ADD13C,0.600000*%
%TD*%
G04 APERTURE END LIST*
D10*
%TO.N,/MCU/SWDIO*%
%TO.C,J1*%
X76240000Y-26800000D03*
D11*
%TO.N,/MCU/SWDCLK*%
X73700000Y-26800000D03*
%TO.N,GND*%
X71160000Y-26800000D03*
%TO.N,+3.3V*%
X68620000Y-26800000D03*
%TO.N,/MCU/NRST*%
X66080000Y-26800000D03*
%TD*%
D12*
%TO.N,GND*%
%TO.C,U5*%
X38082752Y-39000001D03*
X38082752Y-39750001D03*
X38082752Y-40500001D03*
X38782750Y-39000001D03*
X38782750Y-39750001D03*
X38782750Y-40500001D03*
%TD*%
D10*
%TO.N,/MCU/LOG_MCU_TX_DEBUGGER_RX*%
%TO.C,J2*%
X57925000Y-26900000D03*
D11*
%TO.N,/MCU/LOG_MCU_RX_DEBUGGER_TX*%
X60465000Y-26900000D03*
%TD*%
D13*
%TO.N,GND*%
X64076250Y-36060000D03*
X73500000Y-50900000D03*
X72494199Y-56437500D03*
X72494199Y-57537500D03*
%TO.N,+3.3V*%
X39800000Y-43200000D03*
X74000000Y-48800000D03*
X57036250Y-42335000D03*
X66339549Y-41460001D03*
X38600000Y-43200000D03*
X58476250Y-35660000D03*
%TO.N,GND*%
X75757501Y-47984999D03*
X69339549Y-45560000D03*
X76294199Y-58500000D03*
X37664750Y-32157000D03*
X55300000Y-38100000D03*
X53022500Y-49375000D03*
X67639549Y-46360000D03*
X78376250Y-38060000D03*
X70339549Y-41360000D03*
X78057501Y-42584999D03*
X55700000Y-50800000D03*
X49022500Y-45475000D03*
X49000000Y-28600000D03*
X39264750Y-32157000D03*
X39264750Y-34757000D03*
X68539549Y-47260000D03*
X69339549Y-47260000D03*
X37664750Y-34757000D03*
X67639549Y-47260000D03*
X67639549Y-45560000D03*
X68458299Y-46360000D03*
X70339550Y-42060000D03*
X69339549Y-46360000D03*
X68439549Y-45560000D03*
X49022500Y-50975000D03*
X36568001Y-37843001D03*
X38438581Y-33454954D03*
X54736250Y-42235000D03*
X75094199Y-58500000D03*
X74200000Y-47060000D03*
%TO.N,/power_source/done*%
X34364750Y-31757000D03*
X48364750Y-30057000D03*
%TO.N,/MCU/SCL_bus*%
X67900000Y-31800000D03*
X51922500Y-45575000D03*
%TO.N,/MCU/SDA_bus*%
X53121778Y-47175722D03*
X59276250Y-33860000D03*
%TO.N,/MCU/RF_SCK*%
X72276250Y-39460000D03*
X65576250Y-49760000D03*
%TO.N,/power_source/chrg*%
X43464750Y-30957000D03*
X34364750Y-33657000D03*
%TO.N,/MCU/I2C_BUS_PWR*%
X65000000Y-37900000D03*
X62076250Y-32660000D03*
X66076250Y-32860000D03*
%TO.N,/MCU/RF_NSS*%
X70500000Y-39800000D03*
X66700000Y-49700000D03*
%TO.N,/MCU/MCU_MISO*%
X66576250Y-38560000D03*
X62476250Y-46860000D03*
%TO.N,/MCU/RF_MOSI*%
X64576250Y-49760000D03*
X73576250Y-38060000D03*
%TO.N,+3.3V*%
X48622500Y-48275000D03*
%TD*%
%TA.AperFunction,Conductor*%
%TO.N,+3.3V*%
G36*
X79136738Y-23844684D02*
G01*
X79182493Y-23897488D01*
X79193699Y-23948999D01*
X79193699Y-58769215D01*
X79174014Y-58836254D01*
X79121210Y-58882009D01*
X79069734Y-58893215D01*
X76917298Y-58893820D01*
X76850253Y-58874154D01*
X76804483Y-58821363D01*
X76794520Y-58752207D01*
X76805467Y-58720577D01*
X76804071Y-58719999D01*
X76807181Y-58712489D01*
X76807181Y-58712487D01*
X76807183Y-58712485D01*
X76844699Y-58572475D01*
X76844699Y-58427525D01*
X76807183Y-58287515D01*
X76734708Y-58161985D01*
X76632214Y-58059491D01*
X76632212Y-58059490D01*
X76632210Y-58059488D01*
X76506687Y-57987017D01*
X76506688Y-57987017D01*
X76473077Y-57978011D01*
X76366674Y-57949500D01*
X76221724Y-57949500D01*
X76115321Y-57978011D01*
X76081710Y-57987017D01*
X75956187Y-58059488D01*
X75956181Y-58059493D01*
X75853692Y-58161982D01*
X75853690Y-58161985D01*
X75801586Y-58252231D01*
X75751018Y-58300446D01*
X75682411Y-58313668D01*
X75617546Y-58287700D01*
X75586812Y-58252231D01*
X75575131Y-58232000D01*
X75534708Y-58161985D01*
X75432214Y-58059491D01*
X75432212Y-58059490D01*
X75432210Y-58059488D01*
X75306687Y-57987017D01*
X75306688Y-57987017D01*
X75273077Y-57978011D01*
X75166674Y-57949500D01*
X75021724Y-57949500D01*
X74915321Y-57978011D01*
X74881710Y-57987017D01*
X74756187Y-58059488D01*
X74756181Y-58059493D01*
X74653692Y-58161982D01*
X74653687Y-58161988D01*
X74581216Y-58287511D01*
X74581215Y-58287515D01*
X74543699Y-58427525D01*
X74543699Y-58572475D01*
X74578139Y-58701006D01*
X74581216Y-58712489D01*
X74584327Y-58719999D01*
X74581945Y-58720985D01*
X74595389Y-58776410D01*
X74572535Y-58842436D01*
X74517613Y-58885625D01*
X74471565Y-58894506D01*
X30318734Y-58906900D01*
X30251689Y-58887234D01*
X30205919Y-58834443D01*
X30194699Y-58782900D01*
X30194699Y-56365025D01*
X71943699Y-56365025D01*
X71943699Y-56509975D01*
X71981215Y-56649985D01*
X71981216Y-56649988D01*
X72053687Y-56775511D01*
X72053689Y-56775513D01*
X72053690Y-56775515D01*
X72156184Y-56878009D01*
X72156187Y-56878010D01*
X72156190Y-56878013D01*
X72159829Y-56880114D01*
X72162285Y-56882690D01*
X72162633Y-56882957D01*
X72162591Y-56883011D01*
X72208044Y-56930681D01*
X72221266Y-56999288D01*
X72195298Y-57064153D01*
X72159829Y-57094886D01*
X72156190Y-57096986D01*
X72156181Y-57096993D01*
X72053692Y-57199482D01*
X72053687Y-57199488D01*
X71981216Y-57325011D01*
X71981215Y-57325015D01*
X71943699Y-57465025D01*
X71943699Y-57609975D01*
X71981215Y-57749985D01*
X71981216Y-57749988D01*
X72053687Y-57875511D01*
X72053689Y-57875513D01*
X72053690Y-57875515D01*
X72156184Y-57978009D01*
X72156185Y-57978010D01*
X72156187Y-57978011D01*
X72281710Y-58050482D01*
X72281711Y-58050482D01*
X72281714Y-58050484D01*
X72421724Y-58088000D01*
X72421727Y-58088000D01*
X72566671Y-58088000D01*
X72566674Y-58088000D01*
X72706684Y-58050484D01*
X72832214Y-57978009D01*
X72934708Y-57875515D01*
X73007183Y-57749985D01*
X73044699Y-57609975D01*
X73044699Y-57465025D01*
X73007183Y-57325015D01*
X72934708Y-57199485D01*
X72832214Y-57096991D01*
X72828570Y-57094887D01*
X72826112Y-57092309D01*
X72825765Y-57092043D01*
X72825806Y-57091988D01*
X72780355Y-57044323D01*
X72767130Y-56975717D01*
X72793096Y-56910851D01*
X72828569Y-56880113D01*
X72832214Y-56878009D01*
X72934708Y-56775515D01*
X73007183Y-56649985D01*
X73044699Y-56509975D01*
X73044699Y-56365025D01*
X73007183Y-56225015D01*
X72934708Y-56099485D01*
X72832214Y-55996991D01*
X72832212Y-55996990D01*
X72832210Y-55996988D01*
X72706687Y-55924517D01*
X72706688Y-55924517D01*
X72695205Y-55921440D01*
X72566674Y-55887000D01*
X72421724Y-55887000D01*
X72293192Y-55921440D01*
X72281710Y-55924517D01*
X72156187Y-55996988D01*
X72156181Y-55996993D01*
X72053692Y-56099482D01*
X72053687Y-56099488D01*
X71981216Y-56225011D01*
X71981215Y-56225015D01*
X71943699Y-56365025D01*
X30194699Y-56365025D01*
X30194699Y-50902525D01*
X48472000Y-50902525D01*
X48472000Y-51047475D01*
X48496261Y-51138017D01*
X48509517Y-51187488D01*
X48581988Y-51313011D01*
X48581990Y-51313013D01*
X48581991Y-51313015D01*
X48684485Y-51415509D01*
X48684486Y-51415510D01*
X48684488Y-51415511D01*
X48810011Y-51487982D01*
X48810012Y-51487982D01*
X48810015Y-51487984D01*
X48950025Y-51525500D01*
X48950028Y-51525500D01*
X49094972Y-51525500D01*
X49094975Y-51525500D01*
X49234985Y-51487984D01*
X49360515Y-51415509D01*
X49463009Y-51313015D01*
X49535484Y-51187485D01*
X49573000Y-51047475D01*
X49573000Y-50902525D01*
X49535484Y-50762515D01*
X49515282Y-50727525D01*
X55149500Y-50727525D01*
X55149500Y-50872475D01*
X55187016Y-51012485D01*
X55187017Y-51012488D01*
X55259488Y-51138011D01*
X55259490Y-51138013D01*
X55259491Y-51138015D01*
X55361985Y-51240509D01*
X55361986Y-51240510D01*
X55361988Y-51240511D01*
X55487511Y-51312982D01*
X55487512Y-51312982D01*
X55487515Y-51312984D01*
X55627525Y-51350500D01*
X55627528Y-51350500D01*
X55772472Y-51350500D01*
X55772475Y-51350500D01*
X55912485Y-51312984D01*
X56038015Y-51240509D01*
X56140509Y-51138015D01*
X56212984Y-51012485D01*
X56250500Y-50872475D01*
X56250500Y-50827525D01*
X72949500Y-50827525D01*
X72949500Y-50972475D01*
X72987016Y-51112485D01*
X72987017Y-51112488D01*
X73059488Y-51238011D01*
X73059490Y-51238013D01*
X73059491Y-51238015D01*
X73161985Y-51340509D01*
X73161986Y-51340510D01*
X73161988Y-51340511D01*
X73287511Y-51412982D01*
X73287512Y-51412982D01*
X73287515Y-51412984D01*
X73427525Y-51450500D01*
X73427528Y-51450500D01*
X73572472Y-51450500D01*
X73572475Y-51450500D01*
X73712485Y-51412984D01*
X73838015Y-51340509D01*
X73940509Y-51238015D01*
X74012984Y-51112485D01*
X74050500Y-50972475D01*
X74050500Y-50827525D01*
X74012984Y-50687515D01*
X73983810Y-50636985D01*
X73940511Y-50561988D01*
X73940506Y-50561982D01*
X73838017Y-50459493D01*
X73838011Y-50459488D01*
X73712488Y-50387017D01*
X73712489Y-50387017D01*
X73701006Y-50383940D01*
X73572475Y-50349500D01*
X73427525Y-50349500D01*
X73298993Y-50383940D01*
X73287511Y-50387017D01*
X73161988Y-50459488D01*
X73161982Y-50459493D01*
X73059493Y-50561982D01*
X73059488Y-50561988D01*
X72987017Y-50687511D01*
X72987016Y-50687515D01*
X72949500Y-50827525D01*
X56250500Y-50827525D01*
X56250500Y-50727525D01*
X56212984Y-50587515D01*
X56198244Y-50561985D01*
X56140511Y-50461988D01*
X56140506Y-50461982D01*
X56038017Y-50359493D01*
X56038011Y-50359488D01*
X55912488Y-50287017D01*
X55912489Y-50287017D01*
X55860117Y-50272984D01*
X55772475Y-50249500D01*
X55627525Y-50249500D01*
X55539883Y-50272984D01*
X55487511Y-50287017D01*
X55361988Y-50359488D01*
X55361982Y-50359493D01*
X55259493Y-50461982D01*
X55259488Y-50461988D01*
X55187017Y-50587511D01*
X55187016Y-50587515D01*
X55149500Y-50727525D01*
X49515282Y-50727525D01*
X49463011Y-50636988D01*
X49463006Y-50636982D01*
X49360517Y-50534493D01*
X49360511Y-50534488D01*
X49234988Y-50462017D01*
X49234989Y-50462017D01*
X49223506Y-50458940D01*
X49094975Y-50424500D01*
X48950025Y-50424500D01*
X48821493Y-50458940D01*
X48810011Y-50462017D01*
X48684488Y-50534488D01*
X48684482Y-50534493D01*
X48581993Y-50636982D01*
X48581988Y-50636988D01*
X48509517Y-50762511D01*
X48509516Y-50762515D01*
X48472000Y-50902525D01*
X30194699Y-50902525D01*
X30194699Y-49302525D01*
X52472000Y-49302525D01*
X52472000Y-49447475D01*
X52482728Y-49487511D01*
X52509517Y-49587488D01*
X52581988Y-49713011D01*
X52581990Y-49713013D01*
X52581991Y-49713015D01*
X52684485Y-49815509D01*
X52684486Y-49815510D01*
X52684488Y-49815511D01*
X52810011Y-49887982D01*
X52810012Y-49887982D01*
X52810015Y-49887984D01*
X52950025Y-49925500D01*
X52950028Y-49925500D01*
X53094972Y-49925500D01*
X53094975Y-49925500D01*
X53234985Y-49887984D01*
X53360515Y-49815509D01*
X53463009Y-49713015D01*
X53477726Y-49687525D01*
X64025750Y-49687525D01*
X64025750Y-49832475D01*
X64063266Y-49972485D01*
X64063267Y-49972488D01*
X64135738Y-50098011D01*
X64135740Y-50098013D01*
X64135741Y-50098015D01*
X64238235Y-50200509D01*
X64238236Y-50200510D01*
X64238238Y-50200511D01*
X64363761Y-50272982D01*
X64363762Y-50272982D01*
X64363765Y-50272984D01*
X64503775Y-50310500D01*
X64503778Y-50310500D01*
X64648722Y-50310500D01*
X64648725Y-50310500D01*
X64788735Y-50272984D01*
X64914265Y-50200509D01*
X64988569Y-50126205D01*
X65049892Y-50092720D01*
X65119584Y-50097704D01*
X65163931Y-50126205D01*
X65238235Y-50200509D01*
X65238236Y-50200510D01*
X65238238Y-50200511D01*
X65363761Y-50272982D01*
X65363762Y-50272982D01*
X65363765Y-50272984D01*
X65503775Y-50310500D01*
X65503778Y-50310500D01*
X65648722Y-50310500D01*
X65648725Y-50310500D01*
X65788735Y-50272984D01*
X65914265Y-50200509D01*
X66016759Y-50098015D01*
X66048060Y-50043800D01*
X66098624Y-49995587D01*
X66167231Y-49982363D01*
X66232096Y-50008331D01*
X66253154Y-50032631D01*
X66254543Y-50031566D01*
X66259489Y-50038012D01*
X66259491Y-50038015D01*
X66361985Y-50140509D01*
X66361986Y-50140510D01*
X66361988Y-50140511D01*
X66487511Y-50212982D01*
X66487512Y-50212982D01*
X66487515Y-50212984D01*
X66627525Y-50250500D01*
X66627528Y-50250500D01*
X66772472Y-50250500D01*
X66772475Y-50250500D01*
X66912485Y-50212984D01*
X67038015Y-50140509D01*
X67140509Y-50038015D01*
X67212984Y-49912485D01*
X67250500Y-49772475D01*
X67250500Y-49627525D01*
X67212984Y-49487515D01*
X67178873Y-49428434D01*
X67140511Y-49361988D01*
X67140506Y-49361982D01*
X67038017Y-49259493D01*
X67038011Y-49259488D01*
X66912488Y-49187017D01*
X66912489Y-49187017D01*
X66901006Y-49183940D01*
X66772475Y-49149500D01*
X66627525Y-49149500D01*
X66498993Y-49183940D01*
X66487511Y-49187017D01*
X66361988Y-49259488D01*
X66361982Y-49259493D01*
X66259493Y-49361982D01*
X66259491Y-49361985D01*
X66228191Y-49416198D01*
X66177623Y-49464413D01*
X66109016Y-49477635D01*
X66044151Y-49451667D01*
X66023098Y-49427366D01*
X66021707Y-49428434D01*
X66016761Y-49421988D01*
X66016759Y-49421985D01*
X65914265Y-49319491D01*
X65914263Y-49319490D01*
X65914261Y-49319488D01*
X65788738Y-49247017D01*
X65788739Y-49247017D01*
X65777256Y-49243940D01*
X65648725Y-49209500D01*
X65503775Y-49209500D01*
X65375243Y-49243940D01*
X65363761Y-49247017D01*
X65238238Y-49319488D01*
X65238232Y-49319493D01*
X65163931Y-49393795D01*
X65102608Y-49427280D01*
X65032916Y-49422296D01*
X64988569Y-49393795D01*
X64914267Y-49319493D01*
X64914261Y-49319488D01*
X64788738Y-49247017D01*
X64788739Y-49247017D01*
X64777256Y-49243940D01*
X64648725Y-49209500D01*
X64503775Y-49209500D01*
X64375243Y-49243940D01*
X64363761Y-49247017D01*
X64238238Y-49319488D01*
X64238232Y-49319493D01*
X64135743Y-49421982D01*
X64135738Y-49421988D01*
X64063267Y-49547511D01*
X64063266Y-49547515D01*
X64025750Y-49687525D01*
X53477726Y-49687525D01*
X53535484Y-49587485D01*
X53573000Y-49447475D01*
X53573000Y-49302525D01*
X53535484Y-49162515D01*
X53463009Y-49036985D01*
X53360515Y-48934491D01*
X53360513Y-48934490D01*
X53360511Y-48934488D01*
X53234988Y-48862017D01*
X53234989Y-48862017D01*
X53223506Y-48858940D01*
X53094975Y-48824500D01*
X52950025Y-48824500D01*
X52821493Y-48858940D01*
X52810011Y-48862017D01*
X52684488Y-48934488D01*
X52684482Y-48934493D01*
X52581993Y-49036982D01*
X52581988Y-49036988D01*
X52509517Y-49162511D01*
X52509516Y-49162515D01*
X52472000Y-49302525D01*
X30194699Y-49302525D01*
X30194699Y-47912524D01*
X75207001Y-47912524D01*
X75207001Y-48057474D01*
X75244517Y-48197484D01*
X75244518Y-48197487D01*
X75316989Y-48323010D01*
X75316991Y-48323012D01*
X75316992Y-48323014D01*
X75419486Y-48425508D01*
X75419487Y-48425509D01*
X75419489Y-48425510D01*
X75545012Y-48497981D01*
X75545013Y-48497981D01*
X75545016Y-48497983D01*
X75685026Y-48535499D01*
X75685029Y-48535499D01*
X75829973Y-48535499D01*
X75829976Y-48535499D01*
X75969986Y-48497983D01*
X76095516Y-48425508D01*
X76198010Y-48323014D01*
X76270485Y-48197484D01*
X76308001Y-48057474D01*
X76308001Y-47912524D01*
X76270485Y-47772514D01*
X76243758Y-47726222D01*
X76198012Y-47646987D01*
X76198007Y-47646981D01*
X76095518Y-47544492D01*
X76095512Y-47544487D01*
X75969989Y-47472016D01*
X75969990Y-47472016D01*
X75958507Y-47468939D01*
X75829976Y-47434499D01*
X75685026Y-47434499D01*
X75556494Y-47468939D01*
X75545012Y-47472016D01*
X75419489Y-47544487D01*
X75419483Y-47544492D01*
X75316994Y-47646981D01*
X75316989Y-47646987D01*
X75244518Y-47772510D01*
X75244517Y-47772514D01*
X75207001Y-47912524D01*
X30194699Y-47912524D01*
X30194699Y-47103247D01*
X52571278Y-47103247D01*
X52571278Y-47248197D01*
X52604715Y-47372984D01*
X52608795Y-47388210D01*
X52681266Y-47513733D01*
X52681268Y-47513735D01*
X52681269Y-47513737D01*
X52783763Y-47616231D01*
X52783764Y-47616232D01*
X52783766Y-47616233D01*
X52909289Y-47688704D01*
X52909290Y-47688704D01*
X52909293Y-47688706D01*
X53049303Y-47726222D01*
X53049306Y-47726222D01*
X53194250Y-47726222D01*
X53194253Y-47726222D01*
X53334263Y-47688706D01*
X53459793Y-47616231D01*
X53562287Y-47513737D01*
X53634762Y-47388207D01*
X53672278Y-47248197D01*
X53672278Y-47103247D01*
X53634762Y-46963237D01*
X53562287Y-46837707D01*
X53512105Y-46787525D01*
X61925750Y-46787525D01*
X61925750Y-46932475D01*
X61963266Y-47072485D01*
X61963267Y-47072488D01*
X62035738Y-47198011D01*
X62035740Y-47198013D01*
X62035741Y-47198015D01*
X62138235Y-47300509D01*
X62138236Y-47300510D01*
X62138238Y-47300511D01*
X62263761Y-47372982D01*
X62263762Y-47372982D01*
X62263765Y-47372984D01*
X62403775Y-47410500D01*
X62403778Y-47410500D01*
X62548722Y-47410500D01*
X62548725Y-47410500D01*
X62688735Y-47372984D01*
X62814265Y-47300509D01*
X62916759Y-47198015D01*
X62989234Y-47072485D01*
X63026750Y-46932475D01*
X63026750Y-46787525D01*
X62989234Y-46647515D01*
X62973055Y-46619493D01*
X62916761Y-46521988D01*
X62916756Y-46521982D01*
X62814267Y-46419493D01*
X62814261Y-46419488D01*
X62688738Y-46347017D01*
X62688739Y-46347017D01*
X62677256Y-46343940D01*
X62548725Y-46309500D01*
X62403775Y-46309500D01*
X62275243Y-46343940D01*
X62263761Y-46347017D01*
X62138238Y-46419488D01*
X62138232Y-46419493D01*
X62035743Y-46521982D01*
X62035738Y-46521988D01*
X61963267Y-46647511D01*
X61963266Y-46647515D01*
X61925750Y-46787525D01*
X53512105Y-46787525D01*
X53459793Y-46735213D01*
X53459791Y-46735212D01*
X53459789Y-46735210D01*
X53334266Y-46662739D01*
X53334267Y-46662739D01*
X53322784Y-46659662D01*
X53194253Y-46625222D01*
X53049303Y-46625222D01*
X52920771Y-46659662D01*
X52909289Y-46662739D01*
X52783766Y-46735210D01*
X52783760Y-46735215D01*
X52681271Y-46837704D01*
X52681266Y-46837710D01*
X52608795Y-46963233D01*
X52608794Y-46963237D01*
X52571278Y-47103247D01*
X30194699Y-47103247D01*
X30194699Y-45402525D01*
X48472000Y-45402525D01*
X48472000Y-45547475D01*
X48509516Y-45687485D01*
X48509517Y-45687488D01*
X48581988Y-45813011D01*
X48581990Y-45813013D01*
X48581991Y-45813015D01*
X48684485Y-45915509D01*
X48684486Y-45915510D01*
X48684488Y-45915511D01*
X48810011Y-45987982D01*
X48810012Y-45987982D01*
X48810015Y-45987984D01*
X48950025Y-46025500D01*
X48950028Y-46025500D01*
X49094972Y-46025500D01*
X49094975Y-46025500D01*
X49234985Y-45987984D01*
X49360515Y-45915509D01*
X49463009Y-45813015D01*
X49535484Y-45687485D01*
X49573000Y-45547475D01*
X49573000Y-45502525D01*
X51372000Y-45502525D01*
X51372000Y-45647475D01*
X51382721Y-45687485D01*
X51409517Y-45787488D01*
X51481988Y-45913011D01*
X51481990Y-45913013D01*
X51481991Y-45913015D01*
X51584485Y-46015509D01*
X51584486Y-46015510D01*
X51584488Y-46015511D01*
X51710011Y-46087982D01*
X51710012Y-46087982D01*
X51710015Y-46087984D01*
X51850025Y-46125500D01*
X51850028Y-46125500D01*
X51994972Y-46125500D01*
X51994975Y-46125500D01*
X52134985Y-46087984D01*
X52260515Y-46015509D01*
X52363009Y-45913015D01*
X52435484Y-45787485D01*
X52473000Y-45647475D01*
X52473000Y-45502525D01*
X52468981Y-45487525D01*
X67089049Y-45487525D01*
X67089049Y-45632475D01*
X67103790Y-45687488D01*
X67126566Y-45772488D01*
X67199031Y-45898000D01*
X67215504Y-45965900D01*
X67199031Y-46022000D01*
X67126566Y-46147511D01*
X67126565Y-46147515D01*
X67089049Y-46287525D01*
X67089049Y-46432475D01*
X67119741Y-46547016D01*
X67126566Y-46572488D01*
X67199037Y-46698011D01*
X67199038Y-46698012D01*
X67199040Y-46698015D01*
X67223007Y-46721982D01*
X67223345Y-46722320D01*
X67256829Y-46783644D01*
X67251843Y-46853335D01*
X67223345Y-46897680D01*
X67199037Y-46921988D01*
X67126566Y-47047511D01*
X67126565Y-47047515D01*
X67089049Y-47187525D01*
X67089049Y-47332475D01*
X67126565Y-47472485D01*
X67126566Y-47472488D01*
X67199037Y-47598011D01*
X67199039Y-47598013D01*
X67199040Y-47598015D01*
X67301534Y-47700509D01*
X67301535Y-47700510D01*
X67301537Y-47700511D01*
X67427060Y-47772982D01*
X67427061Y-47772982D01*
X67427064Y-47772984D01*
X67567074Y-47810500D01*
X67567077Y-47810500D01*
X67712021Y-47810500D01*
X67712024Y-47810500D01*
X67852034Y-47772984D01*
X67977564Y-47700509D01*
X68001868Y-47676205D01*
X68063191Y-47642720D01*
X68132883Y-47647704D01*
X68177230Y-47676205D01*
X68201534Y-47700509D01*
X68201535Y-47700510D01*
X68201537Y-47700511D01*
X68327060Y-47772982D01*
X68327061Y-47772982D01*
X68327064Y-47772984D01*
X68467074Y-47810500D01*
X68467077Y-47810500D01*
X68612021Y-47810500D01*
X68612024Y-47810500D01*
X68752034Y-47772984D01*
X68877551Y-47700516D01*
X68945448Y-47684044D01*
X69001545Y-47700515D01*
X69127064Y-47772984D01*
X69267074Y-47810500D01*
X69267077Y-47810500D01*
X69412021Y-47810500D01*
X69412024Y-47810500D01*
X69552034Y-47772984D01*
X69677564Y-47700509D01*
X69780058Y-47598015D01*
X69852533Y-47472485D01*
X69890049Y-47332475D01*
X69890049Y-47187525D01*
X69852533Y-47047515D01*
X69852531Y-47047511D01*
X69851002Y-47044862D01*
X69850996Y-47044854D01*
X69817897Y-46987525D01*
X73649500Y-46987525D01*
X73649500Y-47132475D01*
X73680507Y-47248194D01*
X73687017Y-47272488D01*
X73759488Y-47398011D01*
X73759490Y-47398013D01*
X73759491Y-47398015D01*
X73861985Y-47500509D01*
X73861986Y-47500510D01*
X73861988Y-47500511D01*
X73987511Y-47572982D01*
X73987512Y-47572982D01*
X73987515Y-47572984D01*
X74127525Y-47610500D01*
X74127528Y-47610500D01*
X74272472Y-47610500D01*
X74272475Y-47610500D01*
X74412485Y-47572984D01*
X74538015Y-47500509D01*
X74640509Y-47398015D01*
X74712984Y-47272485D01*
X74750500Y-47132475D01*
X74750500Y-46987525D01*
X74712984Y-46847515D01*
X74707321Y-46837707D01*
X74640511Y-46721988D01*
X74640506Y-46721982D01*
X74538017Y-46619493D01*
X74538011Y-46619488D01*
X74412488Y-46547017D01*
X74412489Y-46547017D01*
X74401006Y-46543940D01*
X74272475Y-46509500D01*
X74127525Y-46509500D01*
X73998993Y-46543940D01*
X73987511Y-46547017D01*
X73861988Y-46619488D01*
X73861982Y-46619493D01*
X73759493Y-46721982D01*
X73759488Y-46721988D01*
X73687017Y-46847511D01*
X73684559Y-46856683D01*
X73649500Y-46987525D01*
X69817897Y-46987525D01*
X69780058Y-46921985D01*
X69747074Y-46889001D01*
X69740267Y-46878792D01*
X69733367Y-46856683D01*
X69722269Y-46836358D01*
X69723155Y-46823959D01*
X69719453Y-46812095D01*
X69725600Y-46789768D01*
X69727253Y-46766666D01*
X69735492Y-46753845D01*
X69738002Y-46744732D01*
X69745900Y-46737650D01*
X69755754Y-46722319D01*
X69756091Y-46721982D01*
X69780058Y-46698015D01*
X69852533Y-46572485D01*
X69890049Y-46432475D01*
X69890049Y-46287525D01*
X69852533Y-46147515D01*
X69780065Y-46021997D01*
X69763593Y-45954101D01*
X69780064Y-45898003D01*
X69852533Y-45772485D01*
X69890049Y-45632475D01*
X69890049Y-45487525D01*
X69852533Y-45347515D01*
X69788718Y-45236985D01*
X69780060Y-45221988D01*
X69780055Y-45221982D01*
X69677566Y-45119493D01*
X69677560Y-45119488D01*
X69552037Y-45047017D01*
X69552038Y-45047017D01*
X69540555Y-45043940D01*
X69412024Y-45009500D01*
X69267074Y-45009500D01*
X69138542Y-45043940D01*
X69127060Y-45047017D01*
X69001537Y-45119488D01*
X68977229Y-45143796D01*
X68915905Y-45177280D01*
X68846214Y-45172294D01*
X68801869Y-45143796D01*
X68792561Y-45134488D01*
X68777564Y-45119491D01*
X68777561Y-45119489D01*
X68777560Y-45119488D01*
X68652037Y-45047017D01*
X68652038Y-45047017D01*
X68640555Y-45043940D01*
X68512024Y-45009500D01*
X68367074Y-45009500D01*
X68238542Y-45043940D01*
X68227060Y-45047017D01*
X68101549Y-45119482D01*
X68033649Y-45135955D01*
X67977549Y-45119482D01*
X67852037Y-45047017D01*
X67852038Y-45047017D01*
X67840555Y-45043940D01*
X67712024Y-45009500D01*
X67567074Y-45009500D01*
X67438542Y-45043940D01*
X67427060Y-45047017D01*
X67301537Y-45119488D01*
X67301531Y-45119493D01*
X67199042Y-45221982D01*
X67199037Y-45221988D01*
X67126566Y-45347511D01*
X67126565Y-45347515D01*
X67089049Y-45487525D01*
X52468981Y-45487525D01*
X52435484Y-45362515D01*
X52426821Y-45347511D01*
X52363011Y-45236988D01*
X52363006Y-45236982D01*
X52260517Y-45134493D01*
X52260511Y-45134488D01*
X52134988Y-45062017D01*
X52134989Y-45062017D01*
X52123506Y-45058940D01*
X51994975Y-45024500D01*
X51850025Y-45024500D01*
X51721493Y-45058940D01*
X51710011Y-45062017D01*
X51584488Y-45134488D01*
X51584482Y-45134493D01*
X51481993Y-45236982D01*
X51481988Y-45236988D01*
X51409517Y-45362511D01*
X51409516Y-45362515D01*
X51372000Y-45502525D01*
X49573000Y-45502525D01*
X49573000Y-45402525D01*
X49535484Y-45262515D01*
X49521574Y-45238423D01*
X49463011Y-45136988D01*
X49463006Y-45136982D01*
X49360517Y-45034493D01*
X49360511Y-45034488D01*
X49234988Y-44962017D01*
X49234989Y-44962017D01*
X49223506Y-44958940D01*
X49094975Y-44924500D01*
X48950025Y-44924500D01*
X48821493Y-44958940D01*
X48810011Y-44962017D01*
X48684488Y-45034488D01*
X48684482Y-45034493D01*
X48581993Y-45136982D01*
X48581988Y-45136988D01*
X48509517Y-45262511D01*
X48509516Y-45262515D01*
X48472000Y-45402525D01*
X30194699Y-45402525D01*
X30194699Y-42162525D01*
X54185750Y-42162525D01*
X54185750Y-42307475D01*
X54223266Y-42447485D01*
X54223267Y-42447488D01*
X54295738Y-42573011D01*
X54295740Y-42573013D01*
X54295741Y-42573015D01*
X54398235Y-42675509D01*
X54398236Y-42675510D01*
X54398238Y-42675511D01*
X54523761Y-42747982D01*
X54523762Y-42747982D01*
X54523765Y-42747984D01*
X54663775Y-42785500D01*
X54663778Y-42785500D01*
X54808722Y-42785500D01*
X54808725Y-42785500D01*
X54948735Y-42747984D01*
X55074265Y-42675509D01*
X55176759Y-42573015D01*
X55249234Y-42447485D01*
X55286750Y-42307475D01*
X55286750Y-42162525D01*
X55249234Y-42022515D01*
X55229032Y-41987525D01*
X55176761Y-41896988D01*
X55176756Y-41896982D01*
X55074267Y-41794493D01*
X55074261Y-41794488D01*
X54948738Y-41722017D01*
X54948739Y-41722017D01*
X54925910Y-41715900D01*
X54808725Y-41684500D01*
X54663775Y-41684500D01*
X54546590Y-41715900D01*
X54523761Y-41722017D01*
X54398238Y-41794488D01*
X54398232Y-41794493D01*
X54295743Y-41896982D01*
X54295738Y-41896988D01*
X54223267Y-42022511D01*
X54223266Y-42022515D01*
X54185750Y-42162525D01*
X30194699Y-42162525D01*
X30194699Y-41287525D01*
X69789049Y-41287525D01*
X69789049Y-41432475D01*
X69826565Y-41572485D01*
X69826566Y-41572488D01*
X69870163Y-41648000D01*
X69886636Y-41715900D01*
X69870164Y-41771999D01*
X69826567Y-41847512D01*
X69826566Y-41847514D01*
X69826566Y-41847515D01*
X69789050Y-41987525D01*
X69789050Y-42132475D01*
X69797103Y-42162527D01*
X69826567Y-42272488D01*
X69899038Y-42398011D01*
X69899040Y-42398013D01*
X69899041Y-42398015D01*
X70001535Y-42500509D01*
X70001536Y-42500510D01*
X70001538Y-42500511D01*
X70127061Y-42572982D01*
X70127062Y-42572982D01*
X70127065Y-42572984D01*
X70267075Y-42610500D01*
X70267078Y-42610500D01*
X70412022Y-42610500D01*
X70412025Y-42610500D01*
X70552035Y-42572984D01*
X70656754Y-42512524D01*
X77507001Y-42512524D01*
X77507001Y-42657474D01*
X77541306Y-42785500D01*
X77544518Y-42797487D01*
X77616989Y-42923010D01*
X77616991Y-42923012D01*
X77616992Y-42923014D01*
X77719486Y-43025508D01*
X77719487Y-43025509D01*
X77719489Y-43025510D01*
X77845012Y-43097981D01*
X77845013Y-43097981D01*
X77845016Y-43097983D01*
X77985026Y-43135499D01*
X77985029Y-43135499D01*
X78129973Y-43135499D01*
X78129976Y-43135499D01*
X78269986Y-43097983D01*
X78395516Y-43025508D01*
X78498010Y-42923014D01*
X78570485Y-42797484D01*
X78608001Y-42657474D01*
X78608001Y-42512524D01*
X78570485Y-42372514D01*
X78498010Y-42246984D01*
X78395516Y-42144490D01*
X78395514Y-42144489D01*
X78395512Y-42144487D01*
X78269989Y-42072016D01*
X78269990Y-42072016D01*
X78258507Y-42068939D01*
X78129976Y-42034499D01*
X77985026Y-42034499D01*
X77856494Y-42068939D01*
X77845012Y-42072016D01*
X77719489Y-42144487D01*
X77719483Y-42144492D01*
X77616994Y-42246981D01*
X77616989Y-42246987D01*
X77544518Y-42372510D01*
X77544517Y-42372514D01*
X77507001Y-42512524D01*
X70656754Y-42512524D01*
X70677565Y-42500509D01*
X70780059Y-42398015D01*
X70852534Y-42272485D01*
X70890050Y-42132475D01*
X70890050Y-41987525D01*
X70852534Y-41847515D01*
X70821922Y-41794493D01*
X70808935Y-41771999D01*
X70792462Y-41704099D01*
X70808935Y-41647998D01*
X70852533Y-41572485D01*
X70890049Y-41432475D01*
X70890049Y-41287525D01*
X70852533Y-41147515D01*
X70780058Y-41021985D01*
X70677564Y-40919491D01*
X70677562Y-40919490D01*
X70677560Y-40919488D01*
X70552037Y-40847017D01*
X70552038Y-40847017D01*
X70540555Y-40843940D01*
X70412024Y-40809500D01*
X70267074Y-40809500D01*
X70138542Y-40843940D01*
X70127060Y-40847017D01*
X70001537Y-40919488D01*
X70001531Y-40919493D01*
X69899042Y-41021982D01*
X69899037Y-41021988D01*
X69826566Y-41147511D01*
X69826565Y-41147515D01*
X69789049Y-41287525D01*
X30194699Y-41287525D01*
X30194699Y-38934109D01*
X37582252Y-38934109D01*
X37582252Y-39065893D01*
X37597282Y-39121988D01*
X37616361Y-39193189D01*
X37616361Y-39193190D01*
X37685534Y-39313001D01*
X37702007Y-39380901D01*
X37685534Y-39437001D01*
X37616361Y-39556811D01*
X37616361Y-39556812D01*
X37616361Y-39556813D01*
X37616360Y-39556815D01*
X37582252Y-39684109D01*
X37582252Y-39815893D01*
X37604925Y-39900511D01*
X37616361Y-39943189D01*
X37616361Y-39943190D01*
X37685534Y-40063001D01*
X37702007Y-40130901D01*
X37685534Y-40187001D01*
X37616361Y-40306811D01*
X37616361Y-40306812D01*
X37582252Y-40434109D01*
X37582252Y-40565892D01*
X37616360Y-40693188D01*
X37649306Y-40750251D01*
X37682252Y-40807315D01*
X37775438Y-40900501D01*
X37889566Y-40966393D01*
X38016860Y-41000501D01*
X38016862Y-41000501D01*
X38148642Y-41000501D01*
X38148644Y-41000501D01*
X38275938Y-40966393D01*
X38370753Y-40911651D01*
X38438650Y-40895179D01*
X38494748Y-40911650D01*
X38589564Y-40966393D01*
X38716858Y-41000501D01*
X38716860Y-41000501D01*
X38848640Y-41000501D01*
X38848642Y-41000501D01*
X38975936Y-40966393D01*
X39090064Y-40900501D01*
X39183250Y-40807315D01*
X39249142Y-40693187D01*
X39283250Y-40565893D01*
X39283250Y-40434109D01*
X39249142Y-40306815D01*
X39183250Y-40192687D01*
X39183248Y-40192685D01*
X39179967Y-40187002D01*
X39163494Y-40119102D01*
X39179967Y-40063000D01*
X39183248Y-40057316D01*
X39183250Y-40057315D01*
X39249142Y-39943187D01*
X39283250Y-39815893D01*
X39283250Y-39727525D01*
X69949500Y-39727525D01*
X69949500Y-39872475D01*
X69976431Y-39972982D01*
X69987017Y-40012488D01*
X70059488Y-40138011D01*
X70059490Y-40138013D01*
X70059491Y-40138015D01*
X70161985Y-40240509D01*
X70161986Y-40240510D01*
X70161988Y-40240511D01*
X70287511Y-40312982D01*
X70287512Y-40312982D01*
X70287515Y-40312984D01*
X70427525Y-40350500D01*
X70427528Y-40350500D01*
X70572472Y-40350500D01*
X70572475Y-40350500D01*
X70712485Y-40312984D01*
X70838015Y-40240509D01*
X70940509Y-40138015D01*
X71012984Y-40012485D01*
X71050500Y-39872475D01*
X71050500Y-39727525D01*
X71012984Y-39587515D01*
X70995259Y-39556815D01*
X70940511Y-39461988D01*
X70940506Y-39461982D01*
X70866049Y-39387525D01*
X71725750Y-39387525D01*
X71725750Y-39532475D01*
X71763266Y-39672485D01*
X71763267Y-39672488D01*
X71835738Y-39798011D01*
X71835740Y-39798013D01*
X71835741Y-39798015D01*
X71938235Y-39900509D01*
X71938236Y-39900510D01*
X71938238Y-39900511D01*
X72063761Y-39972982D01*
X72063762Y-39972982D01*
X72063765Y-39972984D01*
X72203775Y-40010500D01*
X72203778Y-40010500D01*
X72348722Y-40010500D01*
X72348725Y-40010500D01*
X72488735Y-39972984D01*
X72614265Y-39900509D01*
X72716759Y-39798015D01*
X72789234Y-39672485D01*
X72826750Y-39532475D01*
X72826750Y-39387525D01*
X72789234Y-39247515D01*
X72757869Y-39193190D01*
X72716761Y-39121988D01*
X72716756Y-39121982D01*
X72614267Y-39019493D01*
X72614261Y-39019488D01*
X72488738Y-38947017D01*
X72488739Y-38947017D01*
X72440573Y-38934111D01*
X72348725Y-38909500D01*
X72203775Y-38909500D01*
X72111927Y-38934111D01*
X72063761Y-38947017D01*
X71938238Y-39019488D01*
X71938232Y-39019493D01*
X71835743Y-39121982D01*
X71835738Y-39121988D01*
X71763267Y-39247511D01*
X71763266Y-39247515D01*
X71725750Y-39387525D01*
X70866049Y-39387525D01*
X70838017Y-39359493D01*
X70838011Y-39359488D01*
X70712488Y-39287017D01*
X70712489Y-39287017D01*
X70701006Y-39283940D01*
X70572475Y-39249500D01*
X70427525Y-39249500D01*
X70298993Y-39283940D01*
X70287511Y-39287017D01*
X70161988Y-39359488D01*
X70161982Y-39359493D01*
X70059493Y-39461982D01*
X70059488Y-39461988D01*
X69987017Y-39587511D01*
X69987016Y-39587515D01*
X69949500Y-39727525D01*
X39283250Y-39727525D01*
X39283250Y-39684109D01*
X39249142Y-39556815D01*
X39183250Y-39442687D01*
X39183248Y-39442685D01*
X39179967Y-39437002D01*
X39163494Y-39369102D01*
X39179967Y-39313000D01*
X39183248Y-39307316D01*
X39183250Y-39307315D01*
X39249142Y-39193187D01*
X39283250Y-39065893D01*
X39283250Y-38934109D01*
X39249142Y-38806815D01*
X39183250Y-38692687D01*
X39090064Y-38599501D01*
X38987891Y-38540511D01*
X38975937Y-38533609D01*
X38912289Y-38516555D01*
X38848642Y-38499501D01*
X38716858Y-38499501D01*
X38589564Y-38533609D01*
X38589563Y-38533609D01*
X38589561Y-38533610D01*
X38589560Y-38533610D01*
X38494751Y-38588349D01*
X38426851Y-38604822D01*
X38370751Y-38588349D01*
X38275941Y-38533610D01*
X38275938Y-38533609D01*
X38148644Y-38499501D01*
X38016860Y-38499501D01*
X37889564Y-38533609D01*
X37775438Y-38599501D01*
X37775435Y-38599503D01*
X37682254Y-38692684D01*
X37682252Y-38692687D01*
X37616360Y-38806813D01*
X37591924Y-38898011D01*
X37582252Y-38934109D01*
X30194699Y-38934109D01*
X30194699Y-37770526D01*
X36017501Y-37770526D01*
X36017501Y-37915476D01*
X36052748Y-38047017D01*
X36055018Y-38055489D01*
X36127489Y-38181012D01*
X36127491Y-38181014D01*
X36127492Y-38181016D01*
X36229986Y-38283510D01*
X36229987Y-38283511D01*
X36229989Y-38283512D01*
X36355512Y-38355983D01*
X36355513Y-38355983D01*
X36355516Y-38355985D01*
X36495526Y-38393501D01*
X36495529Y-38393501D01*
X36640473Y-38393501D01*
X36640476Y-38393501D01*
X36780486Y-38355985D01*
X36906016Y-38283510D01*
X37008510Y-38181016D01*
X37080985Y-38055486D01*
X37088477Y-38027525D01*
X54749500Y-38027525D01*
X54749500Y-38172475D01*
X54779252Y-38283510D01*
X54787017Y-38312488D01*
X54859488Y-38438011D01*
X54859490Y-38438013D01*
X54859491Y-38438015D01*
X54961985Y-38540509D01*
X54961986Y-38540510D01*
X54961988Y-38540511D01*
X55087511Y-38612982D01*
X55087512Y-38612982D01*
X55087515Y-38612984D01*
X55227525Y-38650500D01*
X55227528Y-38650500D01*
X55372472Y-38650500D01*
X55372475Y-38650500D01*
X55512485Y-38612984D01*
X55638015Y-38540509D01*
X55690999Y-38487525D01*
X66025750Y-38487525D01*
X66025750Y-38632475D01*
X66041884Y-38692687D01*
X66063267Y-38772488D01*
X66135738Y-38898011D01*
X66135740Y-38898013D01*
X66135741Y-38898015D01*
X66238235Y-39000509D01*
X66238236Y-39000510D01*
X66238238Y-39000511D01*
X66363761Y-39072982D01*
X66363762Y-39072982D01*
X66363765Y-39072984D01*
X66503775Y-39110500D01*
X66503778Y-39110500D01*
X66648722Y-39110500D01*
X66648725Y-39110500D01*
X66788735Y-39072984D01*
X66914265Y-39000509D01*
X67016759Y-38898015D01*
X67089234Y-38772485D01*
X67126750Y-38632475D01*
X67126750Y-38487525D01*
X67089234Y-38347515D01*
X67085190Y-38340511D01*
X67016761Y-38221988D01*
X67016756Y-38221982D01*
X66914267Y-38119493D01*
X66914265Y-38119491D01*
X66788735Y-38047016D01*
X66648725Y-38009500D01*
X66503775Y-38009500D01*
X66375243Y-38043940D01*
X66363761Y-38047017D01*
X66238238Y-38119488D01*
X66238232Y-38119493D01*
X66135743Y-38221982D01*
X66135738Y-38221988D01*
X66063267Y-38347511D01*
X66063266Y-38347515D01*
X66025750Y-38487525D01*
X55690999Y-38487525D01*
X55740509Y-38438015D01*
X55812984Y-38312485D01*
X55850500Y-38172475D01*
X55850500Y-38027525D01*
X55812984Y-37887515D01*
X55812982Y-37887511D01*
X55809454Y-37881400D01*
X55809453Y-37881399D01*
X55789890Y-37847515D01*
X55778349Y-37827525D01*
X64449500Y-37827525D01*
X64449500Y-37972475D01*
X64469474Y-38047017D01*
X64487017Y-38112488D01*
X64559488Y-38238011D01*
X64559490Y-38238013D01*
X64559491Y-38238015D01*
X64661985Y-38340509D01*
X64661986Y-38340510D01*
X64661988Y-38340511D01*
X64787511Y-38412982D01*
X64787512Y-38412982D01*
X64787515Y-38412984D01*
X64927525Y-38450500D01*
X64927528Y-38450500D01*
X65072472Y-38450500D01*
X65072475Y-38450500D01*
X65212485Y-38412984D01*
X65338015Y-38340509D01*
X65440509Y-38238015D01*
X65512984Y-38112485D01*
X65546467Y-37987525D01*
X73025750Y-37987525D01*
X73025750Y-38132475D01*
X73063266Y-38272485D01*
X73063267Y-38272488D01*
X73135738Y-38398011D01*
X73135740Y-38398013D01*
X73135741Y-38398015D01*
X73238235Y-38500509D01*
X73238236Y-38500510D01*
X73238238Y-38500511D01*
X73363761Y-38572982D01*
X73363762Y-38572982D01*
X73363765Y-38572984D01*
X73503775Y-38610500D01*
X73503778Y-38610500D01*
X73648722Y-38610500D01*
X73648725Y-38610500D01*
X73788735Y-38572984D01*
X73914265Y-38500509D01*
X74016759Y-38398015D01*
X74089234Y-38272485D01*
X74126750Y-38132475D01*
X74126750Y-37987525D01*
X77825750Y-37987525D01*
X77825750Y-38132475D01*
X77863266Y-38272485D01*
X77863267Y-38272488D01*
X77935738Y-38398011D01*
X77935740Y-38398013D01*
X77935741Y-38398015D01*
X78038235Y-38500509D01*
X78038236Y-38500510D01*
X78038238Y-38500511D01*
X78163761Y-38572982D01*
X78163762Y-38572982D01*
X78163765Y-38572984D01*
X78303775Y-38610500D01*
X78303778Y-38610500D01*
X78448722Y-38610500D01*
X78448725Y-38610500D01*
X78588735Y-38572984D01*
X78714265Y-38500509D01*
X78816759Y-38398015D01*
X78889234Y-38272485D01*
X78926750Y-38132475D01*
X78926750Y-37987525D01*
X78889234Y-37847515D01*
X78844785Y-37770528D01*
X78816761Y-37721988D01*
X78816756Y-37721982D01*
X78714267Y-37619493D01*
X78714261Y-37619488D01*
X78588738Y-37547017D01*
X78588739Y-37547017D01*
X78577256Y-37543940D01*
X78448725Y-37509500D01*
X78303775Y-37509500D01*
X78175243Y-37543940D01*
X78163761Y-37547017D01*
X78038238Y-37619488D01*
X78038232Y-37619493D01*
X77935743Y-37721982D01*
X77935738Y-37721988D01*
X77863267Y-37847511D01*
X77863266Y-37847515D01*
X77825750Y-37987525D01*
X74126750Y-37987525D01*
X74089234Y-37847515D01*
X74044785Y-37770528D01*
X74016761Y-37721988D01*
X74016756Y-37721982D01*
X73914267Y-37619493D01*
X73914261Y-37619488D01*
X73788738Y-37547017D01*
X73788739Y-37547017D01*
X73777256Y-37543940D01*
X73648725Y-37509500D01*
X73503775Y-37509500D01*
X73375243Y-37543940D01*
X73363761Y-37547017D01*
X73238238Y-37619488D01*
X73238232Y-37619493D01*
X73135743Y-37721982D01*
X73135738Y-37721988D01*
X73063267Y-37847511D01*
X73063266Y-37847515D01*
X73025750Y-37987525D01*
X65546467Y-37987525D01*
X65550500Y-37972475D01*
X65550500Y-37827525D01*
X65512984Y-37687515D01*
X65496805Y-37659493D01*
X65440511Y-37561988D01*
X65440506Y-37561982D01*
X65338017Y-37459493D01*
X65338011Y-37459488D01*
X65212488Y-37387017D01*
X65212489Y-37387017D01*
X65201006Y-37383940D01*
X65072475Y-37349500D01*
X64927525Y-37349500D01*
X64798993Y-37383940D01*
X64787511Y-37387017D01*
X64661988Y-37459488D01*
X64661982Y-37459493D01*
X64559493Y-37561982D01*
X64559488Y-37561988D01*
X64487017Y-37687511D01*
X64487016Y-37687515D01*
X64449500Y-37827525D01*
X55778349Y-37827525D01*
X55740509Y-37761985D01*
X55638015Y-37659491D01*
X55638013Y-37659490D01*
X55638011Y-37659488D01*
X55512488Y-37587017D01*
X55512489Y-37587017D01*
X55501006Y-37583940D01*
X55372475Y-37549500D01*
X55227525Y-37549500D01*
X55098993Y-37583940D01*
X55087511Y-37587017D01*
X54961988Y-37659488D01*
X54961982Y-37659493D01*
X54859493Y-37761982D01*
X54859488Y-37761988D01*
X54787017Y-37887511D01*
X54787016Y-37887515D01*
X54749500Y-38027525D01*
X37088477Y-38027525D01*
X37118501Y-37915476D01*
X37118501Y-37770526D01*
X37080985Y-37630516D01*
X37041420Y-37561988D01*
X37008512Y-37504989D01*
X37008507Y-37504983D01*
X36906018Y-37402494D01*
X36906012Y-37402489D01*
X36780489Y-37330018D01*
X36780490Y-37330018D01*
X36769007Y-37326941D01*
X36640476Y-37292501D01*
X36495526Y-37292501D01*
X36366994Y-37326941D01*
X36355512Y-37330018D01*
X36229989Y-37402489D01*
X36229983Y-37402494D01*
X36127494Y-37504983D01*
X36127489Y-37504989D01*
X36055018Y-37630512D01*
X36055017Y-37630516D01*
X36017501Y-37770526D01*
X30194699Y-37770526D01*
X30194699Y-35987525D01*
X63525750Y-35987525D01*
X63525750Y-36132475D01*
X63563266Y-36272485D01*
X63563267Y-36272488D01*
X63635738Y-36398011D01*
X63635740Y-36398013D01*
X63635741Y-36398015D01*
X63738235Y-36500509D01*
X63738236Y-36500510D01*
X63738238Y-36500511D01*
X63863761Y-36572982D01*
X63863762Y-36572982D01*
X63863765Y-36572984D01*
X64003775Y-36610500D01*
X64003778Y-36610500D01*
X64148722Y-36610500D01*
X64148725Y-36610500D01*
X64288735Y-36572984D01*
X64414265Y-36500509D01*
X64516759Y-36398015D01*
X64589234Y-36272485D01*
X64626750Y-36132475D01*
X64626750Y-35987525D01*
X64589234Y-35847515D01*
X64516759Y-35721985D01*
X64414265Y-35619491D01*
X64414263Y-35619490D01*
X64414261Y-35619488D01*
X64288738Y-35547017D01*
X64288739Y-35547017D01*
X64277256Y-35543940D01*
X64148725Y-35509500D01*
X64003775Y-35509500D01*
X63875243Y-35543940D01*
X63863761Y-35547017D01*
X63738238Y-35619488D01*
X63738232Y-35619493D01*
X63635743Y-35721982D01*
X63635738Y-35721988D01*
X63563267Y-35847511D01*
X63563266Y-35847515D01*
X63525750Y-35987525D01*
X30194699Y-35987525D01*
X30194699Y-34684525D01*
X37114250Y-34684525D01*
X37114250Y-34829475D01*
X37151766Y-34969485D01*
X37151767Y-34969488D01*
X37224238Y-35095011D01*
X37224240Y-35095013D01*
X37224241Y-35095015D01*
X37326735Y-35197509D01*
X37326736Y-35197510D01*
X37326738Y-35197511D01*
X37452261Y-35269982D01*
X37452262Y-35269982D01*
X37452265Y-35269984D01*
X37592275Y-35307500D01*
X37592278Y-35307500D01*
X37737222Y-35307500D01*
X37737225Y-35307500D01*
X37877235Y-35269984D01*
X38002765Y-35197509D01*
X38105259Y-35095015D01*
X38177734Y-34969485D01*
X38215250Y-34829475D01*
X38215250Y-34684525D01*
X38714250Y-34684525D01*
X38714250Y-34829475D01*
X38751766Y-34969485D01*
X38751767Y-34969488D01*
X38824238Y-35095011D01*
X38824240Y-35095013D01*
X38824241Y-35095015D01*
X38926735Y-35197509D01*
X38926736Y-35197510D01*
X38926738Y-35197511D01*
X39052261Y-35269982D01*
X39052262Y-35269982D01*
X39052265Y-35269984D01*
X39192275Y-35307500D01*
X39192278Y-35307500D01*
X39337222Y-35307500D01*
X39337225Y-35307500D01*
X39477235Y-35269984D01*
X39602765Y-35197509D01*
X39705259Y-35095015D01*
X39777734Y-34969485D01*
X39815250Y-34829475D01*
X39815250Y-34684525D01*
X39777734Y-34544515D01*
X39705259Y-34418985D01*
X39602765Y-34316491D01*
X39602763Y-34316490D01*
X39602761Y-34316488D01*
X39477238Y-34244017D01*
X39477239Y-34244017D01*
X39465756Y-34240940D01*
X39337225Y-34206500D01*
X39192275Y-34206500D01*
X39063743Y-34240940D01*
X39052261Y-34244017D01*
X38926738Y-34316488D01*
X38926732Y-34316493D01*
X38824243Y-34418982D01*
X38824238Y-34418988D01*
X38751767Y-34544511D01*
X38751766Y-34544515D01*
X38714250Y-34684525D01*
X38215250Y-34684525D01*
X38177734Y-34544515D01*
X38105259Y-34418985D01*
X38002765Y-34316491D01*
X38002763Y-34316490D01*
X38002761Y-34316488D01*
X37877238Y-34244017D01*
X37877239Y-34244017D01*
X37865756Y-34240940D01*
X37737225Y-34206500D01*
X37592275Y-34206500D01*
X37463743Y-34240940D01*
X37452261Y-34244017D01*
X37326738Y-34316488D01*
X37326732Y-34316493D01*
X37224243Y-34418982D01*
X37224238Y-34418988D01*
X37151767Y-34544511D01*
X37151766Y-34544515D01*
X37114250Y-34684525D01*
X30194699Y-34684525D01*
X30194699Y-33584525D01*
X33814250Y-33584525D01*
X33814250Y-33729475D01*
X33831264Y-33792971D01*
X33851767Y-33869488D01*
X33924238Y-33995011D01*
X33924240Y-33995013D01*
X33924241Y-33995015D01*
X34026735Y-34097509D01*
X34026736Y-34097510D01*
X34026738Y-34097511D01*
X34152261Y-34169982D01*
X34152262Y-34169982D01*
X34152265Y-34169984D01*
X34292275Y-34207500D01*
X34292278Y-34207500D01*
X34437222Y-34207500D01*
X34437225Y-34207500D01*
X34577235Y-34169984D01*
X34702765Y-34097509D01*
X34805259Y-33995015D01*
X34877734Y-33869485D01*
X34915250Y-33729475D01*
X34915250Y-33584525D01*
X34877734Y-33444515D01*
X34877732Y-33444511D01*
X34877732Y-33444510D01*
X34877731Y-33444509D01*
X34873023Y-33436354D01*
X34873022Y-33436353D01*
X34855556Y-33406101D01*
X34841918Y-33382479D01*
X37888081Y-33382479D01*
X37888081Y-33527429D01*
X37925597Y-33667439D01*
X37925598Y-33667442D01*
X37998069Y-33792965D01*
X37998071Y-33792967D01*
X37998072Y-33792969D01*
X38100566Y-33895463D01*
X38100567Y-33895464D01*
X38100569Y-33895465D01*
X38226092Y-33967936D01*
X38226093Y-33967936D01*
X38226096Y-33967938D01*
X38366106Y-34005454D01*
X38366109Y-34005454D01*
X38511053Y-34005454D01*
X38511056Y-34005454D01*
X38651066Y-33967938D01*
X38776596Y-33895463D01*
X38879090Y-33792969D01*
X38882233Y-33787525D01*
X58725750Y-33787525D01*
X58725750Y-33932475D01*
X58745305Y-34005454D01*
X58763267Y-34072488D01*
X58835738Y-34198011D01*
X58835740Y-34198013D01*
X58835741Y-34198015D01*
X58938235Y-34300509D01*
X58938236Y-34300510D01*
X58938238Y-34300511D01*
X59063761Y-34372982D01*
X59063762Y-34372982D01*
X59063765Y-34372984D01*
X59203775Y-34410500D01*
X59203778Y-34410500D01*
X59348722Y-34410500D01*
X59348725Y-34410500D01*
X59488735Y-34372984D01*
X59614265Y-34300509D01*
X59716759Y-34198015D01*
X59789234Y-34072485D01*
X59826750Y-33932475D01*
X59826750Y-33787525D01*
X59789234Y-33647515D01*
X59719900Y-33527426D01*
X59716761Y-33521988D01*
X59716756Y-33521982D01*
X59614267Y-33419493D01*
X59614261Y-33419488D01*
X59488738Y-33347017D01*
X59488739Y-33347017D01*
X59477256Y-33343940D01*
X59348725Y-33309500D01*
X59203775Y-33309500D01*
X59075243Y-33343940D01*
X59063761Y-33347017D01*
X58938238Y-33419488D01*
X58938232Y-33419493D01*
X58835743Y-33521982D01*
X58835738Y-33521988D01*
X58763267Y-33647511D01*
X58763266Y-33647515D01*
X58725750Y-33787525D01*
X38882233Y-33787525D01*
X38951565Y-33667439D01*
X38989081Y-33527429D01*
X38989081Y-33382479D01*
X38951565Y-33242469D01*
X38925899Y-33198015D01*
X38879092Y-33116942D01*
X38879087Y-33116936D01*
X38776598Y-33014447D01*
X38776592Y-33014442D01*
X38651069Y-32941971D01*
X38651070Y-32941971D01*
X38639587Y-32938894D01*
X38511056Y-32904454D01*
X38366106Y-32904454D01*
X38237574Y-32938894D01*
X38226092Y-32941971D01*
X38100569Y-33014442D01*
X38100563Y-33014447D01*
X37998074Y-33116936D01*
X37998069Y-33116942D01*
X37925598Y-33242465D01*
X37925597Y-33242469D01*
X37888081Y-33382479D01*
X34841918Y-33382479D01*
X34805259Y-33318985D01*
X34702765Y-33216491D01*
X34702763Y-33216490D01*
X34702761Y-33216488D01*
X34577238Y-33144017D01*
X34577239Y-33144017D01*
X34565756Y-33140940D01*
X34437225Y-33106500D01*
X34292275Y-33106500D01*
X34163743Y-33140940D01*
X34152261Y-33144017D01*
X34026738Y-33216488D01*
X34026732Y-33216493D01*
X33924243Y-33318982D01*
X33924238Y-33318988D01*
X33851767Y-33444511D01*
X33851766Y-33444515D01*
X33814250Y-33584525D01*
X30194699Y-33584525D01*
X30194699Y-31684525D01*
X33814250Y-31684525D01*
X33814250Y-31829475D01*
X33851766Y-31969485D01*
X33851767Y-31969488D01*
X33924238Y-32095011D01*
X33924240Y-32095013D01*
X33924241Y-32095015D01*
X34026735Y-32197509D01*
X34026736Y-32197510D01*
X34026738Y-32197511D01*
X34152261Y-32269982D01*
X34152262Y-32269982D01*
X34152265Y-32269984D01*
X34292275Y-32307500D01*
X34292278Y-32307500D01*
X34437222Y-32307500D01*
X34437225Y-32307500D01*
X34577235Y-32269984D01*
X34702765Y-32197509D01*
X34805259Y-32095015D01*
X34811315Y-32084525D01*
X37114250Y-32084525D01*
X37114250Y-32229475D01*
X37145746Y-32347017D01*
X37151767Y-32369488D01*
X37224238Y-32495011D01*
X37224240Y-32495013D01*
X37224241Y-32495015D01*
X37326735Y-32597509D01*
X37326736Y-32597510D01*
X37326738Y-32597511D01*
X37452261Y-32669982D01*
X37452262Y-32669982D01*
X37452265Y-32669984D01*
X37592275Y-32707500D01*
X37592278Y-32707500D01*
X37737222Y-32707500D01*
X37737225Y-32707500D01*
X37877235Y-32669984D01*
X38002765Y-32597509D01*
X38105259Y-32495015D01*
X38177734Y-32369485D01*
X38215250Y-32229475D01*
X38215250Y-32084525D01*
X38714250Y-32084525D01*
X38714250Y-32229475D01*
X38745746Y-32347017D01*
X38751767Y-32369488D01*
X38824238Y-32495011D01*
X38824240Y-32495013D01*
X38824241Y-32495015D01*
X38926735Y-32597509D01*
X38926736Y-32597510D01*
X38926738Y-32597511D01*
X39052261Y-32669982D01*
X39052262Y-32669982D01*
X39052265Y-32669984D01*
X39192275Y-32707500D01*
X39192278Y-32707500D01*
X39337222Y-32707500D01*
X39337225Y-32707500D01*
X39477235Y-32669984D01*
X39602765Y-32597509D01*
X39612749Y-32587525D01*
X61525750Y-32587525D01*
X61525750Y-32732475D01*
X61563266Y-32872485D01*
X61563267Y-32872488D01*
X61635738Y-32998011D01*
X61635740Y-32998013D01*
X61635741Y-32998015D01*
X61738235Y-33100509D01*
X61738236Y-33100510D01*
X61738238Y-33100511D01*
X61863761Y-33172982D01*
X61863762Y-33172982D01*
X61863765Y-33172984D01*
X62003775Y-33210500D01*
X62003778Y-33210500D01*
X62148722Y-33210500D01*
X62148725Y-33210500D01*
X62288735Y-33172984D01*
X62414265Y-33100509D01*
X62516759Y-32998015D01*
X62589234Y-32872485D01*
X62611999Y-32787525D01*
X65525750Y-32787525D01*
X65525750Y-32932475D01*
X65547714Y-33014445D01*
X65563267Y-33072488D01*
X65635738Y-33198011D01*
X65635740Y-33198013D01*
X65635741Y-33198015D01*
X65738235Y-33300509D01*
X65738236Y-33300510D01*
X65738238Y-33300511D01*
X65863761Y-33372982D01*
X65863762Y-33372982D01*
X65863765Y-33372984D01*
X66003775Y-33410500D01*
X66003778Y-33410500D01*
X66148722Y-33410500D01*
X66148725Y-33410500D01*
X66288735Y-33372984D01*
X66414265Y-33300509D01*
X66516759Y-33198015D01*
X66589234Y-33072485D01*
X66626750Y-32932475D01*
X66626750Y-32787525D01*
X66589234Y-32647515D01*
X66516759Y-32521985D01*
X66414265Y-32419491D01*
X66414263Y-32419490D01*
X66414261Y-32419488D01*
X66288738Y-32347017D01*
X66288739Y-32347017D01*
X66277256Y-32343940D01*
X66148725Y-32309500D01*
X66003775Y-32309500D01*
X65875243Y-32343940D01*
X65863761Y-32347017D01*
X65738238Y-32419488D01*
X65738232Y-32419493D01*
X65635743Y-32521982D01*
X65635738Y-32521988D01*
X65563267Y-32647511D01*
X65563266Y-32647515D01*
X65525750Y-32787525D01*
X62611999Y-32787525D01*
X62626750Y-32732475D01*
X62626750Y-32587525D01*
X62589234Y-32447515D01*
X62573055Y-32419493D01*
X62516761Y-32321988D01*
X62516756Y-32321982D01*
X62414267Y-32219493D01*
X62414261Y-32219488D01*
X62288738Y-32147017D01*
X62288739Y-32147017D01*
X62277256Y-32143940D01*
X62148725Y-32109500D01*
X62003775Y-32109500D01*
X61875243Y-32143940D01*
X61863761Y-32147017D01*
X61738238Y-32219488D01*
X61738232Y-32219493D01*
X61635743Y-32321982D01*
X61635738Y-32321988D01*
X61563267Y-32447511D01*
X61563266Y-32447515D01*
X61525750Y-32587525D01*
X39612749Y-32587525D01*
X39705259Y-32495015D01*
X39777734Y-32369485D01*
X39815250Y-32229475D01*
X39815250Y-32084525D01*
X39777734Y-31944515D01*
X39711315Y-31829475D01*
X39705261Y-31818988D01*
X39705256Y-31818982D01*
X39613799Y-31727525D01*
X67349500Y-31727525D01*
X67349500Y-31872475D01*
X67375494Y-31969485D01*
X67387017Y-32012488D01*
X67459488Y-32138011D01*
X67459490Y-32138013D01*
X67459491Y-32138015D01*
X67561985Y-32240509D01*
X67561986Y-32240510D01*
X67561988Y-32240511D01*
X67687511Y-32312982D01*
X67687512Y-32312982D01*
X67687515Y-32312984D01*
X67827525Y-32350500D01*
X67827528Y-32350500D01*
X67972472Y-32350500D01*
X67972475Y-32350500D01*
X68112485Y-32312984D01*
X68238015Y-32240509D01*
X68340509Y-32138015D01*
X68412984Y-32012485D01*
X68450500Y-31872475D01*
X68450500Y-31727525D01*
X68412984Y-31587515D01*
X68345127Y-31469984D01*
X68340511Y-31461988D01*
X68340506Y-31461982D01*
X68238017Y-31359493D01*
X68238011Y-31359488D01*
X68112488Y-31287017D01*
X68112489Y-31287017D01*
X68101006Y-31283940D01*
X67972475Y-31249500D01*
X67827525Y-31249500D01*
X67698993Y-31283940D01*
X67687511Y-31287017D01*
X67561988Y-31359488D01*
X67561982Y-31359493D01*
X67459493Y-31461982D01*
X67459488Y-31461988D01*
X67387017Y-31587511D01*
X67387016Y-31587515D01*
X67349500Y-31727525D01*
X39613799Y-31727525D01*
X39602767Y-31716493D01*
X39602761Y-31716488D01*
X39477238Y-31644017D01*
X39477239Y-31644017D01*
X39465756Y-31640940D01*
X39337225Y-31606500D01*
X39192275Y-31606500D01*
X39063743Y-31640940D01*
X39052261Y-31644017D01*
X38926738Y-31716488D01*
X38926732Y-31716493D01*
X38824243Y-31818982D01*
X38824238Y-31818988D01*
X38751767Y-31944511D01*
X38751766Y-31944515D01*
X38714250Y-32084525D01*
X38215250Y-32084525D01*
X38177734Y-31944515D01*
X38111315Y-31829475D01*
X38105261Y-31818988D01*
X38105256Y-31818982D01*
X38002767Y-31716493D01*
X38002761Y-31716488D01*
X37877238Y-31644017D01*
X37877239Y-31644017D01*
X37865756Y-31640940D01*
X37737225Y-31606500D01*
X37592275Y-31606500D01*
X37463743Y-31640940D01*
X37452261Y-31644017D01*
X37326738Y-31716488D01*
X37326732Y-31716493D01*
X37224243Y-31818982D01*
X37224238Y-31818988D01*
X37151767Y-31944511D01*
X37151766Y-31944515D01*
X37114250Y-32084525D01*
X34811315Y-32084525D01*
X34877734Y-31969485D01*
X34915250Y-31829475D01*
X34915250Y-31684525D01*
X34877734Y-31544515D01*
X34856363Y-31507500D01*
X34805261Y-31418988D01*
X34805256Y-31418982D01*
X34702767Y-31316493D01*
X34702761Y-31316488D01*
X34577238Y-31244017D01*
X34577239Y-31244017D01*
X34565756Y-31240940D01*
X34437225Y-31206500D01*
X34292275Y-31206500D01*
X34163743Y-31240940D01*
X34152261Y-31244017D01*
X34026738Y-31316488D01*
X34026732Y-31316493D01*
X33924243Y-31418982D01*
X33924238Y-31418988D01*
X33851767Y-31544511D01*
X33851766Y-31544515D01*
X33814250Y-31684525D01*
X30194699Y-31684525D01*
X30194699Y-30884525D01*
X42914250Y-30884525D01*
X42914250Y-31029475D01*
X42951766Y-31169485D01*
X42951767Y-31169488D01*
X43024238Y-31295011D01*
X43024240Y-31295013D01*
X43024241Y-31295015D01*
X43126735Y-31397509D01*
X43126736Y-31397510D01*
X43126738Y-31397511D01*
X43252261Y-31469982D01*
X43252262Y-31469982D01*
X43252265Y-31469984D01*
X43392275Y-31507500D01*
X43392278Y-31507500D01*
X43537222Y-31507500D01*
X43537225Y-31507500D01*
X43677235Y-31469984D01*
X43802765Y-31397509D01*
X43905259Y-31295015D01*
X43977734Y-31169485D01*
X44015250Y-31029475D01*
X44015250Y-30884525D01*
X43977734Y-30744515D01*
X43905259Y-30618985D01*
X43802765Y-30516491D01*
X43802763Y-30516490D01*
X43802761Y-30516488D01*
X43677238Y-30444017D01*
X43677239Y-30444017D01*
X43665756Y-30440940D01*
X43537225Y-30406500D01*
X43392275Y-30406500D01*
X43263743Y-30440940D01*
X43252261Y-30444017D01*
X43126738Y-30516488D01*
X43126732Y-30516493D01*
X43024243Y-30618982D01*
X43024238Y-30618988D01*
X42951767Y-30744511D01*
X42951766Y-30744515D01*
X42914250Y-30884525D01*
X30194699Y-30884525D01*
X30194699Y-29984525D01*
X47814250Y-29984525D01*
X47814250Y-30129475D01*
X47851766Y-30269485D01*
X47851767Y-30269488D01*
X47924238Y-30395011D01*
X47924240Y-30395013D01*
X47924241Y-30395015D01*
X48026735Y-30497509D01*
X48026736Y-30497510D01*
X48026738Y-30497511D01*
X48152261Y-30569982D01*
X48152262Y-30569982D01*
X48152265Y-30569984D01*
X48292275Y-30607500D01*
X48292278Y-30607500D01*
X48437222Y-30607500D01*
X48437225Y-30607500D01*
X48577235Y-30569984D01*
X48702765Y-30497509D01*
X48805259Y-30395015D01*
X48877734Y-30269485D01*
X48915250Y-30129475D01*
X48915250Y-29984525D01*
X48877734Y-29844515D01*
X48805259Y-29718985D01*
X48702765Y-29616491D01*
X48702763Y-29616490D01*
X48702761Y-29616488D01*
X48577238Y-29544017D01*
X48577239Y-29544017D01*
X48565756Y-29540940D01*
X48437225Y-29506500D01*
X48292275Y-29506500D01*
X48163743Y-29540940D01*
X48152261Y-29544017D01*
X48026738Y-29616488D01*
X48026732Y-29616493D01*
X47924243Y-29718982D01*
X47924238Y-29718988D01*
X47851767Y-29844511D01*
X47851766Y-29844515D01*
X47814250Y-29984525D01*
X30194699Y-29984525D01*
X30194699Y-28527525D01*
X48449500Y-28527525D01*
X48449500Y-28672475D01*
X48487016Y-28812485D01*
X48487017Y-28812488D01*
X48559488Y-28938011D01*
X48559490Y-28938013D01*
X48559491Y-28938015D01*
X48661985Y-29040509D01*
X48661986Y-29040510D01*
X48661988Y-29040511D01*
X48787511Y-29112982D01*
X48787512Y-29112982D01*
X48787515Y-29112984D01*
X48927525Y-29150500D01*
X48927528Y-29150500D01*
X49072472Y-29150500D01*
X49072475Y-29150500D01*
X49212485Y-29112984D01*
X49338015Y-29040509D01*
X49440509Y-28938015D01*
X49512984Y-28812485D01*
X49550500Y-28672475D01*
X49550500Y-28527525D01*
X49512984Y-28387515D01*
X49440509Y-28261985D01*
X49338015Y-28159491D01*
X49338013Y-28159490D01*
X49338011Y-28159488D01*
X49212488Y-28087017D01*
X49212489Y-28087017D01*
X49201006Y-28083940D01*
X49072475Y-28049500D01*
X48927525Y-28049500D01*
X48798993Y-28083940D01*
X48787511Y-28087017D01*
X48661988Y-28159488D01*
X48661982Y-28159493D01*
X48559493Y-28261982D01*
X48559488Y-28261988D01*
X48487017Y-28387511D01*
X48487016Y-28387515D01*
X48449500Y-28527525D01*
X30194699Y-28527525D01*
X30194699Y-26025321D01*
X56824500Y-26025321D01*
X56824500Y-27774678D01*
X56839032Y-27847735D01*
X56839033Y-27847739D01*
X56857405Y-27875235D01*
X56894399Y-27930601D01*
X56977260Y-27985966D01*
X56977264Y-27985967D01*
X57050321Y-28000499D01*
X57050324Y-28000500D01*
X57050326Y-28000500D01*
X58799676Y-28000500D01*
X58799677Y-28000499D01*
X58872740Y-27985966D01*
X58955601Y-27930601D01*
X59010966Y-27847740D01*
X59025500Y-27774674D01*
X59025500Y-26813389D01*
X59364500Y-26813389D01*
X59364500Y-26986610D01*
X59389796Y-27146327D01*
X59391598Y-27157701D01*
X59445127Y-27322445D01*
X59523768Y-27476788D01*
X59625586Y-27616928D01*
X59748072Y-27739414D01*
X59888212Y-27841232D01*
X60042555Y-27919873D01*
X60207299Y-27973402D01*
X60378389Y-28000500D01*
X60378390Y-28000500D01*
X60551610Y-28000500D01*
X60551611Y-28000500D01*
X60722701Y-27973402D01*
X60887445Y-27919873D01*
X61041788Y-27841232D01*
X61181928Y-27739414D01*
X61304414Y-27616928D01*
X61406232Y-27476788D01*
X61484873Y-27322445D01*
X61538402Y-27157701D01*
X61565500Y-26986611D01*
X61565500Y-26813389D01*
X61549662Y-26713389D01*
X64979500Y-26713389D01*
X64979500Y-26886610D01*
X64999380Y-27012132D01*
X65006598Y-27057701D01*
X65060127Y-27222445D01*
X65138768Y-27376788D01*
X65240586Y-27516928D01*
X65363072Y-27639414D01*
X65503212Y-27741232D01*
X65657555Y-27819873D01*
X65822299Y-27873402D01*
X65993389Y-27900500D01*
X65993390Y-27900500D01*
X66166610Y-27900500D01*
X66166611Y-27900500D01*
X66337701Y-27873402D01*
X66502445Y-27819873D01*
X66656788Y-27741232D01*
X66796928Y-27639414D01*
X66919414Y-27516928D01*
X67021232Y-27376788D01*
X67099873Y-27222445D01*
X67100896Y-27219294D01*
X67101610Y-27218250D01*
X67101734Y-27217952D01*
X67101796Y-27217977D01*
X67140327Y-27161618D01*
X67204683Y-27134415D01*
X67273530Y-27146323D01*
X67325011Y-27193562D01*
X67336760Y-27219287D01*
X67368904Y-27318217D01*
X67465377Y-27507554D01*
X67564240Y-27643626D01*
X67564241Y-27643627D01*
X68176329Y-27031538D01*
X68219901Y-27107007D01*
X68312993Y-27200099D01*
X68388460Y-27243670D01*
X67776371Y-27855758D01*
X67912445Y-27954622D01*
X68101782Y-28051095D01*
X68303870Y-28116757D01*
X68513754Y-28150000D01*
X68726246Y-28150000D01*
X68936127Y-28116757D01*
X68936130Y-28116757D01*
X69138217Y-28051095D01*
X69327546Y-27954626D01*
X69327552Y-27954622D01*
X69463626Y-27855758D01*
X69463627Y-27855758D01*
X68851538Y-27243670D01*
X68927007Y-27200099D01*
X69020099Y-27107007D01*
X69063670Y-27031539D01*
X69675758Y-27643627D01*
X69675758Y-27643626D01*
X69774622Y-27507552D01*
X69774626Y-27507546D01*
X69871096Y-27318215D01*
X69903239Y-27219288D01*
X69942676Y-27161612D01*
X70007034Y-27134413D01*
X70075880Y-27146327D01*
X70127357Y-27193571D01*
X70139100Y-27219284D01*
X70140127Y-27222446D01*
X70162281Y-27265925D01*
X70218768Y-27376788D01*
X70320586Y-27516928D01*
X70443072Y-27639414D01*
X70583212Y-27741232D01*
X70737555Y-27819873D01*
X70902299Y-27873402D01*
X71073389Y-27900500D01*
X71073390Y-27900500D01*
X71246610Y-27900500D01*
X71246611Y-27900500D01*
X71417701Y-27873402D01*
X71582445Y-27819873D01*
X71736788Y-27741232D01*
X71876928Y-27639414D01*
X71999414Y-27516928D01*
X72101232Y-27376788D01*
X72179873Y-27222445D01*
X72233402Y-27057701D01*
X72260500Y-26886611D01*
X72260500Y-26713389D01*
X72599500Y-26713389D01*
X72599500Y-26886610D01*
X72619380Y-27012132D01*
X72626598Y-27057701D01*
X72680127Y-27222445D01*
X72758768Y-27376788D01*
X72860586Y-27516928D01*
X72983072Y-27639414D01*
X73123212Y-27741232D01*
X73277555Y-27819873D01*
X73442299Y-27873402D01*
X73613389Y-27900500D01*
X73613390Y-27900500D01*
X73786610Y-27900500D01*
X73786611Y-27900500D01*
X73957701Y-27873402D01*
X74122445Y-27819873D01*
X74276788Y-27741232D01*
X74416928Y-27639414D01*
X74539414Y-27516928D01*
X74641232Y-27376788D01*
X74719873Y-27222445D01*
X74773402Y-27057701D01*
X74800500Y-26886611D01*
X74800500Y-26713389D01*
X74773402Y-26542299D01*
X74719873Y-26377555D01*
X74641232Y-26223212D01*
X74539414Y-26083072D01*
X74416928Y-25960586D01*
X74368390Y-25925321D01*
X75139500Y-25925321D01*
X75139500Y-27674678D01*
X75154032Y-27747735D01*
X75154033Y-27747739D01*
X75154034Y-27747740D01*
X75209399Y-27830601D01*
X75292260Y-27885966D01*
X75292264Y-27885967D01*
X75365321Y-27900499D01*
X75365324Y-27900500D01*
X75365326Y-27900500D01*
X77114676Y-27900500D01*
X77114677Y-27900499D01*
X77187740Y-27885966D01*
X77270601Y-27830601D01*
X77325966Y-27747740D01*
X77340500Y-27674674D01*
X77340500Y-25925326D01*
X77340500Y-25925323D01*
X77340499Y-25925321D01*
X77325967Y-25852264D01*
X77325966Y-25852260D01*
X77308819Y-25826597D01*
X77270601Y-25769399D01*
X77187740Y-25714034D01*
X77187739Y-25714033D01*
X77187735Y-25714032D01*
X77114677Y-25699500D01*
X77114674Y-25699500D01*
X75365326Y-25699500D01*
X75365323Y-25699500D01*
X75292264Y-25714032D01*
X75292260Y-25714033D01*
X75209399Y-25769399D01*
X75154033Y-25852260D01*
X75154032Y-25852264D01*
X75139500Y-25925321D01*
X74368390Y-25925321D01*
X74276788Y-25858768D01*
X74122445Y-25780127D01*
X73957701Y-25726598D01*
X73957699Y-25726597D01*
X73957698Y-25726597D01*
X73826271Y-25705781D01*
X73786611Y-25699500D01*
X73613389Y-25699500D01*
X73573728Y-25705781D01*
X73442302Y-25726597D01*
X73277552Y-25780128D01*
X73123211Y-25858768D01*
X73043256Y-25916859D01*
X72983072Y-25960586D01*
X72983070Y-25960588D01*
X72983069Y-25960588D01*
X72860588Y-26083069D01*
X72860588Y-26083070D01*
X72860586Y-26083072D01*
X72816859Y-26143256D01*
X72758768Y-26223211D01*
X72680128Y-26377552D01*
X72626597Y-26542302D01*
X72599500Y-26713389D01*
X72260500Y-26713389D01*
X72233402Y-26542299D01*
X72179873Y-26377555D01*
X72101232Y-26223212D01*
X71999414Y-26083072D01*
X71876928Y-25960586D01*
X71736788Y-25858768D01*
X71582445Y-25780127D01*
X71417701Y-25726598D01*
X71417699Y-25726597D01*
X71417698Y-25726597D01*
X71286271Y-25705781D01*
X71246611Y-25699500D01*
X71073389Y-25699500D01*
X71033728Y-25705781D01*
X70902302Y-25726597D01*
X70737552Y-25780128D01*
X70583211Y-25858768D01*
X70503256Y-25916859D01*
X70443072Y-25960586D01*
X70443070Y-25960588D01*
X70443069Y-25960588D01*
X70320588Y-26083069D01*
X70320588Y-26083070D01*
X70320586Y-26083072D01*
X70276859Y-26143256D01*
X70218768Y-26223211D01*
X70140128Y-26377550D01*
X70139487Y-26379522D01*
X70139102Y-26380712D01*
X70139099Y-26380720D01*
X70138381Y-26381769D01*
X70138266Y-26382048D01*
X70138207Y-26382023D01*
X70099657Y-26438393D01*
X70035297Y-26465587D01*
X69966451Y-26453668D01*
X69914979Y-26406420D01*
X69903239Y-26380711D01*
X69871096Y-26281784D01*
X69774622Y-26092445D01*
X69675758Y-25956372D01*
X69675758Y-25956371D01*
X69063670Y-26568460D01*
X69020099Y-26492993D01*
X68927007Y-26399901D01*
X68851539Y-26356329D01*
X69463627Y-25744241D01*
X69463626Y-25744240D01*
X69327554Y-25645377D01*
X69138217Y-25548904D01*
X68936129Y-25483242D01*
X68726246Y-25450000D01*
X68513754Y-25450000D01*
X68303872Y-25483242D01*
X68303869Y-25483242D01*
X68101782Y-25548904D01*
X67912442Y-25645379D01*
X67776372Y-25744239D01*
X67776371Y-25744240D01*
X68388461Y-26356329D01*
X68312993Y-26399901D01*
X68219901Y-26492993D01*
X68176329Y-26568460D01*
X67564240Y-25956371D01*
X67564239Y-25956372D01*
X67465379Y-26092442D01*
X67368904Y-26281783D01*
X67336760Y-26380712D01*
X67297322Y-26438388D01*
X67232964Y-26465586D01*
X67164117Y-26453671D01*
X67112642Y-26406427D01*
X67100898Y-26380711D01*
X67099873Y-26377555D01*
X67021232Y-26223212D01*
X66919414Y-26083072D01*
X66796928Y-25960586D01*
X66656788Y-25858768D01*
X66502445Y-25780127D01*
X66337701Y-25726598D01*
X66337699Y-25726597D01*
X66337698Y-25726597D01*
X66206271Y-25705781D01*
X66166611Y-25699500D01*
X65993389Y-25699500D01*
X65953728Y-25705781D01*
X65822302Y-25726597D01*
X65657552Y-25780128D01*
X65503211Y-25858768D01*
X65423256Y-25916859D01*
X65363072Y-25960586D01*
X65363070Y-25960588D01*
X65363069Y-25960588D01*
X65240588Y-26083069D01*
X65240588Y-26083070D01*
X65240586Y-26083072D01*
X65196859Y-26143256D01*
X65138768Y-26223211D01*
X65060128Y-26377552D01*
X65006597Y-26542302D01*
X64979500Y-26713389D01*
X61549662Y-26713389D01*
X61538402Y-26642299D01*
X61484873Y-26477555D01*
X61406232Y-26323212D01*
X61304414Y-26183072D01*
X61181928Y-26060586D01*
X61041788Y-25958768D01*
X60887445Y-25880127D01*
X60722701Y-25826598D01*
X60722699Y-25826597D01*
X60722698Y-25826597D01*
X60591271Y-25805781D01*
X60551611Y-25799500D01*
X60378389Y-25799500D01*
X60338728Y-25805781D01*
X60207302Y-25826597D01*
X60042552Y-25880128D01*
X59888211Y-25958768D01*
X59808256Y-26016859D01*
X59748072Y-26060586D01*
X59748070Y-26060588D01*
X59748069Y-26060588D01*
X59625588Y-26183069D01*
X59625588Y-26183070D01*
X59625586Y-26183072D01*
X59581859Y-26243256D01*
X59523768Y-26323211D01*
X59445128Y-26477552D01*
X59391597Y-26642302D01*
X59364500Y-26813389D01*
X59025500Y-26813389D01*
X59025500Y-26025326D01*
X59025500Y-26025323D01*
X59025499Y-26025321D01*
X59010967Y-25952264D01*
X59010966Y-25952260D01*
X58955601Y-25869399D01*
X58872740Y-25814034D01*
X58872739Y-25814033D01*
X58872735Y-25814032D01*
X58799677Y-25799500D01*
X58799674Y-25799500D01*
X57050326Y-25799500D01*
X57050323Y-25799500D01*
X56977264Y-25814032D01*
X56977260Y-25814033D01*
X56894399Y-25869399D01*
X56839033Y-25952260D01*
X56839032Y-25952264D01*
X56824500Y-26025321D01*
X30194699Y-26025321D01*
X30194699Y-23948999D01*
X30214384Y-23881960D01*
X30267188Y-23836205D01*
X30318699Y-23824999D01*
X79069699Y-23824999D01*
X79136738Y-23844684D01*
G37*
%TD.AperFunction*%
%TD*%
M02*
