%TF.GenerationSoftware,KiCad,Pcbnew,10.0.6*%
%TF.CreationDate,2026-10-09T19:07:00+07:00*%
%TF.ProjectId,field_device,6669656c-645f-4646-9576-6963652e6b69,rev?*%
%TF.SameCoordinates,Original*%
%TF.FileFunction,Copper,L4,Bot*%
%TF.FilePolarity,Positive*%
%FSLAX46Y46*%
G04 Gerber Fmt 4.6, Leading zero omitted, Abs format (unit mm)*
G04 Created by KiCad (PCBNEW 10.0.6) date 2026-10-09 19:07:00*
%MOMM*%
%LPD*%
G01*
G04 APERTURE LIST*
%TA.AperFunction,ComponentPad*%
%ADD10R,1.700000X1.700000*%
%TD*%
%TA.AperFunction,ComponentPad*%
%ADD11C,1.700000*%
%TD*%
%TA.AperFunction,HeatsinkPad*%
%ADD12C,0.500000*%
%TD*%
%TA.AperFunction,HeatsinkPad*%
%ADD13R,1.200000X2.000000*%
%TD*%
%TA.AperFunction,ViaPad*%
%ADD14C,0.600000*%
%TD*%
%TA.AperFunction,Conductor*%
%ADD15C,0.300000*%
%TD*%
%TA.AperFunction,Conductor*%
%ADD16C,0.200000*%
%TD*%
G04 APERTURE END LIST*
D10*
%TO.P,J1,1,Pin_1_1*%
%TO.N,/MCU/SWDIO*%
X76240000Y-26800000D03*
D11*
%TO.P,J1,2,Pin_2_2*%
%TO.N,/MCU/SWDCLK*%
X73700000Y-26800000D03*
%TO.P,J1,3,Pin_3_3*%
%TO.N,GND*%
X71160000Y-26800000D03*
%TO.P,J1,4,Pin_4_4*%
%TO.N,+3.3V*%
X68620000Y-26800000D03*
%TO.P,J1,5,Pin_5_5*%
%TO.N,/MCU/NRST*%
X66080000Y-26800000D03*
%TD*%
D12*
%TO.P,U5,11,GND_11*%
%TO.N,GND*%
X38082752Y-39000001D03*
X38082752Y-39750001D03*
X38082752Y-40500001D03*
D13*
X38432751Y-39750001D03*
D12*
X38782750Y-39000001D03*
X38782750Y-39750001D03*
X38782750Y-40500001D03*
%TD*%
D10*
%TO.P,J2,1,Pin_1_1*%
%TO.N,/MCU/LOG_MCU_TX_DEBUGGER_RX*%
X57925000Y-26900000D03*
D11*
%TO.P,J2,2,Pin_2_2*%
%TO.N,/MCU/LOG_MCU_RX_DEBUGGER_TX*%
X60465000Y-26900000D03*
%TD*%
D14*
%TO.N,GND*%
X64076250Y-36060000D03*
X73500000Y-50900000D03*
X72494199Y-56437500D03*
X72494199Y-57537500D03*
%TO.N,+3.3V*%
X39800000Y-43200000D03*
X74000000Y-48800000D03*
X57036250Y-42335000D03*
X66339549Y-41460001D03*
X38600000Y-43200000D03*
X58476250Y-35660000D03*
%TO.N,GND*%
X75757501Y-47984999D03*
X69339549Y-45560000D03*
X76294199Y-58500000D03*
X37664750Y-32157000D03*
X55300000Y-38100000D03*
X53022500Y-49375000D03*
X67639549Y-46360000D03*
X78376250Y-38060000D03*
X70339549Y-41360000D03*
X78057501Y-42584999D03*
X55700000Y-50800000D03*
X49022500Y-45475000D03*
X49000000Y-28600000D03*
X39264750Y-32157000D03*
X39264750Y-34757000D03*
X68539549Y-47260000D03*
X69339549Y-47260000D03*
X37664750Y-34757000D03*
X67639549Y-47260000D03*
X67639549Y-45560000D03*
X68458299Y-46360000D03*
X70339550Y-42060000D03*
X69339549Y-46360000D03*
X68439549Y-45560000D03*
X49022500Y-50975000D03*
X36568001Y-37843001D03*
X38438581Y-33454954D03*
X54736250Y-42235000D03*
X75094199Y-58500000D03*
X74200000Y-47060000D03*
%TO.N,/power_source/done*%
X34364750Y-31757000D03*
X48364750Y-30057000D03*
%TO.N,/MCU/SCL_bus*%
X67900000Y-31800000D03*
X51922500Y-45575000D03*
%TO.N,/MCU/SDA_bus*%
X53121778Y-47175722D03*
X59276250Y-33860000D03*
%TO.N,/MCU/RF_SCK*%
X72276250Y-39460000D03*
X65576250Y-49760000D03*
%TO.N,/power_source/chrg*%
X43464750Y-30957000D03*
X34364750Y-33657000D03*
%TO.N,/MCU/I2C_BUS_PWR*%
X65000000Y-37900000D03*
X62076250Y-32660000D03*
X66076250Y-32860000D03*
%TO.N,/MCU/RF_NSS*%
X70500000Y-39800000D03*
X66700000Y-49700000D03*
%TO.N,/MCU/MCU_MISO*%
X66576250Y-38560000D03*
X62476250Y-46860000D03*
%TO.N,/MCU/RF_MOSI*%
X64576250Y-49760000D03*
X73576250Y-38060000D03*
%TO.N,+3.3V*%
X48622500Y-48275000D03*
%TD*%
%TO.N,/power_source/done*%
D15*
X48364750Y-30057000D02*
X36064750Y-30057000D01*
X36064750Y-30057000D02*
X34364750Y-31757000D01*
%TO.N,/MCU/SCL_bus*%
X55500000Y-31800000D02*
X51900000Y-35400000D01*
X67900000Y-31800000D02*
X55500000Y-31800000D01*
X51900000Y-35400000D02*
X51922500Y-35422500D01*
X51922500Y-35422500D02*
X51922500Y-45575000D01*
%TO.N,/MCU/SDA_bus*%
X53121778Y-47175722D02*
X53121778Y-35978222D01*
X55240000Y-33860000D02*
X59276250Y-33860000D01*
X59276250Y-33860000D02*
X59278750Y-33857500D01*
X53121778Y-35978222D02*
X55240000Y-33860000D01*
%TO.N,/MCU/RF_SCK*%
D16*
X66076250Y-50960000D02*
X65576250Y-50460000D01*
X72276250Y-39460000D02*
X72276250Y-46460000D01*
X72276250Y-46460000D02*
X67776250Y-50960000D01*
X65576250Y-50460000D02*
X65576250Y-49760000D01*
X67776250Y-50960000D02*
X66076250Y-50960000D01*
%TO.N,/power_source/chrg*%
D15*
X37064750Y-30957000D02*
X34364750Y-33657000D01*
X43464750Y-30957000D02*
X37064750Y-30957000D01*
%TO.N,/MCU/I2C_BUS_PWR*%
X65000000Y-37900000D02*
X66076250Y-36823750D01*
X63976250Y-32660000D02*
X62076250Y-32660000D01*
X66076250Y-34760000D02*
X66076250Y-32860000D01*
X66076250Y-36823750D02*
X66076250Y-34760000D01*
X66076250Y-34760000D02*
X63976250Y-32660000D01*
%TO.N,/MCU/RF_NSS*%
D16*
X66700000Y-50100000D02*
X66900000Y-50300000D01*
X70500000Y-39800000D02*
X70600000Y-39800000D01*
X70600000Y-39800000D02*
X71200000Y-40400000D01*
X66700000Y-49700000D02*
X66700000Y-50100000D01*
X71200000Y-46600000D02*
X71200000Y-40400000D01*
X67500000Y-50300000D02*
X71200000Y-46600000D01*
X66900000Y-50300000D02*
X67500000Y-50300000D01*
%TO.N,/MCU/RF_MOSI*%
X65576250Y-51860000D02*
X64576250Y-50860000D01*
X73576250Y-38060000D02*
X73576250Y-46560000D01*
X73576250Y-46560000D02*
X68276250Y-51860000D01*
X64576250Y-50860000D02*
X64576250Y-49760000D01*
X68276250Y-51860000D02*
X65576250Y-51860000D01*
%TO.N,/MCU/MCU_MISO*%
X61676250Y-38560000D02*
X66576250Y-38560000D01*
X60576250Y-39660000D02*
X61676250Y-38560000D01*
X60576250Y-39660000D02*
X60576250Y-46160000D01*
X61276250Y-46860000D02*
X60576250Y-46160000D01*
X62476250Y-46860000D02*
X61276250Y-46860000D01*
%TD*%
M02*
