%TF.GenerationSoftware,KiCad,Pcbnew,10.0.6*%
%TF.CreationDate,2026-10-09T19:07:00+07:00*%
%TF.ProjectId,field_device,6669656c-645f-4646-9576-6963652e6b69,rev?*%
%TF.SameCoordinates,Original*%
%TF.FileFunction,Copper,L1,Top*%
%TF.FilePolarity,Positive*%
%FSLAX46Y46*%
G04 Gerber Fmt 4.6, Leading zero omitted, Abs format (unit mm)*
G04 Created by KiCad (PCBNEW 10.0.6) date 2026-10-09 19:07:00*
%MOMM*%
%LPD*%
G01*
G04 APERTURE LIST*
G04 Aperture macros list*
%AMRoundRect*
0 Rectangle with rounded corners*
0 $1 Rounding radius*
0 $2 $3 $4 $5 $6 $7 $8 $9 X,Y pos of 4 corners*
0 Add a 4 corners polygon primitive as box body*
4,1,4,$2,$3,$4,$5,$6,$7,$8,$9,$2,$3,0*
0 Add four circle primitives for the rounded corners*
1,1,$1+$1,$2,$3*
1,1,$1+$1,$4,$5*
1,1,$1+$1,$6,$7*
1,1,$1+$1,$8,$9*
0 Add four rect primitives between the rounded corners*
20,1,$1+$1,$2,$3,$4,$5,0*
20,1,$1+$1,$4,$5,$6,$7,0*
20,1,$1+$1,$6,$7,$8,$9,0*
20,1,$1+$1,$8,$9,$2,$3,0*%
G04 Aperture macros list end*
%TA.AperFunction,Conductor*%
%ADD10C,0.000000*%
%TD*%
%TA.AperFunction,SMDPad,CuDef*%
%ADD11RoundRect,0.160000X-0.160000X0.197500X-0.160000X-0.197500X0.160000X-0.197500X0.160000X0.197500X0*%
%TD*%
%TA.AperFunction,SMDPad,CuDef*%
%ADD12RoundRect,0.155000X-0.212500X-0.155000X0.212500X-0.155000X0.212500X0.155000X-0.212500X0.155000X0*%
%TD*%
%TA.AperFunction,SMDPad,CuDef*%
%ADD13RoundRect,0.225000X-0.225000X-0.250000X0.225000X-0.250000X0.225000X0.250000X-0.225000X0.250000X0*%
%TD*%
%TA.AperFunction,SMDPad,CuDef*%
%ADD14RoundRect,0.237500X0.237500X-0.300000X0.237500X0.300000X-0.237500X0.300000X-0.237500X-0.300000X0*%
%TD*%
%TA.AperFunction,SMDPad,CuDef*%
%ADD15RoundRect,0.160000X0.197500X0.160000X-0.197500X0.160000X-0.197500X-0.160000X0.197500X-0.160000X0*%
%TD*%
%TA.AperFunction,ComponentPad*%
%ADD16R,1.700000X1.700000*%
%TD*%
%TA.AperFunction,ComponentPad*%
%ADD17C,1.700000*%
%TD*%
%TA.AperFunction,SMDPad,CuDef*%
%ADD18RoundRect,0.237500X-0.237500X0.287500X-0.237500X-0.287500X0.237500X-0.287500X0.237500X0.287500X0*%
%TD*%
%TA.AperFunction,SMDPad,CuDef*%
%ADD19RoundRect,0.200000X0.200000X0.275000X-0.200000X0.275000X-0.200000X-0.275000X0.200000X-0.275000X0*%
%TD*%
%TA.AperFunction,SMDPad,CuDef*%
%ADD20RoundRect,0.250000X0.275000X0.350000X-0.275000X0.350000X-0.275000X-0.350000X0.275000X-0.350000X0*%
%TD*%
%TA.AperFunction,SMDPad,CuDef*%
%ADD21C,2.540000*%
%TD*%
%TA.AperFunction,SMDPad,CuDef*%
%ADD22R,3.500000X1.600000*%
%TD*%
%TA.AperFunction,SMDPad,CuDef*%
%ADD23RoundRect,0.062500X-0.350000X-0.062500X0.350000X-0.062500X0.350000X0.062500X-0.350000X0.062500X0*%
%TD*%
%TA.AperFunction,HeatsinkPad*%
%ADD24C,0.500000*%
%TD*%
%TA.AperFunction,HeatsinkPad*%
%ADD25R,1.200000X2.000000*%
%TD*%
%TA.AperFunction,SMDPad,CuDef*%
%ADD26R,0.600000X1.500000*%
%TD*%
%TA.AperFunction,SMDPad,CuDef*%
%ADD27RoundRect,0.160000X-0.197500X-0.160000X0.197500X-0.160000X0.197500X0.160000X-0.197500X0.160000X0*%
%TD*%
%TA.AperFunction,SMDPad,CuDef*%
%ADD28RoundRect,0.237500X0.300000X0.237500X-0.300000X0.237500X-0.300000X-0.237500X0.300000X-0.237500X0*%
%TD*%
%TA.AperFunction,SMDPad,CuDef*%
%ADD29RoundRect,0.155000X-0.155000X0.212500X-0.155000X-0.212500X0.155000X-0.212500X0.155000X0.212500X0*%
%TD*%
%TA.AperFunction,SMDPad,CuDef*%
%ADD30R,0.600000X0.400000*%
%TD*%
%TA.AperFunction,SMDPad,CuDef*%
%ADD31RoundRect,0.155000X0.212500X0.155000X-0.212500X0.155000X-0.212500X-0.155000X0.212500X-0.155000X0*%
%TD*%
%TA.AperFunction,SMDPad,CuDef*%
%ADD32RoundRect,0.155000X0.155000X-0.212500X0.155000X0.212500X-0.155000X0.212500X-0.155000X-0.212500X0*%
%TD*%
%TA.AperFunction,SMDPad,CuDef*%
%ADD33C,2.554000*%
%TD*%
%TA.AperFunction,SMDPad,CuDef*%
%ADD34RoundRect,0.160000X0.160000X-0.197500X0.160000X0.197500X-0.160000X0.197500X-0.160000X-0.197500X0*%
%TD*%
%TA.AperFunction,SMDPad,CuDef*%
%ADD35RoundRect,0.237500X0.287500X0.237500X-0.287500X0.237500X-0.287500X-0.237500X0.287500X-0.237500X0*%
%TD*%
%TA.AperFunction,SMDPad,CuDef*%
%ADD36RoundRect,0.225000X0.225000X0.250000X-0.225000X0.250000X-0.225000X-0.250000X0.225000X-0.250000X0*%
%TD*%
%TA.AperFunction,SMDPad,CuDef*%
%ADD37RoundRect,0.237500X-0.300000X-0.237500X0.300000X-0.237500X0.300000X0.237500X-0.300000X0.237500X0*%
%TD*%
%TA.AperFunction,SMDPad,CuDef*%
%ADD38RoundRect,0.100000X-0.637500X-0.100000X0.637500X-0.100000X0.637500X0.100000X-0.637500X0.100000X0*%
%TD*%
%TA.AperFunction,SMDPad,CuDef*%
%ADD39R,1.230000X1.860000*%
%TD*%
%TA.AperFunction,SMDPad,CuDef*%
%ADD40RoundRect,0.140000X-0.140000X-0.170000X0.140000X-0.170000X0.140000X0.170000X-0.140000X0.170000X0*%
%TD*%
%TA.AperFunction,SMDPad,CuDef*%
%ADD41RoundRect,0.200000X-0.200000X-0.275000X0.200000X-0.275000X0.200000X0.275000X-0.200000X0.275000X0*%
%TD*%
%TA.AperFunction,SMDPad,CuDef*%
%ADD42R,0.665000X0.280000*%
%TD*%
%TA.AperFunction,SMDPad,CuDef*%
%ADD43R,0.280000X0.665000*%
%TD*%
%TA.AperFunction,SMDPad,CuDef*%
%ADD44R,2.550000X2.550000*%
%TD*%
%TA.AperFunction,SMDPad,CuDef*%
%ADD45R,1.200000X0.600000*%
%TD*%
%TA.AperFunction,SMDPad,CuDef*%
%ADD46R,2.400000X3.300000*%
%TD*%
%TA.AperFunction,SMDPad,CuDef*%
%ADD47R,2.000000X1.635000*%
%TD*%
%TA.AperFunction,SMDPad,CuDef*%
%ADD48R,1.000000X1.500000*%
%TD*%
%TA.AperFunction,SMDPad,CuDef*%
%ADD49RoundRect,0.237500X-0.237500X0.300000X-0.237500X-0.300000X0.237500X-0.300000X0.237500X0.300000X0*%
%TD*%
%TA.AperFunction,SMDPad,CuDef*%
%ADD50R,1.200000X1.400000*%
%TD*%
%TA.AperFunction,ViaPad*%
%ADD51C,0.600000*%
%TD*%
%TA.AperFunction,Conductor*%
%ADD52C,0.300000*%
%TD*%
%TA.AperFunction,Conductor*%
%ADD53C,0.500000*%
%TD*%
%TA.AperFunction,Conductor*%
%ADD54C,0.400000*%
%TD*%
%TA.AperFunction,Conductor*%
%ADD55C,0.200000*%
%TD*%
G04 APERTURE END LIST*
D10*
%TA.AperFunction,Conductor*%
%TO.N,/lora_module/RFO*%
G36*
X70270449Y-59350000D02*
G01*
X68270449Y-59350000D01*
X68970449Y-58650000D01*
X69570449Y-58650000D01*
X70270449Y-59350000D01*
G37*
%TD.AperFunction*%
%TA.AperFunction,EtchedComponent*%
%TD*%
%TO.C,AE1*%
G36*
X38270449Y-68300000D02*
G01*
X39270449Y-68300000D01*
X39270449Y-78300000D01*
X38270449Y-78300000D01*
X38270449Y-68300000D01*
G37*
%TD.AperFunction*%
%TA.AperFunction,EtchedComponent*%
%TO.C,AE1*%
G36*
X33270449Y-78300000D02*
G01*
X39270449Y-78300000D01*
X39270449Y-79300000D01*
X33270449Y-79300000D01*
X33270449Y-78300000D01*
G37*
%TD.AperFunction*%
%TA.AperFunction,EtchedComponent*%
G36*
X38270449Y-67300000D02*
G01*
X44270449Y-67300000D01*
X44270449Y-68300000D01*
X38270449Y-68300000D01*
X38270449Y-67300000D01*
G37*
%TD.AperFunction*%
%TA.AperFunction,EtchedComponent*%
G36*
X43270449Y-68300000D02*
G01*
X44270449Y-68300000D01*
X44270449Y-78300000D01*
X43270449Y-78300000D01*
X43270449Y-68300000D01*
G37*
%TD.AperFunction*%
%TA.AperFunction,EtchedComponent*%
G36*
X48270449Y-68300000D02*
G01*
X49270449Y-68300000D01*
X49270449Y-78300000D01*
X48270449Y-78300000D01*
X48270449Y-68300000D01*
G37*
%TD.AperFunction*%
%TA.AperFunction,EtchedComponent*%
G36*
X43270449Y-78300000D02*
G01*
X49270449Y-78300000D01*
X49270449Y-79300000D01*
X43270449Y-79300000D01*
X43270449Y-78300000D01*
G37*
%TD.AperFunction*%
%TA.AperFunction,EtchedComponent*%
G36*
X48270449Y-67300000D02*
G01*
X54270449Y-67300000D01*
X54270449Y-68300000D01*
X48270449Y-68300000D01*
X48270449Y-67300000D01*
G37*
%TD.AperFunction*%
%TA.AperFunction,EtchedComponent*%
G36*
X53270449Y-68300000D02*
G01*
X54270449Y-68300000D01*
X54270449Y-78300000D01*
X53270449Y-78300000D01*
X53270449Y-68300000D01*
G37*
%TD.AperFunction*%
%TA.AperFunction,EtchedComponent*%
G36*
X58270449Y-68300000D02*
G01*
X59270449Y-68300000D01*
X59270449Y-78300000D01*
X58270449Y-78300000D01*
X58270449Y-68300000D01*
G37*
%TD.AperFunction*%
%TA.AperFunction,EtchedComponent*%
G36*
X53270449Y-78300000D02*
G01*
X59270449Y-78300000D01*
X59270449Y-79300000D01*
X53270449Y-79300000D01*
X53270449Y-78300000D01*
G37*
%TD.AperFunction*%
%TA.AperFunction,EtchedComponent*%
G36*
X58270449Y-67300000D02*
G01*
X64270449Y-67300000D01*
X64270449Y-68300000D01*
X58270449Y-68300000D01*
X58270449Y-67300000D01*
G37*
%TD.AperFunction*%
%TA.AperFunction,EtchedComponent*%
G36*
X63270449Y-68300000D02*
G01*
X64270449Y-68300000D01*
X64270449Y-78300000D01*
X63270449Y-78300000D01*
X63270449Y-68300000D01*
G37*
%TD.AperFunction*%
%TA.AperFunction,EtchedComponent*%
G36*
X63270449Y-78300000D02*
G01*
X68270449Y-78300000D01*
X68270449Y-79300000D01*
X63270449Y-79300000D01*
X63270449Y-78300000D01*
G37*
%TD.AperFunction*%
%TA.AperFunction,EtchedComponent*%
G36*
X68270449Y-60935000D02*
G01*
X70270449Y-60935000D01*
X70270449Y-79300000D01*
X68270449Y-79300000D01*
X68270449Y-60935000D01*
G37*
%TD.AperFunction*%
%TA.AperFunction,EtchedComponent*%
G36*
X70270449Y-78300000D02*
G01*
X75270449Y-78300000D01*
X75270449Y-79300000D01*
X70270449Y-79300000D01*
X70270449Y-78300000D01*
G37*
%TD.AperFunction*%
%TA.AperFunction,EtchedComponent*%
G36*
X75270449Y-60800000D02*
G01*
X76270449Y-60800000D01*
X76270449Y-79300000D01*
X75270449Y-79300000D01*
X75270449Y-60800000D01*
G37*
%TD.AperFunction*%
%TD*%
D11*
%TO.P,R15,2*%
%TO.N,/lora_module/RFO*%
X69250000Y-57597500D03*
%TO.P,R15,1*%
X69250000Y-56402500D03*
%TD*%
D12*
%TO.P,C19,2*%
%TO.N,GND*%
X71637948Y-56400000D03*
%TO.P,C19,1*%
%TO.N,/lora_module/RFO*%
X70502948Y-56400000D03*
%TD*%
%TO.P,C20,2*%
%TO.N,GND*%
X71637949Y-57597500D03*
%TO.P,C20,1*%
%TO.N,/lora_module/RFO*%
X70502949Y-57597500D03*
%TD*%
D13*
%TO.P,C16,1*%
%TO.N,/lora_module/VR_PA*%
X70425000Y-50900000D03*
%TO.P,C16,2*%
%TO.N,GND*%
X71975000Y-50900000D03*
%TD*%
D14*
%TO.P,C13,1*%
%TO.N,+3.3V*%
X72708299Y-48797502D03*
%TO.P,C13,2*%
%TO.N,GND*%
X72708299Y-47072500D03*
%TD*%
D15*
%TO.P,R9,1*%
%TO.N,/MCU/LOG_MCU_RX*%
X62695000Y-29600000D03*
%TO.P,R9,2*%
%TO.N,/MCU/LOG_MCU_RX_DEBUGGER_TX*%
X61500000Y-29600000D03*
%TD*%
D16*
%TO.P,J1,1,Pin_1_1*%
%TO.N,/MCU/SWDIO*%
X76240000Y-26800000D03*
D17*
%TO.P,J1,2,Pin_2_2*%
%TO.N,/MCU/SWDCLK*%
X73700000Y-26800000D03*
%TO.P,J1,3,Pin_3_3*%
%TO.N,GND*%
X71160000Y-26800000D03*
%TO.P,J1,4,Pin_4_4*%
%TO.N,+3.3V*%
X68620000Y-26800000D03*
%TO.P,J1,5,Pin_5_5*%
%TO.N,/MCU/NRST*%
X66080000Y-26800000D03*
%TD*%
D18*
%TO.P,D3,1,K_1*%
%TO.N,/power_source/done*%
X49564750Y-31182001D03*
%TO.P,D3,2,A_2*%
%TO.N,Net-(D2-A)*%
X49564750Y-32931999D03*
%TD*%
D19*
%TO.P,R13,1*%
%TO.N,/power_source/regulator/CFG1*%
X35389251Y-39739002D03*
%TO.P,R13,2*%
%TO.N,Net-(R13-Pad2)*%
X33739251Y-39739002D03*
%TD*%
D20*
%TO.P,L2,1,1_1*%
%TO.N,/lora_module/VR_PA*%
X71550000Y-52500000D03*
%TO.P,L2,2,2_2*%
%TO.N,/lora_module/RFO*%
X69250000Y-52500000D03*
%TD*%
D21*
%TO.P,BT1,1,+_1*%
%TO.N,/power_source/regulator/Vin*%
X31864750Y-25757000D03*
%TO.P,BT1,2,-_2*%
%TO.N,GND*%
X36664750Y-25757000D03*
%TD*%
D22*
%TO.P,L1,1,1_1*%
%TO.N,/power_source/regulator/LX2*%
X42568001Y-41318001D03*
%TO.P,L1,2,2_2*%
%TO.N,/power_source/regulator/LX1*%
X42568001Y-38118001D03*
%TD*%
D23*
%TO.P,U5,1,EN_1*%
%TO.N,/power_source/regulator/Vin*%
X37220251Y-38750001D03*
%TO.P,U5,2,SEL_2*%
X37220251Y-39250002D03*
%TO.P,U5,3,CFG1_3*%
%TO.N,/power_source/regulator/CFG1*%
X37220251Y-39750001D03*
%TO.P,U5,4,CFG2_4*%
%TO.N,GND*%
X37220251Y-40250000D03*
%TO.P,U5,5,CFG3_5*%
X37220251Y-40750001D03*
%TO.P,U5,6,VOUT_6*%
%TO.N,+3.3V*%
X39645251Y-40750001D03*
%TO.P,U5,7,LX2_7*%
%TO.N,/power_source/regulator/LX2*%
X39645251Y-40250000D03*
%TO.P,U5,8,GND_8*%
%TO.N,GND*%
X39645251Y-39750001D03*
%TO.P,U5,9,LX1_9*%
%TO.N,/power_source/regulator/LX1*%
X39645251Y-39250002D03*
%TO.P,U5,10,VIN_10*%
%TO.N,/power_source/regulator/Vin*%
X39645251Y-38750001D03*
D24*
%TO.P,U5,11,GND_11*%
%TO.N,GND*%
X38082752Y-39000001D03*
X38082752Y-39750001D03*
X38082752Y-40500001D03*
D25*
X38432751Y-39750001D03*
D24*
X38782750Y-39000001D03*
X38782750Y-39750001D03*
X38782750Y-40500001D03*
%TD*%
D26*
%TO.P,U1,1,NC_1*%
%TO.N,unconnected-(U1-NC-Pad1)*%
X56100000Y-46800000D03*
%TO.P,U1,2,VDD_2*%
%TO.N,/humidity_sensor/VDD*%
X55100000Y-46800000D03*
%TO.P,U1,3,SCL_3*%
%TO.N,/MCU/SCL_bus*%
X54100000Y-46800000D03*
%TO.P,U1,4,SDA_4*%
%TO.N,/MCU/SDA_bus*%
X54100000Y-49200000D03*
%TO.P,U1,5,VSS_5*%
%TO.N,GND*%
X55100000Y-49200000D03*
%TO.P,U1,6,NC_6*%
%TO.N,unconnected-(U1-NC-Pad6)*%
X56100000Y-49200000D03*
%TD*%
D27*
%TO.P,R5,1*%
%TO.N,/MCU/MCU_SCK*%
X69978750Y-38960000D03*
%TO.P,R5,2*%
%TO.N,/MCU/RF_SCK*%
X71173750Y-38960000D03*
%TD*%
D28*
%TO.P,C10,1*%
%TO.N,+3.3V*%
X39364752Y-42155001D03*
%TO.P,C10,2*%
%TO.N,GND*%
X37639750Y-42155001D03*
%TD*%
D29*
%TO.P,C4,1*%
%TO.N,+3.3V*%
X60976250Y-35692500D03*
%TO.P,C4,2*%
%TO.N,GND*%
X60976250Y-36827500D03*
%TD*%
D30*
%TO.P,U3,1,GND_1*%
%TO.N,+3.3V*%
X50622500Y-49035000D03*
%TO.P,U3,2,CSB_2*%
%TO.N,GND*%
X50622500Y-48375000D03*
%TO.P,U3,3,SDA_3*%
%TO.N,+3.3V*%
X50622500Y-47735000D03*
%TO.P,U3,4,SCK_4*%
%TO.N,unconnected-(U3-SCK-Pad4)*%
X50622500Y-47075000D03*
%TO.P,U3,5,SDO_5*%
%TO.N,/MCU/SCL_bus*%
X52062500Y-47075000D03*
%TO.P,U3,6,VDDIO_6*%
%TO.N,/MCU/SDA_bus*%
X52062500Y-47735000D03*
%TO.P,U3,7,GND_7*%
%TO.N,unconnected-(U3-GND-Pad7)*%
X52062500Y-48375000D03*
%TO.P,U3,8,VDD_8*%
%TO.N,GND*%
X52062500Y-49035000D03*
%TD*%
D31*
%TO.P,C2,1*%
%TO.N,/MCU/NRST*%
X57367500Y-38600000D03*
%TO.P,C2,2*%
%TO.N,GND*%
X56232500Y-38600000D03*
%TD*%
D32*
%TO.P,C15,1*%
%TO.N,+3.3V*%
X71308299Y-48502501D03*
%TO.P,C15,2*%
%TO.N,GND*%
X71308299Y-47367501D03*
%TD*%
D12*
%TO.P,C14,1*%
%TO.N,+3.3V*%
X67940799Y-43335001D03*
%TO.P,C14,2*%
%TO.N,GND*%
X69075799Y-43335001D03*
%TD*%
D15*
%TO.P,R8,1*%
%TO.N,/MCU/LOG_MCU_TX*%
X62695000Y-30771172D03*
%TO.P,R8,2*%
%TO.N,/MCU/LOG_MCU_TX_DEBUGGER_RX*%
X61500000Y-30771172D03*
%TD*%
D33*
%TO.P,SC1,1,+_1*%
%TO.N,/power_source/solar_pwr*%
X44714750Y-25757000D03*
D21*
%TO.P,SC1,2,-_2*%
%TO.N,GND*%
X40514750Y-25757000D03*
%TD*%
D11*
%TO.P,R11,1*%
%TO.N,/power_source/ISET*%
X42664750Y-34159500D03*
%TO.P,R11,2*%
%TO.N,GND*%
X42664750Y-35354500D03*
%TD*%
D28*
%TO.P,C1,1*%
%TO.N,+3.3V*%
X56800000Y-43500000D03*
%TO.P,C1,2*%
%TO.N,GND*%
X55075000Y-43500000D03*
%TD*%
D32*
%TO.P,C18,1*%
%TO.N,/lora_module/RFO*%
X69227499Y-55067500D03*
%TO.P,C18,2*%
X69227499Y-53932500D03*
%TD*%
D34*
%TO.P,R12,1*%
%TO.N,/power_source/solar_pwr*%
X45464750Y-35954500D03*
%TO.P,R12,2*%
%TO.N,Net-(D2-A)*%
X45464750Y-34759500D03*
%TD*%
D35*
%TO.P,D1,1,K_1*%
%TO.N,GND*%
X76953749Y-38060000D03*
%TO.P,D1,2,A_2*%
%TO.N,Net-(D1-A)*%
X75203751Y-38060000D03*
%TD*%
D32*
%TO.P,C6,1*%
%TO.N,+3.3V*%
X49567500Y-47692500D03*
%TO.P,C6,2*%
%TO.N,GND*%
X49567500Y-46557500D03*
%TD*%
D36*
%TO.P,R1,1*%
%TO.N,+3.3V*%
X56675000Y-45200000D03*
%TO.P,R1,2*%
%TO.N,/humidity_sensor/VDD*%
X55125000Y-45200000D03*
%TD*%
D18*
%TO.P,D2,1,K_1*%
%TO.N,/power_source/chrg*%
X45464750Y-31157000D03*
%TO.P,D2,2,A_2*%
%TO.N,Net-(D2-A)*%
X45464750Y-32906998D03*
%TD*%
D29*
%TO.P,C5,1*%
%TO.N,+3.3V*%
X49567500Y-48812500D03*
%TO.P,C5,2*%
%TO.N,GND*%
X49567500Y-49947500D03*
%TD*%
D37*
%TO.P,C8,1*%
%TO.N,/power_source/regulator/Vin*%
X35493581Y-30022454D03*
%TO.P,C8,2*%
%TO.N,GND*%
X37218583Y-30022454D03*
%TD*%
D38*
%TO.P,U2,1,PB7_1*%
%TO.N,/MCU/SDA_bus*%
X62613750Y-33935000D03*
%TO.P,U2,2,PC14_2*%
%TO.N,unconnected-(U2-PC14-Pad2)*%
X62613750Y-34585000D03*
%TO.P,U2,3,PC15_3*%
%TO.N,unconnected-(U2-PC15-Pad3)*%
X62613750Y-35235000D03*
%TO.P,U2,4,VDD_4*%
%TO.N,+3.3V*%
X62613750Y-35885000D03*
%TO.P,U2,5,VSS_5*%
%TO.N,GND*%
X62613750Y-36535000D03*
%TO.P,U2,6,PF2_6*%
%TO.N,/MCU/NRST*%
X62613750Y-37185000D03*
%TO.P,U2,7,PA0_7*%
%TO.N,/MCU/I2C_BUS_PWR*%
X62613750Y-37835000D03*
%TO.P,U2,8,PA1_8*%
%TO.N,/MCU/RF_DIO1*%
X62613750Y-38485000D03*
%TO.P,U2,9,PA2_9*%
%TO.N,/MCU/RF_NRST*%
X62613750Y-39135000D03*
%TO.P,U2,10,PA3_10*%
%TO.N,/MCU/RF_BUSY*%
X62613750Y-39785000D03*
%TO.P,U2,11,PA4_11*%
%TO.N,/MCU/RF_NSS*%
X68338750Y-39785000D03*
%TO.P,U2,12,PA5_12*%
%TO.N,/MCU/MCU_SCK*%
X68338750Y-39135000D03*
%TO.P,U2,13,PA6_13*%
%TO.N,/MCU/MCU_MISO*%
X68338750Y-38485000D03*
%TO.P,U2,14,PA7_14*%
%TO.N,/MCU/MCU_MOSI*%
X68338750Y-37835000D03*
%TO.P,U2,15,PA8_15*%
%TO.N,/MCU/STATUS_LED*%
X68338750Y-37185000D03*
%TO.P,U2,16,PA9/PA11_16*%
%TO.N,/MCU/LOG_MCU_TX*%
X68338750Y-36535000D03*
%TO.P,U2,17,PA10/PA12_17*%
%TO.N,/MCU/LOG_MCU_RX*%
X68338750Y-35885000D03*
%TO.P,U2,18,PA13_18*%
%TO.N,/MCU/SWDIO*%
X68338750Y-35235000D03*
%TO.P,U2,19,PA14_19*%
%TO.N,/MCU/SWDCLK*%
X68338750Y-34585000D03*
%TO.P,U2,20,PB6_20*%
%TO.N,/MCU/SCL_bus*%
X68338750Y-33935000D03*
%TD*%
D37*
%TO.P,C12,1*%
%TO.N,+3.3V*%
X67645798Y-41735001D03*
%TO.P,C12,2*%
%TO.N,GND*%
X69370800Y-41735001D03*
%TD*%
D39*
%TO.P,SW1,1,A_1*%
%TO.N,GND*%
X49620000Y-26800000D03*
%TO.P,SW1,2,B_2*%
%TO.N,/MCU/NRST*%
X53980000Y-26800000D03*
%TD*%
D14*
%TO.P,C11,1*%
%TO.N,/lora_module/VREG*%
X71308299Y-43497502D03*
%TO.P,C11,2*%
%TO.N,GND*%
X71308299Y-41772500D03*
%TD*%
D27*
%TO.P,R6,1*%
%TO.N,/MCU/MCU_MISO*%
X63378750Y-46860000D03*
%TO.P,R6,2*%
%TO.N,/MCU/RF_MISO*%
X64573750Y-46860000D03*
%TD*%
D40*
%TO.P,C17,1*%
%TO.N,/lora_module/VR_PA*%
X70420000Y-49600000D03*
%TO.P,C17,2*%
%TO.N,GND*%
X71380000Y-49600000D03*
%TD*%
D27*
%TO.P,R10,1*%
%TO.N,/MCU/STATUS_LED*%
X73881250Y-36660000D03*
%TO.P,R10,2*%
%TO.N,Net-(D1-A)*%
X75076250Y-36660000D03*
%TD*%
D41*
%TO.P,R14,1*%
%TO.N,Net-(R13-Pad2)*%
X33739251Y-38139002D03*
%TO.P,R14,2*%
%TO.N,GND*%
X35389251Y-38139002D03*
%TD*%
D27*
%TO.P,R7,1*%
%TO.N,/MCU/MCU_MOSI*%
X69978750Y-37660000D03*
%TO.P,R7,2*%
%TO.N,/MCU/RF_MOSI*%
X71173750Y-37660000D03*
%TD*%
D42*
%TO.P,U6,1,VDD_IN_1*%
%TO.N,+3.3V*%
X70368298Y-47610000D03*
%TO.P,U6,2,GND_2*%
%TO.N,GND*%
X70368299Y-47110000D03*
%TO.P,U6,3,XTA_3*%
%TO.N,/lora_module/XTA*%
X70368299Y-46610000D03*
%TO.P,U6,4,XTB_4*%
%TO.N,/lora_module/XTB*%
X70368299Y-46110000D03*
%TO.P,U6,5,GND_5*%
%TO.N,GND*%
X70368299Y-45610000D03*
%TO.P,U6,6,DIO3_6*%
%TO.N,unconnected-(U6-DIO3-Pad6)*%
X70368298Y-45110000D03*
D43*
%TO.P,U6,7,VREG_7*%
%TO.N,/lora_module/VREG*%
X69708299Y-44450001D03*
%TO.P,U6,8,GND_8*%
%TO.N,GND*%
X69208299Y-44450000D03*
%TO.P,U6,9,DCC_SW_9*%
X68708299Y-44450000D03*
%TO.P,U6,10,VBAT_10*%
%TO.N,+3.3V*%
X68208299Y-44450000D03*
%TO.P,U6,11,VBAT_IO_11*%
X67708299Y-44450000D03*
%TO.P,U6,12,DIO2_12*%
%TO.N,unconnected-(U6-DIO2-Pad12)*%
X67208299Y-44450001D03*
D42*
%TO.P,U6,13,DIO1_13*%
%TO.N,/MCU/RF_DIO1*%
X66548300Y-45110000D03*
%TO.P,U6,14,BUSY_14*%
%TO.N,/MCU/RF_BUSY*%
X66548299Y-45610000D03*
%TO.P,U6,15,NRESET_15*%
%TO.N,/MCU/RF_NRST*%
X66548299Y-46110000D03*
%TO.P,U6,16,MISO_16*%
%TO.N,/MCU/RF_MISO*%
X66548299Y-46610000D03*
%TO.P,U6,17,MOSI_17*%
%TO.N,/MCU/RF_MOSI*%
X66548299Y-47110000D03*
%TO.P,U6,18,SCK_18*%
%TO.N,/MCU/RF_SCK*%
X66548300Y-47610000D03*
D43*
%TO.P,U6,19,NSS_19*%
%TO.N,/MCU/RF_NSS*%
X67208299Y-48269999D03*
%TO.P,U6,20,GND_20*%
%TO.N,GND*%
X67708299Y-48270000D03*
%TO.P,U6,21,RFI_P_21*%
X68208299Y-48270000D03*
%TO.P,U6,22,RFI_N_22*%
X68708299Y-48270000D03*
%TO.P,U6,23,RFO_23*%
%TO.N,/lora_module/RFO*%
X69208299Y-48270000D03*
%TO.P,U6,24,VR_PA_24*%
%TO.N,/lora_module/VR_PA*%
X69708299Y-48269999D03*
D44*
%TO.P,U6,25,GND_25*%
%TO.N,GND*%
X68458299Y-46360000D03*
%TD*%
D16*
%TO.P,J2,1,Pin_1_1*%
%TO.N,/MCU/LOG_MCU_TX_DEBUGGER_RX*%
X57925000Y-26900000D03*
D17*
%TO.P,J2,2,Pin_2_2*%
%TO.N,/MCU/LOG_MCU_RX_DEBUGGER_TX*%
X60465000Y-26900000D03*
%TD*%
D45*
%TO.P,U4,1,TEMP_1*%
%TO.N,GND*%
X41348581Y-35364954D03*
%TO.P,U4,2,ISET_2*%
%TO.N,/power_source/ISET*%
X41348581Y-34084954D03*
%TO.P,U4,3,GND_3*%
%TO.N,GND*%
X41348581Y-32814954D03*
%TO.P,U4,4,VIN_4*%
%TO.N,/power_source/solar_pwr*%
X41348581Y-31544954D03*
%TO.P,U4,5,BAT_5*%
%TO.N,/power_source/regulator/Vin*%
X35528581Y-31544954D03*
%TO.P,U4,6,DONE#_6*%
%TO.N,/power_source/done*%
X35528581Y-32814954D03*
%TO.P,U4,7,CHRG#_7*%
%TO.N,/power_source/chrg*%
X35528581Y-34084954D03*
%TO.P,U4,8,FB_8*%
%TO.N,/power_source/regulator/Vin*%
X35528581Y-35364954D03*
D46*
%TO.P,U4,9,PAD_9*%
%TO.N,GND*%
X38438581Y-33454954D03*
%TD*%
D15*
%TO.P,R3,1*%
%TO.N,/MCU/SCL_bus*%
X68373750Y-32760000D03*
%TO.P,R3,2*%
%TO.N,/MCU/I2C_BUS_PWR*%
X67178750Y-32760000D03*
%TD*%
D28*
%TO.P,C7,1*%
%TO.N,/power_source/solar_pwr*%
X41368583Y-30022454D03*
%TO.P,C7,2*%
%TO.N,GND*%
X39643581Y-30022454D03*
%TD*%
D47*
%TO.P,AE1,1,A_1*%
%TO.N,/lora_module/RFO*%
X69270449Y-60117500D03*
D48*
%TO.P,AE1,2,Shield_2*%
%TO.N,GND*%
X75770449Y-60050000D03*
%TD*%
D28*
%TO.P,C9,1*%
%TO.N,/power_source/regulator/Vin*%
X39391252Y-37324001D03*
%TO.P,C9,2*%
%TO.N,GND*%
X37666250Y-37324001D03*
%TD*%
D49*
%TO.P,C3,1*%
%TO.N,+3.3V*%
X59576250Y-35397500D03*
%TO.P,C3,2*%
%TO.N,GND*%
X59576250Y-37122500D03*
%TD*%
D34*
%TO.P,R2,1*%
%TO.N,/MCU/SDA_bus*%
X60976250Y-33857500D03*
%TO.P,R2,2*%
%TO.N,/MCU/I2C_BUS_PWR*%
X60976250Y-32662500D03*
%TD*%
D50*
%TO.P,Y1,1,1_1*%
%TO.N,/lora_module/XTB*%
X76076250Y-44160000D03*
%TO.P,Y1,2,G_2*%
%TO.N,GND*%
X76076250Y-46360000D03*
%TO.P,Y1,3,3_3*%
%TO.N,/lora_module/XTA*%
X77776250Y-46360000D03*
%TO.P,Y1,4,G_4*%
%TO.N,GND*%
X77776250Y-44160000D03*
%TD*%
D51*
%TO.N,GND*%
X64076250Y-36060000D03*
X73500000Y-50900000D03*
X72494199Y-56437500D03*
X72494199Y-57537500D03*
%TO.N,+3.3V*%
X39800000Y-43200000D03*
X74000000Y-48800000D03*
X57036250Y-42335000D03*
X66339549Y-41460001D03*
X38600000Y-43200000D03*
X58476250Y-35660000D03*
%TO.N,GND*%
X75757501Y-47984999D03*
X69339549Y-45560000D03*
X76294199Y-58500000D03*
X37664750Y-32157000D03*
X55300000Y-38100000D03*
X53022500Y-49375000D03*
X67639549Y-46360000D03*
X78376250Y-38060000D03*
X70339549Y-41360000D03*
X78057501Y-42584999D03*
X55700000Y-50800000D03*
X49022500Y-45475000D03*
X49000000Y-28600000D03*
X39264750Y-32157000D03*
X39264750Y-34757000D03*
X68539549Y-47260000D03*
X69339549Y-47260000D03*
X37664750Y-34757000D03*
X67639549Y-47260000D03*
X67639549Y-45560000D03*
X68458299Y-46360000D03*
X70339550Y-42060000D03*
X69339549Y-46360000D03*
X68439549Y-45560000D03*
X49022500Y-50975000D03*
X36568001Y-37843001D03*
X38438581Y-33454954D03*
X54736250Y-42235000D03*
X75094199Y-58500000D03*
X74200000Y-47060000D03*
%TO.N,/power_source/done*%
X34364750Y-31757000D03*
X48364750Y-30057000D03*
%TO.N,/MCU/SCL_bus*%
X67900000Y-31800000D03*
X51922500Y-45575000D03*
%TO.N,/MCU/SDA_bus*%
X53121778Y-47175722D03*
X59276250Y-33860000D03*
%TO.N,/MCU/RF_SCK*%
X72276250Y-39460000D03*
X65576250Y-49760000D03*
%TO.N,/power_source/chrg*%
X43464750Y-30957000D03*
X34364750Y-33657000D03*
%TO.N,/MCU/I2C_BUS_PWR*%
X65000000Y-37900000D03*
X62076250Y-32660000D03*
X66076250Y-32860000D03*
%TO.N,/MCU/RF_NSS*%
X70500000Y-39800000D03*
X66700000Y-49700000D03*
%TO.N,/MCU/MCU_MISO*%
X66576250Y-38560000D03*
X62476250Y-46860000D03*
%TO.N,/MCU/RF_MOSI*%
X64576250Y-49760000D03*
X73576250Y-38060000D03*
%TO.N,+3.3V*%
X48622500Y-48275000D03*
%TD*%
%TO.N,/MCU/SWDIO*%
D52*
X68338750Y-35235000D02*
X69065418Y-35235000D01*
X69065418Y-35235000D02*
X69430418Y-35600000D01*
X69430418Y-35600000D02*
X71900000Y-35600000D01*
X71900000Y-35600000D02*
X76240000Y-31260000D01*
X76240000Y-31260000D02*
X76240000Y-26800000D01*
%TO.N,GND*%
D53*
X71975000Y-50900000D02*
X73500000Y-50900000D01*
X71380000Y-49600000D02*
X71380000Y-50305000D01*
X71380000Y-50305000D02*
X71975000Y-50900000D01*
%TO.N,/lora_module/VR_PA*%
D52*
X70425000Y-50900000D02*
X70425000Y-50925000D01*
X70425000Y-50925000D02*
X71550000Y-52050000D01*
X71550000Y-52050000D02*
X71550000Y-52500000D01*
X69708299Y-48269999D02*
X70425000Y-48986700D01*
X70425000Y-48986700D02*
X70425000Y-50900000D01*
%TO.N,/lora_module/RFO*%
D54*
X69250000Y-57597500D02*
X70502949Y-57597500D01*
X69250000Y-57597500D02*
X69250000Y-58979551D01*
X69250000Y-58979551D02*
X69270449Y-59000000D01*
X69250000Y-52500000D02*
X69250000Y-53909999D01*
X69250000Y-53909999D02*
X69227499Y-53932500D01*
D52*
X69208299Y-48270000D02*
X69208299Y-48477105D01*
X69208299Y-48477105D02*
X69218299Y-48487105D01*
X69218299Y-48487105D02*
X69218299Y-48930288D01*
X69218299Y-48930288D02*
X69250000Y-48961989D01*
%TO.N,GND*%
X72456699Y-56400000D02*
X72594199Y-56537500D01*
%TO.N,/lora_module/RFO*%
D54*
X69283747Y-56400000D02*
X69281247Y-56402499D01*
X69270449Y-56391702D02*
X69281247Y-56402499D01*
X69278747Y-56400000D02*
X69281247Y-56402499D01*
X69227499Y-55215000D02*
X69227499Y-56348752D01*
X70502949Y-56400000D02*
X69283747Y-56400000D01*
X69227499Y-56348752D02*
X69281247Y-56402500D01*
%TO.N,/lora_module/VR_PA*%
D52*
X70425000Y-50900000D02*
X70600000Y-50900000D01*
X70420000Y-50895000D02*
X70425000Y-50900000D01*
%TO.N,+3.3V*%
D53*
X74000000Y-48800000D02*
X72710798Y-48800000D01*
X72710798Y-48800000D02*
X72413299Y-48502501D01*
X72413299Y-48502501D02*
X71308299Y-48502501D01*
D52*
X50622500Y-47735000D02*
X49610000Y-47735000D01*
X61694582Y-35692500D02*
X60976250Y-35692500D01*
X49610000Y-47735000D02*
X49567500Y-47692500D01*
X61887082Y-35885000D02*
X61694582Y-35692500D01*
D53*
X60943750Y-35660000D02*
X60976250Y-35692500D01*
X56800000Y-43500000D02*
X56800000Y-45075000D01*
X59576250Y-35593671D02*
X59642579Y-35660000D01*
X58738750Y-35397500D02*
X58476250Y-35660000D01*
X59576250Y-35397500D02*
X58738750Y-35397500D01*
X67645799Y-41735001D02*
X66614550Y-41735002D01*
D52*
X70368298Y-47610000D02*
X70415798Y-47610000D01*
D53*
X56800000Y-43500000D02*
X56800000Y-42571250D01*
X59642579Y-35660000D02*
X60943750Y-35660000D01*
D52*
X49567500Y-48812500D02*
X49790000Y-49035000D01*
X49790000Y-49035000D02*
X50622500Y-49035000D01*
X70415798Y-47610000D02*
X71308299Y-48502501D01*
D53*
X67645799Y-43040001D02*
X67940799Y-43335001D01*
X56800000Y-45075000D02*
X56675000Y-45200000D01*
D52*
X67708299Y-43567501D02*
X67940799Y-43335001D01*
D53*
X66614550Y-41735002D02*
X66339549Y-41460001D01*
D52*
X62613750Y-35885000D02*
X61887082Y-35885000D01*
X71308299Y-48302501D02*
X71060798Y-48302501D01*
X67708299Y-44450000D02*
X67708299Y-43567501D01*
D53*
X59576250Y-35397500D02*
X59576250Y-35593671D01*
X56800000Y-42571250D02*
X57036250Y-42335000D01*
X67645799Y-41735001D02*
X67645799Y-43040001D01*
%TO.N,GND*%
X49567500Y-46557500D02*
X49567500Y-46020000D01*
X41348581Y-32814954D02*
X39078581Y-32814954D01*
X70300000Y-41735001D02*
X70300000Y-41400000D01*
X72445799Y-47335001D02*
X71340799Y-47335001D01*
X71270800Y-41735001D02*
X71308299Y-41772500D01*
X49000000Y-28600000D02*
X49620000Y-27980000D01*
X39643581Y-30022454D02*
X39643581Y-30037452D01*
X60943750Y-36860000D02*
X60976250Y-36827500D01*
X49620000Y-27980000D02*
X49620000Y-26800000D01*
X70300000Y-41735001D02*
X70300000Y-42100000D01*
X76076250Y-47666250D02*
X75757501Y-47984999D01*
D52*
X69208299Y-44450000D02*
X69208299Y-43467502D01*
X41359035Y-35354500D02*
X41348581Y-35364954D01*
D53*
X75770449Y-59566250D02*
X75770449Y-60050000D01*
X40514750Y-25757000D02*
X39664750Y-26607000D01*
X77776250Y-44160001D02*
X77776250Y-42866250D01*
X69370800Y-41735001D02*
X70300000Y-41735001D01*
D52*
X42664750Y-35354500D02*
X41359035Y-35354500D01*
D53*
X72708299Y-47072501D02*
X72445799Y-47335001D01*
X59642579Y-36860000D02*
X60943750Y-36860000D01*
X74200000Y-47060000D02*
X72720799Y-47060000D01*
X49567500Y-50430000D02*
X49022500Y-50975000D01*
X59576250Y-36926329D02*
X59642579Y-36860000D01*
X55100000Y-49200000D02*
X55100000Y-50200000D01*
X37087001Y-37324001D02*
X37666250Y-37324001D01*
D52*
X71050798Y-47110000D02*
X71308299Y-47367501D01*
X52062500Y-49035000D02*
X52682500Y-49035000D01*
D53*
X39078581Y-32814954D02*
X38438581Y-33454954D01*
D52*
X70368299Y-47110000D02*
X71050798Y-47110000D01*
D53*
X39664750Y-30001285D02*
X39643581Y-30022454D01*
X38438581Y-31242452D02*
X38438581Y-33454954D01*
D52*
X62613750Y-36535000D02*
X61887082Y-36535000D01*
D53*
X49567500Y-49947500D02*
X49567500Y-50430000D01*
D52*
X52682500Y-49035000D02*
X53022500Y-49375000D01*
D53*
X59576250Y-37122500D02*
X59576250Y-36926329D01*
X72720799Y-47060000D02*
X72708299Y-47072500D01*
X76076250Y-46360000D02*
X76076250Y-47666250D01*
X55075000Y-42573750D02*
X54736250Y-42235000D01*
D52*
X61887082Y-36535000D02*
X61594582Y-36827500D01*
X61594582Y-36827500D02*
X60976250Y-36827500D01*
D53*
X36664750Y-25757000D02*
X37264750Y-26357000D01*
X69370799Y-41735001D02*
X69370798Y-43040001D01*
X39664750Y-26607000D02*
X39664750Y-30001285D01*
X35389251Y-37964002D02*
X35389251Y-38139002D01*
X55100000Y-50200000D02*
X55700000Y-50800000D01*
X37264750Y-26357000D02*
X37264750Y-29976287D01*
X55800000Y-38600000D02*
X55300000Y-38100000D01*
X70300000Y-41735001D02*
X71270800Y-41735001D01*
X77776250Y-42866250D02*
X78057501Y-42584999D01*
X69370798Y-43040001D02*
X69075798Y-43335001D01*
X38438581Y-33454954D02*
X40348581Y-35364954D01*
X39643581Y-30037452D02*
X38438581Y-31242452D01*
D52*
X69208299Y-43467502D02*
X69075798Y-43335001D01*
D53*
X35389251Y-38139002D02*
X36272000Y-38139002D01*
X40348581Y-35364954D02*
X41348581Y-35364954D01*
X49567500Y-46020000D02*
X49022500Y-45475000D01*
X55075000Y-43500000D02*
X55075000Y-42573750D01*
X37218583Y-30022454D02*
X38438581Y-31242452D01*
X36272000Y-38139002D02*
X37087001Y-37324001D01*
X37264750Y-29976287D02*
X37218583Y-30022454D01*
X78376250Y-38060000D02*
X76953749Y-38060000D01*
X75770449Y-60050000D02*
X75770449Y-59413750D01*
%TO.N,/MCU/LOG_MCU_RX*%
D52*
X65400000Y-31800000D02*
X63200000Y-29600000D01*
X66785000Y-35985000D02*
X65400000Y-34600000D01*
X68338750Y-35885000D02*
X68238750Y-35985000D01*
X63200000Y-29600000D02*
X62695000Y-29600000D01*
X65400000Y-34600000D02*
X65400000Y-31800000D01*
X68238750Y-35985000D02*
X66785000Y-35985000D01*
%TO.N,/MCU/LOG_MCU_RX_DEBUGGER_TX*%
X60465000Y-26900000D02*
X60465000Y-28565000D01*
X60465000Y-28565000D02*
X61500000Y-29600000D01*
%TO.N,/MCU/SWDCLK*%
X69265418Y-34585000D02*
X68338750Y-34585000D01*
X73700000Y-26800000D02*
X73700000Y-30150418D01*
X73700000Y-30150418D02*
X69265418Y-34585000D01*
%TO.N,/MCU/NRST*%
X64080000Y-24800000D02*
X55980000Y-24800000D01*
X66080000Y-26800000D02*
X64080000Y-24800000D01*
D55*
X61873478Y-37185000D02*
X60458478Y-38600000D01*
X60458478Y-38600000D02*
X57367500Y-38600000D01*
X62613750Y-37185000D02*
X61873478Y-37185000D01*
D52*
X55980000Y-24800000D02*
X53980000Y-26800000D01*
%TO.N,/power_source/done*%
X34364750Y-31951123D02*
X34364750Y-31757000D01*
X35228581Y-32814954D02*
X34364750Y-31951123D01*
X48364750Y-30057000D02*
X49464750Y-31157000D01*
X35528581Y-32814954D02*
X35228581Y-32814954D01*
X49539749Y-31157000D02*
X49564750Y-31182001D01*
X49464750Y-31157000D02*
X49539749Y-31157000D01*
%TO.N,Net-(D2-A)*%
D53*
X45464750Y-34759500D02*
X45464750Y-32906998D01*
X49564750Y-32931999D02*
X49539749Y-32906998D01*
X49539749Y-32906998D02*
X45464750Y-32906998D01*
%TO.N,/power_source/regulator/CFG1*%
D52*
X37220251Y-39750001D02*
X35400250Y-39750001D01*
X35400250Y-39750001D02*
X35389251Y-39739002D01*
%TO.N,Net-(R13-Pad2)*%
X33739251Y-39739002D02*
X33739251Y-38139002D01*
%TO.N,/lora_module/RFO*%
D54*
X69281247Y-60106702D02*
X69270449Y-60117500D01*
X69254998Y-55005001D02*
X69227499Y-55032500D01*
D52*
X69227499Y-55032500D02*
X69202498Y-55007499D01*
D55*
X69041620Y-59808452D02*
X68991620Y-59858452D01*
%TO.N,/power_source/regulator/Vin*%
D53*
X35493581Y-29385831D02*
X31864750Y-25757000D01*
X37622205Y-35554954D02*
X39391252Y-37324001D01*
D55*
X39295250Y-38400000D02*
X39645251Y-38750001D01*
D53*
X35718581Y-35554954D02*
X37622205Y-35554954D01*
X36628581Y-34784954D02*
X36628581Y-32344954D01*
D55*
X37220251Y-38750001D02*
X37570252Y-38400000D01*
D53*
X36048581Y-35364954D02*
X36628581Y-34784954D01*
X35493581Y-30022454D02*
X35493581Y-29385831D01*
X36628581Y-32344954D02*
X35828581Y-31544954D01*
X39182604Y-37324001D02*
X39391252Y-37324001D01*
X35528581Y-35364954D02*
X36048581Y-35364954D01*
X35828581Y-31544954D02*
X35528581Y-31544954D01*
D55*
X37570252Y-38400000D02*
X39295250Y-38400000D01*
D53*
X35528581Y-35364954D02*
X35718581Y-35554954D01*
X35493581Y-30022454D02*
X35493581Y-31509954D01*
X35493581Y-31509954D02*
X35528581Y-31544954D01*
%TO.N,/power_source/regulator/LX2*%
D52*
X39645251Y-40250000D02*
X41500000Y-40250000D01*
D53*
X41500000Y-40250000D02*
X42568001Y-41318001D01*
%TO.N,/power_source/regulator/LX1*%
X41436000Y-39250002D02*
X42568001Y-38118001D01*
D52*
X39645251Y-39250002D02*
X41436000Y-39250002D01*
%TO.N,/humidity_sensor/VDD*%
D53*
X55102500Y-46797500D02*
X55100000Y-46800000D01*
X55102500Y-45200000D02*
X55102500Y-46797500D01*
%TO.N,/MCU/SCL_bus*%
D52*
X53675000Y-46375000D02*
X52722500Y-46375000D01*
X51922500Y-46935000D02*
X52062500Y-47075000D01*
X68373750Y-32273750D02*
X67900000Y-31800000D01*
X54100000Y-46800000D02*
X53675000Y-46375000D01*
X51922500Y-45575000D02*
X51922500Y-46935000D01*
X68376250Y-32757500D02*
X68373750Y-32760000D01*
X68373750Y-33900000D02*
X68338750Y-33935000D01*
X68373750Y-32760000D02*
X68373750Y-32273750D01*
X68373750Y-32760000D02*
X68373750Y-33900000D01*
X52722500Y-46375000D02*
X51922500Y-45575000D01*
%TO.N,/MCU/SDA_bus*%
X60973750Y-33860000D02*
X60976250Y-33857500D01*
X52562500Y-47735000D02*
X52062500Y-47735000D01*
X59276250Y-33860000D02*
X60973750Y-33860000D01*
X53121778Y-47175722D02*
X53121778Y-48221778D01*
X61053750Y-33935000D02*
X60976250Y-33857500D01*
X62613750Y-33935000D02*
X61053750Y-33935000D01*
X53121778Y-47175722D02*
X52562500Y-47735000D01*
X53121778Y-48221778D02*
X54100000Y-49200000D01*
%TO.N,/MCU/MCU_SCK*%
D55*
X68338750Y-39135000D02*
X69803750Y-39135000D01*
X69803750Y-39135000D02*
X69978750Y-38960000D01*
%TO.N,/MCU/RF_SCK*%
X71776250Y-38960000D02*
X72276250Y-39460000D01*
X71173750Y-38960000D02*
X71776250Y-38960000D01*
X65926250Y-47610000D02*
X65576250Y-47960000D01*
X66548300Y-47610000D02*
X65926250Y-47610000D01*
X65576250Y-47960000D02*
X65576250Y-49760000D01*
%TO.N,/MCU/LOG_MCU_TX*%
D52*
X66135000Y-36535000D02*
X68338750Y-36535000D01*
X62695000Y-30771172D02*
X62971172Y-30771172D01*
X62971172Y-30771172D02*
X64200000Y-32000000D01*
X64200000Y-34600000D02*
X66135000Y-36535000D01*
X64200000Y-32000000D02*
X64200000Y-34600000D01*
%TO.N,/MCU/LOG_MCU_TX_DEBUGGER_RX*%
X57925000Y-28625000D02*
X60071172Y-30771172D01*
X60071172Y-30771172D02*
X61500000Y-30771172D01*
X57925000Y-26900000D02*
X57925000Y-28625000D01*
%TO.N,/power_source/solar_pwr*%
D53*
X43664750Y-33557000D02*
X41652704Y-31544954D01*
X44714750Y-25757000D02*
X41368583Y-29103167D01*
X45144751Y-35954500D02*
X43664750Y-34474499D01*
X41368583Y-31524952D02*
X41348581Y-31544954D01*
X41368583Y-29103167D02*
X41368583Y-30022454D01*
X41368583Y-30022454D02*
X41368583Y-31524952D01*
X41652704Y-31544954D02*
X41348581Y-31544954D01*
X45464750Y-35954500D02*
X45144751Y-35954500D01*
X43664750Y-34474499D02*
X43664750Y-33557000D01*
%TO.N,/power_source/ISET*%
D52*
X42590204Y-34084954D02*
X42664750Y-34159500D01*
X41348581Y-34084954D02*
X42590204Y-34084954D01*
%TO.N,Net-(D1-A)*%
X75076250Y-36660000D02*
X75076250Y-37932499D01*
X75076250Y-37932499D02*
X75203751Y-38060000D01*
%TO.N,/power_source/chrg*%
X35528581Y-34084954D02*
X34792704Y-34084954D01*
X43464750Y-30957000D02*
X45264750Y-30957000D01*
X45264750Y-30957000D02*
X45464750Y-31157000D01*
X34792704Y-34084954D02*
X34364750Y-33657000D01*
%TO.N,/MCU/I2C_BUS_PWR*%
X62076250Y-32660000D02*
X60978750Y-32660000D01*
X60978750Y-32660000D02*
X60976250Y-32662500D01*
X62613750Y-37835000D02*
X64935000Y-37835000D01*
X66076250Y-32860000D02*
X67078750Y-32860000D01*
X67078750Y-32860000D02*
X67178750Y-32760000D01*
X64935000Y-37835000D02*
X65000000Y-37900000D01*
%TO.N,/MCU/RF_DIO1*%
D55*
X65576250Y-44660000D02*
X65576250Y-40260000D01*
X65576250Y-40260000D02*
X63801250Y-38485000D01*
X66548300Y-45110000D02*
X66026250Y-45110000D01*
X63801250Y-38485000D02*
X62613750Y-38485000D01*
D52*
X66415892Y-45110000D02*
X66548300Y-45110000D01*
D55*
X66026250Y-45110000D02*
X65576250Y-44660000D01*
%TO.N,/MCU/RF_NRST*%
X61901250Y-39135000D02*
X62613750Y-39135000D01*
X61726250Y-46110000D02*
X61076250Y-45460000D01*
X61076250Y-39960000D02*
X61901250Y-39135000D01*
X61076250Y-45460000D02*
X61076250Y-39960000D01*
X66548299Y-46110000D02*
X61726250Y-46110000D01*
%TO.N,/MCU/RF_BUSY*%
X62613750Y-39785000D02*
X63301250Y-39785000D01*
X63776250Y-40260000D02*
X63776250Y-44860000D01*
X63301250Y-39785000D02*
X63776250Y-40260000D01*
X64526250Y-45610000D02*
X66548299Y-45610000D01*
X63776250Y-44860000D02*
X64526250Y-45610000D01*
%TO.N,/MCU/RF_NSS*%
X68338750Y-39785000D02*
X70485000Y-39785000D01*
X66700000Y-49100000D02*
X66700000Y-49700000D01*
X67208299Y-48269999D02*
X67208299Y-48591701D01*
X67208299Y-48591701D02*
X66700000Y-49100000D01*
X70485000Y-39785000D02*
X70500000Y-39800000D01*
%TO.N,/MCU/MCU_MISO*%
X68338750Y-38485000D02*
X66651250Y-38485000D01*
X66651250Y-38485000D02*
X66576250Y-38560000D01*
X63378750Y-46860000D02*
X62476250Y-46860000D01*
%TO.N,/MCU/MCU_MOSI*%
D52*
X68363750Y-37860000D02*
X68338750Y-37835000D01*
X69878750Y-37860000D02*
X68363750Y-37860000D01*
%TO.N,/MCU/STATUS_LED*%
X69590418Y-36660000D02*
X73881250Y-36660000D01*
X68338750Y-37185000D02*
X69065418Y-37185000D01*
X69065418Y-37185000D02*
X69590418Y-36660000D01*
%TO.N,/lora_module/VREG*%
X70355799Y-44450001D02*
X71308299Y-43497501D01*
X69708298Y-44450001D02*
X70355799Y-44450001D01*
%TO.N,/MCU/RF_MISO*%
D55*
X66498299Y-46660000D02*
X66548299Y-46610000D01*
X64973750Y-46860000D02*
X65173750Y-46660000D01*
X64573750Y-46860000D02*
X64973750Y-46860000D01*
X65173750Y-46660000D02*
X66498299Y-46660000D01*
%TO.N,/MCU/RF_MOSI*%
X66548299Y-47110000D02*
X65626250Y-47110000D01*
X65626250Y-47110000D02*
X64576250Y-48160000D01*
X71173750Y-37660000D02*
X73176250Y-37660000D01*
X73176250Y-37660000D02*
X73576250Y-38060000D01*
X64576250Y-48160000D02*
X64576250Y-49760000D01*
%TO.N,/lora_module/XTA*%
X71633300Y-46610000D02*
X70368299Y-46610000D01*
X76976250Y-45360000D02*
X72883300Y-45360000D01*
X77776250Y-46160000D02*
X76976250Y-45360000D01*
X72883300Y-45360000D02*
X71633300Y-46610000D01*
%TO.N,/lora_module/XTB*%
X70368298Y-46110000D02*
X70875113Y-46110000D01*
X72825114Y-44160000D02*
X76076250Y-44160000D01*
X70875113Y-46110000D02*
X72600682Y-44384432D01*
X72600682Y-44384432D02*
X72750112Y-44235001D01*
X72600682Y-44384432D02*
X72825114Y-44160000D01*
%TO.N,/lora_module/RFO*%
D54*
X69250000Y-52500000D02*
X69250000Y-48961989D01*
%TO.N,GND*%
D52*
X63601250Y-36535000D02*
X64076250Y-36060000D01*
X62613750Y-36535000D02*
X63601250Y-36535000D01*
%TO.N,/MCU/NRST*%
X53980000Y-34280000D02*
X53980000Y-26800000D01*
X57367500Y-37667500D02*
X53980000Y-34280000D01*
X57367500Y-38600000D02*
X57367500Y-37667500D01*
%TD*%
%TA.AperFunction,Conductor*%
%TO.N,+3.3V*%
G36*
X39514987Y-40629724D02*
G01*
X39527893Y-40633182D01*
X39592524Y-40650500D01*
X40270687Y-40650500D01*
X40337726Y-40670185D01*
X40383481Y-40722989D01*
X40392301Y-40750300D01*
X40397618Y-40777031D01*
X40400000Y-40801212D01*
X40400000Y-41233675D01*
X40395774Y-41265770D01*
X40388502Y-41292908D01*
X40356409Y-41348494D01*
X40348494Y-41356409D01*
X40292908Y-41388502D01*
X40265770Y-41395774D01*
X40233675Y-41400000D01*
X40100000Y-41400000D01*
X40100000Y-42500000D01*
X40233675Y-42500000D01*
X40265766Y-42504225D01*
X40292904Y-42511496D01*
X40348494Y-42543590D01*
X40356409Y-42551505D01*
X40388502Y-42607091D01*
X40395774Y-42634229D01*
X40400000Y-42666324D01*
X40400000Y-43587789D01*
X40397617Y-43611982D01*
X40389588Y-43652344D01*
X40371072Y-43697043D01*
X40355122Y-43720913D01*
X40320913Y-43755122D01*
X40297043Y-43771072D01*
X40252344Y-43789588D01*
X40235841Y-43792870D01*
X40211978Y-43797617D01*
X40187789Y-43800000D01*
X38312211Y-43800000D01*
X38288020Y-43797617D01*
X38272744Y-43794578D01*
X38247656Y-43789588D01*
X38202956Y-43771072D01*
X38179086Y-43755122D01*
X38144877Y-43720913D01*
X38128927Y-43697043D01*
X38110412Y-43652346D01*
X38102381Y-43611971D01*
X38100000Y-43587789D01*
X38100000Y-42939664D01*
X38119685Y-42872625D01*
X38168646Y-42830199D01*
X38168245Y-42829463D01*
X38171628Y-42827615D01*
X38172489Y-42826870D01*
X38174578Y-42826004D01*
X38176026Y-42825214D01*
X38176026Y-42825213D01*
X38176028Y-42825213D01*
X38288366Y-42741117D01*
X38344356Y-42666324D01*
X38365043Y-42638691D01*
X38420977Y-42596820D01*
X38464309Y-42589002D01*
X38764251Y-42589002D01*
X38764251Y-41124501D01*
X38783936Y-41057462D01*
X38836740Y-41011707D01*
X38888251Y-41000501D01*
X39057427Y-41000501D01*
X39057428Y-41000500D01*
X39130491Y-40985967D01*
X39213352Y-40930602D01*
X39268717Y-40847741D01*
X39283251Y-40774675D01*
X39283251Y-40749499D01*
X39302936Y-40682460D01*
X39355740Y-40636705D01*
X39407251Y-40625499D01*
X39482894Y-40625499D01*
X39514987Y-40629724D01*
G37*
%TD.AperFunction*%
%TD*%
%TA.AperFunction,Conductor*%
%TO.N,/power_source/regulator/Vin*%
G36*
X37533070Y-38569686D02*
G01*
X37578825Y-38622490D01*
X37588769Y-38691648D01*
X37587648Y-38698193D01*
X37582251Y-38725324D01*
X37582251Y-39250501D01*
X37562566Y-39317540D01*
X37509762Y-39363295D01*
X37458251Y-39374501D01*
X37382606Y-39374501D01*
X37350514Y-39370276D01*
X37272979Y-39349501D01*
X37272978Y-39349501D01*
X36756751Y-39349501D01*
X36689712Y-39329816D01*
X36643957Y-39277012D01*
X36632751Y-39225501D01*
X36632751Y-38762211D01*
X36635132Y-38738030D01*
X36643163Y-38697652D01*
X36661678Y-38652957D01*
X36677628Y-38629087D01*
X36711837Y-38594878D01*
X36735707Y-38578928D01*
X36780404Y-38560413D01*
X36820778Y-38552382D01*
X36844962Y-38550001D01*
X37466031Y-38550001D01*
X37533070Y-38569686D01*
G37*
%TD.AperFunction*%
%TD*%
%TA.AperFunction,Conductor*%
%TO.N,+3.3V*%
G36*
X68210905Y-44140024D02*
G01*
X68225903Y-44144428D01*
X68284654Y-44182173D01*
X68285841Y-44183542D01*
X68313317Y-44238403D01*
X68314962Y-44245961D01*
X68317799Y-44272332D01*
X68317799Y-44272632D01*
X68312939Y-44297079D01*
X68315130Y-44297515D01*
X68293299Y-44407264D01*
X68293299Y-44603500D01*
X68273614Y-44670539D01*
X68220810Y-44716294D01*
X68169299Y-44727500D01*
X68085928Y-44727500D01*
X68061746Y-44725118D01*
X68032336Y-44719269D01*
X68032326Y-44719268D01*
X68032321Y-44719267D01*
X68032322Y-44719267D01*
X67994485Y-44715541D01*
X67982491Y-44714360D01*
X67982489Y-44714360D01*
X67934112Y-44714360D01*
X67934107Y-44714360D01*
X67884261Y-44719270D01*
X67884257Y-44719270D01*
X67884254Y-44719271D01*
X67854867Y-44725117D01*
X67830675Y-44727500D01*
X67722799Y-44727500D01*
X67655760Y-44707815D01*
X67610005Y-44655011D01*
X67598799Y-44603500D01*
X67598799Y-44276830D01*
X67603822Y-44241894D01*
X67608226Y-44226896D01*
X67645971Y-44168145D01*
X67647340Y-44166958D01*
X67702219Y-44139478D01*
X67709778Y-44137834D01*
X67736131Y-44135001D01*
X68175969Y-44135001D01*
X68210905Y-44140024D01*
G37*
%TD.AperFunction*%
%TD*%
%TA.AperFunction,Conductor*%
%TO.N,GND*%
G36*
X71551520Y-41062381D02*
G01*
X71591895Y-41070412D01*
X71636592Y-41088927D01*
X71660462Y-41104877D01*
X71694671Y-41139086D01*
X71710621Y-41162956D01*
X71729137Y-41207655D01*
X71737166Y-41248020D01*
X71739549Y-41272210D01*
X71739549Y-42147789D01*
X71737166Y-42171982D01*
X71729137Y-42212344D01*
X71710621Y-42257043D01*
X71694671Y-42280913D01*
X71660462Y-42315122D01*
X71636592Y-42331072D01*
X71591893Y-42349588D01*
X71575390Y-42352870D01*
X71551527Y-42357617D01*
X71527338Y-42360000D01*
X69151760Y-42360000D01*
X69127569Y-42357617D01*
X69112293Y-42354578D01*
X69087205Y-42349588D01*
X69042505Y-42331072D01*
X69018635Y-42315122D01*
X68984426Y-42280913D01*
X68968476Y-42257043D01*
X68949961Y-42212346D01*
X68941930Y-42171971D01*
X68939549Y-42147789D01*
X68939549Y-41272210D01*
X68941930Y-41248029D01*
X68949961Y-41207651D01*
X68968476Y-41162956D01*
X68984426Y-41139086D01*
X69018635Y-41104877D01*
X69042505Y-41088927D01*
X69087202Y-41070412D01*
X69127576Y-41062381D01*
X69151760Y-41060000D01*
X71527338Y-41060000D01*
X71551520Y-41062381D01*
G37*
%TD.AperFunction*%
%TD*%
%TA.AperFunction,Conductor*%
%TO.N,GND*%
G36*
X69173379Y-44136060D02*
G01*
X69182138Y-44137213D01*
X69230487Y-44154268D01*
X69243677Y-44162308D01*
X69287969Y-44208761D01*
X69291663Y-44215526D01*
X69305769Y-44258758D01*
X69307237Y-44269902D01*
X69308299Y-44286097D01*
X69308299Y-44381283D01*
X69308070Y-44388285D01*
X68598799Y-44406017D01*
X68598799Y-44276830D01*
X68603822Y-44241894D01*
X68608226Y-44226896D01*
X68645971Y-44168145D01*
X68647340Y-44166958D01*
X68702219Y-44139478D01*
X68709778Y-44137834D01*
X68736131Y-44135001D01*
X69157208Y-44135001D01*
X69173379Y-44136060D01*
G37*
%TD.AperFunction*%
%TD*%
%TA.AperFunction,Conductor*%
%TO.N,GND*%
G36*
X69320376Y-44400059D02*
G01*
X69354625Y-44460958D01*
X69357798Y-44488830D01*
X69357798Y-44496146D01*
X69363574Y-44517702D01*
X69367799Y-44549794D01*
X69367799Y-44802253D01*
X69379430Y-44860730D01*
X69379431Y-44860731D01*
X69423746Y-44927053D01*
X69490068Y-44971368D01*
X69490069Y-44971369D01*
X69548546Y-44983000D01*
X69548549Y-44983001D01*
X69548551Y-44983001D01*
X69711298Y-44983001D01*
X69778337Y-45002686D01*
X69824092Y-45055490D01*
X69835298Y-45107001D01*
X69835298Y-45269752D01*
X69846929Y-45328229D01*
X69846930Y-45328230D01*
X69891245Y-45394552D01*
X69957567Y-45438867D01*
X69957568Y-45438868D01*
X70016045Y-45450499D01*
X70016048Y-45450500D01*
X70315549Y-45450500D01*
X70382588Y-45470185D01*
X70428343Y-45522989D01*
X70439549Y-45574500D01*
X70439549Y-45645500D01*
X70419864Y-45712539D01*
X70367060Y-45758294D01*
X70315549Y-45769500D01*
X70016046Y-45769500D01*
X69957569Y-45781131D01*
X69957568Y-45781132D01*
X69891246Y-45825447D01*
X69846931Y-45891769D01*
X69846930Y-45891770D01*
X69835299Y-45950247D01*
X69835299Y-45950252D01*
X69835299Y-46269748D01*
X69838752Y-46287110D01*
X69848439Y-46335810D01*
X69848439Y-46384190D01*
X69835299Y-46450252D01*
X69835299Y-46769752D01*
X69846930Y-46828229D01*
X69846931Y-46828230D01*
X69891246Y-46894552D01*
X69957568Y-46938867D01*
X69957569Y-46938868D01*
X70016046Y-46950499D01*
X70016049Y-46950500D01*
X70315549Y-46950500D01*
X70382588Y-46970185D01*
X70428343Y-47022989D01*
X70439549Y-47074500D01*
X70439549Y-47135500D01*
X70419864Y-47202539D01*
X70367060Y-47248294D01*
X70329941Y-47256368D01*
X70330214Y-47258439D01*
X70322154Y-47259500D01*
X70300600Y-47265275D01*
X70268509Y-47269500D01*
X70016045Y-47269500D01*
X69957568Y-47281131D01*
X69957567Y-47281132D01*
X69891245Y-47325447D01*
X69846930Y-47391769D01*
X69846929Y-47391770D01*
X69835298Y-47450247D01*
X69835298Y-47612999D01*
X69815613Y-47680038D01*
X69762809Y-47725793D01*
X69711298Y-47736999D01*
X69548546Y-47736999D01*
X69482487Y-47750139D01*
X69434105Y-47750139D01*
X69368051Y-47737000D01*
X69368047Y-47737000D01*
X69048551Y-47737000D01*
X69048546Y-47737000D01*
X68990069Y-47748631D01*
X68990068Y-47748632D01*
X68923746Y-47792947D01*
X68879431Y-47859269D01*
X68879430Y-47859270D01*
X68867799Y-47917747D01*
X68867799Y-48170210D01*
X68863574Y-48202302D01*
X68857799Y-48223854D01*
X68857799Y-48236000D01*
X68838114Y-48303039D01*
X68785310Y-48348794D01*
X68733799Y-48360000D01*
X67672799Y-48360000D01*
X67605760Y-48340315D01*
X67560005Y-48287511D01*
X67548799Y-48236000D01*
X67548799Y-47917748D01*
X67548798Y-47917746D01*
X67537167Y-47859269D01*
X67537166Y-47859268D01*
X67492851Y-47792946D01*
X67426529Y-47748631D01*
X67426528Y-47748630D01*
X67368051Y-47736999D01*
X67368047Y-47736999D01*
X67205300Y-47736999D01*
X67138261Y-47717314D01*
X67092506Y-47664510D01*
X67081300Y-47612999D01*
X67081300Y-47450249D01*
X67068159Y-47384189D01*
X67068159Y-47335804D01*
X67069665Y-47328232D01*
X67069666Y-47328231D01*
X67081299Y-47269748D01*
X67081299Y-46950252D01*
X67081299Y-46950249D01*
X67068159Y-46884192D01*
X67068159Y-46835808D01*
X67081299Y-46769750D01*
X67081299Y-46450249D01*
X67068159Y-46384192D01*
X67068159Y-46335808D01*
X67081299Y-46269750D01*
X67081299Y-45950249D01*
X67068159Y-45884192D01*
X67068159Y-45835808D01*
X67081299Y-45769750D01*
X67081299Y-45450249D01*
X67081298Y-45450247D01*
X67068160Y-45384193D01*
X67068160Y-45335811D01*
X67081299Y-45269752D01*
X67081300Y-45269750D01*
X67081300Y-45107001D01*
X67100985Y-45039962D01*
X67153789Y-44994207D01*
X67205300Y-44983001D01*
X67368049Y-44983001D01*
X67368050Y-44983000D01*
X67382096Y-44980206D01*
X67434110Y-44969861D01*
X67482492Y-44969861D01*
X67548546Y-44982999D01*
X67548549Y-44983000D01*
X67548551Y-44983000D01*
X67868049Y-44983000D01*
X67934107Y-44969860D01*
X67982491Y-44969860D01*
X68048548Y-44983000D01*
X68048551Y-44983000D01*
X68368049Y-44983000D01*
X68368050Y-44982999D01*
X68382867Y-44980052D01*
X68426528Y-44971368D01*
X68426528Y-44971367D01*
X68426530Y-44971367D01*
X68492851Y-44927052D01*
X68537166Y-44860731D01*
X68537166Y-44860729D01*
X68537167Y-44860729D01*
X68548798Y-44802252D01*
X68548799Y-44802250D01*
X68548799Y-44407267D01*
X69308299Y-44388280D01*
X69320376Y-44400059D01*
G37*
%TD.AperFunction*%
%TD*%
%TA.AperFunction,Conductor*%
%TO.N,GND*%
G36*
X76582420Y-58152381D02*
G01*
X76622795Y-58160412D01*
X76667492Y-58178927D01*
X76691362Y-58194877D01*
X76725571Y-58229086D01*
X76741521Y-58252956D01*
X76760037Y-58297655D01*
X76768066Y-58338020D01*
X76770449Y-58362210D01*
X76770449Y-59437789D01*
X76768066Y-59461982D01*
X76760037Y-59502344D01*
X76741521Y-59547043D01*
X76725571Y-59570913D01*
X76691362Y-59605122D01*
X76667492Y-59621072D01*
X76622793Y-59639588D01*
X76606290Y-59642870D01*
X76582427Y-59647617D01*
X76558238Y-59650000D01*
X74882660Y-59650000D01*
X74858469Y-59647617D01*
X74843193Y-59644578D01*
X74818105Y-59639588D01*
X74773405Y-59621072D01*
X74749535Y-59605122D01*
X74715326Y-59570913D01*
X74699376Y-59547043D01*
X74680861Y-59502346D01*
X74672830Y-59461971D01*
X74670449Y-59437789D01*
X74670449Y-58362210D01*
X74672830Y-58338029D01*
X74680861Y-58297651D01*
X74699376Y-58252956D01*
X74715326Y-58229086D01*
X74749535Y-58194877D01*
X74773405Y-58178927D01*
X74818102Y-58160412D01*
X74858476Y-58152381D01*
X74882660Y-58150000D01*
X76558238Y-58150000D01*
X76582420Y-58152381D01*
G37*
%TD.AperFunction*%
%TD*%
%TA.AperFunction,Conductor*%
%TO.N,/power_source/regulator/Vin*%
G36*
X39876222Y-36891383D02*
G01*
X39916597Y-36899414D01*
X39961294Y-36917929D01*
X39985164Y-36933879D01*
X40019373Y-36968088D01*
X40035323Y-36991958D01*
X40053839Y-37036657D01*
X40061868Y-37077022D01*
X40064251Y-37101212D01*
X40064251Y-38725502D01*
X40044566Y-38792541D01*
X39991762Y-38838296D01*
X39940251Y-38849502D01*
X39592522Y-38849502D01*
X39514988Y-38870277D01*
X39482896Y-38874502D01*
X39407251Y-38874502D01*
X39340212Y-38854817D01*
X39294457Y-38802013D01*
X39283251Y-38750502D01*
X39283251Y-38725324D01*
X39283250Y-38725322D01*
X39268718Y-38652265D01*
X39268717Y-38652261D01*
X39213352Y-38569400D01*
X39130491Y-38514035D01*
X39130490Y-38514034D01*
X39130486Y-38514033D01*
X39057428Y-38499501D01*
X39057425Y-38499501D01*
X38888251Y-38499501D01*
X38821212Y-38479816D01*
X38775457Y-38427012D01*
X38764251Y-38375501D01*
X38764251Y-37101212D01*
X38766632Y-37077031D01*
X38774663Y-37036653D01*
X38793178Y-36991958D01*
X38809128Y-36968088D01*
X38843337Y-36933879D01*
X38867207Y-36917929D01*
X38911904Y-36899414D01*
X38952278Y-36891383D01*
X38976462Y-36889002D01*
X39852040Y-36889002D01*
X39876222Y-36891383D01*
G37*
%TD.AperFunction*%
%TD*%
%TA.AperFunction,Conductor*%
%TO.N,GND*%
G36*
X51405106Y-48180023D02*
G01*
X51420104Y-48184427D01*
X51478855Y-48222172D01*
X51480042Y-48223541D01*
X51507518Y-48278402D01*
X51509163Y-48285960D01*
X51512000Y-48312331D01*
X51512000Y-48599678D01*
X51512000Y-48599680D01*
X51511999Y-48599680D01*
X51526528Y-48672717D01*
X51526532Y-48672735D01*
X51526533Y-48672739D01*
X51528501Y-48676214D01*
X51533316Y-48682891D01*
X51581899Y-48755601D01*
X51659276Y-48807302D01*
X51659277Y-48807302D01*
X51659278Y-48807303D01*
X51664760Y-48810966D01*
X51664764Y-48810967D01*
X51664780Y-48810970D01*
X51664788Y-48810972D01*
X51701091Y-48818193D01*
X51730181Y-48823979D01*
X51732915Y-48824703D01*
X51737823Y-48825500D01*
X52387176Y-48825500D01*
X52394498Y-48825500D01*
X52398966Y-48823153D01*
X52404219Y-48822109D01*
X52423926Y-48818189D01*
X52434831Y-48816522D01*
X52472980Y-48812416D01*
X52472981Y-48812417D01*
X52482561Y-48811386D01*
X52551321Y-48823785D01*
X52602450Y-48871368D01*
X52605123Y-48875872D01*
X52622500Y-48939176D01*
X52622500Y-49156694D01*
X52621902Y-49168858D01*
X52620712Y-49180930D01*
X52618927Y-49192957D01*
X52614470Y-49215364D01*
X52607413Y-49238629D01*
X52598245Y-49260761D01*
X52586788Y-49282195D01*
X52584408Y-49285757D01*
X52568986Y-49304548D01*
X52552048Y-49321486D01*
X52533257Y-49336908D01*
X52529695Y-49339288D01*
X52508263Y-49350744D01*
X52486135Y-49359911D01*
X52462861Y-49366971D01*
X52458335Y-49367871D01*
X52440451Y-49371428D01*
X52428428Y-49373212D01*
X52416358Y-49374402D01*
X52404192Y-49375000D01*
X51314830Y-49375000D01*
X51279889Y-49369975D01*
X51264890Y-49365570D01*
X51206144Y-49327827D01*
X51204957Y-49326458D01*
X51177477Y-49271583D01*
X51175832Y-49264021D01*
X51173000Y-49237668D01*
X51173000Y-48810139D01*
X51172564Y-48808134D01*
X51158472Y-48737289D01*
X51158471Y-48737287D01*
X51158467Y-48737264D01*
X51158466Y-48737260D01*
X51158465Y-48737258D01*
X51158464Y-48737256D01*
X51103101Y-48654399D01*
X51030391Y-48605816D01*
X51028750Y-48603852D01*
X51020239Y-48599033D01*
X51020235Y-48599032D01*
X51020209Y-48599026D01*
X50947180Y-48584500D01*
X50947177Y-48584500D01*
X50947174Y-48584500D01*
X50364330Y-48584500D01*
X50329389Y-48579475D01*
X50314390Y-48575070D01*
X50255644Y-48537327D01*
X50254457Y-48535958D01*
X50226977Y-48481083D01*
X50225332Y-48473521D01*
X50222500Y-48447168D01*
X50222500Y-48393297D01*
X50223095Y-48381162D01*
X50224285Y-48369078D01*
X50226069Y-48357055D01*
X50230530Y-48334628D01*
X50237585Y-48311369D01*
X50246756Y-48289230D01*
X50258211Y-48267802D01*
X50260597Y-48264232D01*
X50276007Y-48245455D01*
X50290467Y-48230995D01*
X50341093Y-48200343D01*
X50370410Y-48191163D01*
X50407460Y-48185500D01*
X50947175Y-48185500D01*
X50982014Y-48178569D01*
X50994042Y-48176786D01*
X51006116Y-48175597D01*
X51018268Y-48175000D01*
X51370170Y-48175000D01*
X51405106Y-48180023D01*
G37*
%TD.AperFunction*%
%TD*%
%TA.AperFunction,Conductor*%
%TO.N,GND*%
G36*
X38412482Y-38755523D02*
G01*
X38427480Y-38759927D01*
X38486255Y-38797699D01*
X38493242Y-38805762D01*
X38517168Y-38847755D01*
X38764251Y-39589002D01*
X39102266Y-39589002D01*
X39115298Y-39592828D01*
X39128849Y-39591885D01*
X39136052Y-39593730D01*
X39136324Y-39593767D01*
X39136331Y-39593769D01*
X39136337Y-39593768D01*
X39145574Y-39595027D01*
X39145246Y-39597434D01*
X39182936Y-39605486D01*
X39212991Y-39619501D01*
X39258572Y-39625502D01*
X39474281Y-39625501D01*
X39538741Y-39643572D01*
X39540174Y-39644444D01*
X39587211Y-39696109D01*
X39598849Y-39765003D01*
X39571392Y-39829252D01*
X39513559Y-39868457D01*
X39492028Y-39873295D01*
X39491071Y-39873422D01*
X39474758Y-39874500D01*
X39258568Y-39874500D01*
X39212996Y-39880499D01*
X39212983Y-39880501D01*
X39205946Y-39882810D01*
X39205942Y-39882798D01*
X39187898Y-39888905D01*
X39180221Y-39890593D01*
X39179993Y-39889559D01*
X39178729Y-39889892D01*
X39178946Y-39890875D01*
X39161795Y-39894645D01*
X39134749Y-39897535D01*
X38773493Y-39896295D01*
X38729236Y-40036091D01*
X38729237Y-40036092D01*
X38729219Y-40036149D01*
X38729192Y-40036234D01*
X38486067Y-40804212D01*
X38486067Y-40804213D01*
X38364251Y-41188997D01*
X38364251Y-42268030D01*
X38344566Y-42335069D01*
X38293769Y-42379886D01*
X38267864Y-42392280D01*
X38267863Y-42392280D01*
X38211939Y-42434143D01*
X38211929Y-42434151D01*
X38193448Y-42452632D01*
X38160506Y-42485573D01*
X38160503Y-42485576D01*
X38160501Y-42485579D01*
X38120275Y-42539314D01*
X38064341Y-42581184D01*
X38021009Y-42589002D01*
X37182558Y-42589002D01*
X37170403Y-42588405D01*
X37158332Y-42587216D01*
X37146294Y-42585430D01*
X37136995Y-42583580D01*
X37123878Y-42580971D01*
X37100626Y-42573917D01*
X37078483Y-42564745D01*
X37057049Y-42553286D01*
X37053486Y-42550905D01*
X37034701Y-42535488D01*
X37017763Y-42518550D01*
X37002350Y-42499772D01*
X36999966Y-42496203D01*
X36988508Y-42474772D01*
X36979332Y-42452621D01*
X36972281Y-42429375D01*
X36967817Y-42406932D01*
X36966036Y-42394920D01*
X36964846Y-42382843D01*
X36964251Y-42370704D01*
X36964251Y-40292330D01*
X36969274Y-40257394D01*
X36973678Y-40242396D01*
X37011423Y-40183645D01*
X37012792Y-40182458D01*
X37067671Y-40154978D01*
X37075230Y-40153334D01*
X37101583Y-40150501D01*
X37272977Y-40150501D01*
X37272978Y-40150501D01*
X37339953Y-40132554D01*
X37339954Y-40132554D01*
X37341151Y-40132233D01*
X37342637Y-40131834D01*
X37358561Y-40128665D01*
X37374556Y-40126559D01*
X37390734Y-40125500D01*
X37606928Y-40125500D01*
X37606931Y-40125500D01*
X37624341Y-40123208D01*
X37652511Y-40119500D01*
X37752550Y-40072851D01*
X37830601Y-39994800D01*
X37877250Y-39894761D01*
X37883251Y-39849180D01*
X37883250Y-39650823D01*
X37882410Y-39644444D01*
X37877250Y-39605244D01*
X37877250Y-39605241D01*
X37860144Y-39568559D01*
X37849933Y-39534774D01*
X37846247Y-39510503D01*
X37849910Y-39456793D01*
X37850019Y-39456425D01*
X37856565Y-39439118D01*
X37877250Y-39394762D01*
X37883251Y-39349181D01*
X37883250Y-39150824D01*
X37877250Y-39105242D01*
X37860145Y-39068561D01*
X37849933Y-39034774D01*
X37846247Y-39010503D01*
X37849885Y-38956879D01*
X37849993Y-38956512D01*
X37856568Y-38939111D01*
X37877250Y-38894760D01*
X37878817Y-38882860D01*
X37878817Y-38882853D01*
X37879722Y-38875982D01*
X37889258Y-38842016D01*
X37895588Y-38827707D01*
X37940708Y-38774370D01*
X37945801Y-38771011D01*
X37995988Y-38751849D01*
X37996144Y-38751826D01*
X38014231Y-38750500D01*
X38377546Y-38750500D01*
X38412482Y-38755523D01*
G37*
%TD.AperFunction*%
%TA.AperFunction,Conductor*%
G36*
X38114180Y-36794023D02*
G01*
X38139424Y-36801436D01*
X38192170Y-36832732D01*
X38315324Y-36955886D01*
X38336474Y-36984138D01*
X38349082Y-37007227D01*
X38364251Y-37066656D01*
X38364251Y-37907670D01*
X38359226Y-37942614D01*
X38354821Y-37957612D01*
X38317078Y-38016355D01*
X38315709Y-38017542D01*
X38260848Y-38045018D01*
X38253290Y-38046663D01*
X38226919Y-38049500D01*
X37524108Y-38049500D01*
X37434977Y-38073382D01*
X37434960Y-38073387D01*
X37434955Y-38073389D01*
X37355043Y-38119526D01*
X37355042Y-38119527D01*
X37355038Y-38119530D01*
X37304068Y-38170501D01*
X37216385Y-38258183D01*
X37155065Y-38291667D01*
X37128706Y-38294501D01*
X37088251Y-38294501D01*
X37021212Y-38274816D01*
X36975457Y-38222012D01*
X36964251Y-38170501D01*
X36964251Y-37007299D01*
X36964846Y-36995164D01*
X36966036Y-36983080D01*
X36967820Y-36971057D01*
X36972281Y-36948630D01*
X36979336Y-36925371D01*
X36988507Y-36903232D01*
X36999962Y-36881804D01*
X37002348Y-36878234D01*
X37017758Y-36859457D01*
X37034706Y-36842509D01*
X37053471Y-36827106D01*
X37057052Y-36824714D01*
X37078480Y-36813259D01*
X37100629Y-36804084D01*
X37123875Y-36797032D01*
X37146322Y-36792567D01*
X37158329Y-36790787D01*
X37170412Y-36789597D01*
X37182547Y-36789002D01*
X38079248Y-36789002D01*
X38114180Y-36794023D01*
G37*
%TD.AperFunction*%
%TD*%
%TA.AperFunction,Conductor*%
%TO.N,+3.3V*%
G36*
X49843039Y-47219685D02*
G01*
X49888794Y-47272489D01*
X49900000Y-47324000D01*
X49900000Y-49176000D01*
X49880315Y-49243039D01*
X49827511Y-49288794D01*
X49776000Y-49300000D01*
X48224000Y-49300000D01*
X48156961Y-49280315D01*
X48111206Y-49227511D01*
X48100000Y-49176000D01*
X48100000Y-47324000D01*
X48119685Y-47256961D01*
X48172489Y-47211206D01*
X48224000Y-47200000D01*
X49776000Y-47200000D01*
X49843039Y-47219685D01*
G37*
%TD.AperFunction*%
%TD*%
%TA.AperFunction,Conductor*%
%TO.N,GND*%
G36*
X72893181Y-55906915D02*
G01*
X72893652Y-55907110D01*
X72948076Y-55950925D01*
X72960750Y-55974084D01*
X72960948Y-55974562D01*
X72970449Y-56022163D01*
X72970449Y-57972836D01*
X72960947Y-58020438D01*
X72960839Y-58020702D01*
X72960752Y-58020911D01*
X72916838Y-58075255D01*
X72893860Y-58087802D01*
X72893387Y-58087998D01*
X72845785Y-58097500D01*
X71295113Y-58097500D01*
X71247597Y-58088034D01*
X71247123Y-58087838D01*
X71192746Y-58043966D01*
X71180059Y-58020702D01*
X71179951Y-58020442D01*
X71179864Y-58020232D01*
X71170449Y-57972836D01*
X71170449Y-56022163D01*
X71179864Y-55974768D01*
X71180060Y-55974294D01*
X71223874Y-55919872D01*
X71247322Y-55907079D01*
X71247804Y-55906879D01*
X71295113Y-55897500D01*
X72845785Y-55897500D01*
X72893181Y-55906915D01*
G37*
%TD.AperFunction*%
%TD*%
M02*
