%TF.GenerationSoftware,KiCad,Pcbnew,10.0.6*%
%TF.CreationDate,2026-10-09T19:07:00+07:00*%
%TF.ProjectId,field_device,6669656c-645f-4646-9576-6963652e6b69,rev?*%
%TF.SameCoordinates,Original*%
%TF.FileFunction,Legend,Top*%
%TF.FilePolarity,Positive*%
%FSLAX46Y46*%
G04 Gerber Fmt 4.6, Leading zero omitted, Abs format (unit mm)*
G04 Created by KiCad (PCBNEW 10.0.6) date 2026-10-09 19:07:00*
%MOMM*%
%LPD*%
G01*
G04 APERTURE LIST*
G04 Aperture macros list*
%AMRoundRect*
0 Rectangle with rounded corners*
0 $1 Rounding radius*
0 $2 $3 $4 $5 $6 $7 $8 $9 X,Y pos of 4 corners*
0 Add a 4 corners polygon primitive as box body*
4,1,4,$2,$3,$4,$5,$6,$7,$8,$9,$2,$3,0*
0 Add four circle primitives for the rounded corners*
1,1,$1+$1,$2,$3*
1,1,$1+$1,$4,$5*
1,1,$1+$1,$6,$7*
1,1,$1+$1,$8,$9*
0 Add four rect primitives between the rounded corners*
20,1,$1+$1,$2,$3,$4,$5,0*
20,1,$1+$1,$4,$5,$6,$7,0*
20,1,$1+$1,$6,$7,$8,$9,0*
20,1,$1+$1,$8,$9,$2,$3,0*%
G04 Aperture macros list end*
%ADD10C,0.100000*%
%ADD11C,0.000000*%
%ADD12C,0.053679*%
%ADD13C,0.032668*%
%ADD14C,0.026841*%
%ADD15C,0.032207*%
%ADD16C,0.021473*%
%ADD17C,0.068713*%
%ADD18C,0.125000*%
%ADD19C,0.150000*%
%ADD20C,0.200000*%
%ADD21C,0.375000*%
%ADD22C,0.120000*%
%ADD23C,0.060000*%
%ADD24C,0.250000*%
%ADD25C,0.240000*%
%ADD26RoundRect,0.160000X-0.160000X0.197500X-0.160000X-0.197500X0.160000X-0.197500X0.160000X0.197500X0*%
%ADD27RoundRect,0.155000X-0.212500X-0.155000X0.212500X-0.155000X0.212500X0.155000X-0.212500X0.155000X0*%
%ADD28RoundRect,0.225000X-0.225000X-0.250000X0.225000X-0.250000X0.225000X0.250000X-0.225000X0.250000X0*%
%ADD29RoundRect,0.237500X0.237500X-0.300000X0.237500X0.300000X-0.237500X0.300000X-0.237500X-0.300000X0*%
%ADD30RoundRect,0.160000X0.197500X0.160000X-0.197500X0.160000X-0.197500X-0.160000X0.197500X-0.160000X0*%
%ADD31R,1.700000X1.700000*%
%ADD32C,1.700000*%
%ADD33RoundRect,0.237500X-0.237500X0.287500X-0.237500X-0.287500X0.237500X-0.287500X0.237500X0.287500X0*%
%ADD34RoundRect,0.200000X0.200000X0.275000X-0.200000X0.275000X-0.200000X-0.275000X0.200000X-0.275000X0*%
%ADD35RoundRect,0.250000X0.275000X0.350000X-0.275000X0.350000X-0.275000X-0.350000X0.275000X-0.350000X0*%
%ADD36C,2.540000*%
%ADD37R,3.500000X1.600000*%
%ADD38RoundRect,0.062500X-0.350000X-0.062500X0.350000X-0.062500X0.350000X0.062500X-0.350000X0.062500X0*%
%ADD39R,1.200000X2.000000*%
%ADD40R,0.600000X1.500000*%
%ADD41RoundRect,0.160000X-0.197500X-0.160000X0.197500X-0.160000X0.197500X0.160000X-0.197500X0.160000X0*%
%ADD42RoundRect,0.237500X0.300000X0.237500X-0.300000X0.237500X-0.300000X-0.237500X0.300000X-0.237500X0*%
%ADD43RoundRect,0.155000X-0.155000X0.212500X-0.155000X-0.212500X0.155000X-0.212500X0.155000X0.212500X0*%
%ADD44R,0.600000X0.400000*%
%ADD45RoundRect,0.155000X0.212500X0.155000X-0.212500X0.155000X-0.212500X-0.155000X0.212500X-0.155000X0*%
%ADD46RoundRect,0.155000X0.155000X-0.212500X0.155000X0.212500X-0.155000X0.212500X-0.155000X-0.212500X0*%
%ADD47C,2.554000*%
%ADD48RoundRect,0.160000X0.160000X-0.197500X0.160000X0.197500X-0.160000X0.197500X-0.160000X-0.197500X0*%
%ADD49RoundRect,0.237500X0.287500X0.237500X-0.287500X0.237500X-0.287500X-0.237500X0.287500X-0.237500X0*%
%ADD50RoundRect,0.225000X0.225000X0.250000X-0.225000X0.250000X-0.225000X-0.250000X0.225000X-0.250000X0*%
%ADD51RoundRect,0.237500X-0.300000X-0.237500X0.300000X-0.237500X0.300000X0.237500X-0.300000X0.237500X0*%
%ADD52RoundRect,0.100000X-0.637500X-0.100000X0.637500X-0.100000X0.637500X0.100000X-0.637500X0.100000X0*%
%ADD53R,1.230000X1.860000*%
%ADD54RoundRect,0.140000X-0.140000X-0.170000X0.140000X-0.170000X0.140000X0.170000X-0.140000X0.170000X0*%
%ADD55RoundRect,0.200000X-0.200000X-0.275000X0.200000X-0.275000X0.200000X0.275000X-0.200000X0.275000X0*%
%ADD56R,0.665000X0.280000*%
%ADD57R,0.280000X0.665000*%
%ADD58R,2.550000X2.550000*%
%ADD59R,1.200000X0.600000*%
%ADD60R,2.400000X3.300000*%
%ADD61RoundRect,0.237500X-0.237500X0.300000X-0.237500X-0.300000X0.237500X-0.300000X0.237500X0.300000X0*%
%ADD62R,1.200000X1.400000*%
G04 APERTURE END LIST*
D10*
X68300000Y-55700000D02*
X73500000Y-55700000D01*
X73500000Y-58500000D01*
X68300000Y-58500000D01*
X68300000Y-55700000D01*
D11*
G36*
X58607274Y-64369031D02*
G01*
X58882148Y-65296674D01*
X58634757Y-65860144D01*
X57789579Y-65592151D01*
X57817065Y-64946231D01*
X58064436Y-64355283D01*
X58607274Y-64369031D01*
G37*
G36*
X61486427Y-63153037D02*
G01*
X61486427Y-63681892D01*
X62551504Y-64396512D01*
X61960559Y-64733219D01*
X60428232Y-64190373D01*
X60517545Y-63441380D01*
X60600013Y-63118433D01*
X61486427Y-63153037D01*
G37*
D12*
X58408990Y-48013130D02*
X58769744Y-47487471D01*
X58814410Y-47676432D01*
X59377868Y-48184920D01*
X59762667Y-47882564D01*
X59697386Y-47635207D01*
X59728309Y-47545885D01*
X59867578Y-47545885D01*
X60154346Y-47903189D01*
X60202439Y-48233027D01*
X59075520Y-49490517D01*
X58573904Y-48446030D01*
X58408990Y-48013130D01*
G36*
X60168020Y-48278085D02*
G01*
X60168020Y-48298627D01*
X60162202Y-48307334D01*
X59050875Y-49418661D01*
X59042168Y-49424479D01*
X59021626Y-49424479D01*
X59007101Y-49409954D01*
X59007101Y-49389412D01*
X59012919Y-49380705D01*
X60124246Y-48269378D01*
X60132953Y-48263560D01*
X60153495Y-48263560D01*
X60168020Y-48278085D01*
G37*
G36*
X59889608Y-48019708D02*
G01*
X59889608Y-48040249D01*
X59883790Y-48048956D01*
X58876719Y-49056027D01*
X58868012Y-49061845D01*
X58847470Y-49061845D01*
X58832945Y-49047320D01*
X58832945Y-49026778D01*
X58838763Y-49018071D01*
X59845834Y-48011000D01*
X59854541Y-48005182D01*
X59875082Y-48005182D01*
X59889608Y-48019708D01*
G37*
G36*
X59295019Y-48077506D02*
G01*
X59295019Y-48098048D01*
X59289201Y-48106755D01*
X58702564Y-48693392D01*
X58693857Y-48699210D01*
X58673315Y-48699210D01*
X58658790Y-48684685D01*
X58658790Y-48664143D01*
X58664608Y-48655436D01*
X59251245Y-48068799D01*
X59259952Y-48062981D01*
X59280494Y-48062981D01*
X59295019Y-48077506D01*
G37*
G36*
X58586420Y-48249315D02*
G01*
X58586420Y-48269857D01*
X58580602Y-48278564D01*
X58538061Y-48321105D01*
X58529354Y-48326923D01*
X58508812Y-48326923D01*
X58494287Y-48312398D01*
X58494287Y-48291856D01*
X58500105Y-48283149D01*
X58542646Y-48240608D01*
X58551353Y-48234790D01*
X58571895Y-48234790D01*
X58586420Y-48249315D01*
G37*
G36*
X58884612Y-47951123D02*
G01*
X58884612Y-47971665D01*
X58878794Y-47980372D01*
X58671626Y-48187540D01*
X58662919Y-48193358D01*
X58642377Y-48193358D01*
X58627852Y-48178833D01*
X58627852Y-48158291D01*
X58633670Y-48149584D01*
X58840838Y-47942416D01*
X58849545Y-47936598D01*
X58870087Y-47936598D01*
X58884612Y-47951123D01*
G37*
X58140023Y-50344386D02*
X58462985Y-51065872D01*
X58902767Y-51608729D01*
X59596773Y-51436936D01*
X60139625Y-50612372D01*
X60139625Y-51643090D01*
X60813017Y-53594584D01*
X61314655Y-57057799D01*
X60764925Y-57799911D01*
X59761687Y-58432093D01*
X58889026Y-58459574D01*
X57782708Y-58061026D01*
X56745129Y-56831034D01*
X56745129Y-56040840D01*
X58140023Y-50344386D01*
G36*
X58462985Y-51065872D02*
G01*
X58902767Y-51608729D01*
X59596773Y-51436936D01*
X60139625Y-50612372D01*
X60139625Y-51643090D01*
X60813017Y-53594584D01*
X61314655Y-57057799D01*
X60764925Y-57799911D01*
X59761687Y-58432093D01*
X58889026Y-58459574D01*
X57782708Y-58061026D01*
X56745129Y-56831034D01*
X56745129Y-56040840D01*
X58140023Y-50344386D01*
X58462985Y-51065872D01*
G37*
D13*
X59761687Y-58432093D02*
X60764925Y-57799911D01*
X61177202Y-60204930D01*
X61520795Y-61304354D01*
X61658214Y-62073966D01*
X61486427Y-62891665D01*
X61486427Y-63681892D01*
X62551504Y-64396512D01*
X61960559Y-64733219D01*
X60428232Y-64190373D01*
X60517545Y-63441380D01*
X60682461Y-62795466D01*
X60551911Y-62623680D01*
X60634363Y-61063848D01*
X59761687Y-58432093D01*
G36*
X61288731Y-62950480D02*
G01*
X61288731Y-62961840D01*
X61269446Y-62961087D01*
X61285303Y-62945229D01*
X61288731Y-62950480D01*
G37*
G36*
X60521383Y-58211406D02*
G01*
X60658367Y-58348390D01*
X60667550Y-58401961D01*
X60667925Y-58404148D01*
X60498283Y-58234506D01*
X60290385Y-58442404D01*
X60498283Y-58650302D01*
X60679122Y-58469463D01*
X60685882Y-58508901D01*
X60521383Y-58673401D01*
X60729280Y-58881299D01*
X60746729Y-58863851D01*
X60753490Y-58903290D01*
X60752380Y-58904399D01*
X60753949Y-58905967D01*
X60763507Y-58961725D01*
X60729280Y-58927499D01*
X60521383Y-59135397D01*
X60729280Y-59343295D01*
X60814336Y-59258239D01*
X60821097Y-59297678D01*
X60752380Y-59366394D01*
X60849530Y-59463544D01*
X60859088Y-59519302D01*
X60729280Y-59389494D01*
X60521383Y-59597392D01*
X60729280Y-59805290D01*
X60881943Y-59652627D01*
X60888704Y-59692066D01*
X60752380Y-59828390D01*
X60945111Y-60021121D01*
X60956311Y-60086454D01*
X60752380Y-60290385D01*
X60960278Y-60498283D01*
X61029056Y-60429505D01*
X61038512Y-60466249D01*
X60983378Y-60521383D01*
X61076724Y-60614729D01*
X61092735Y-60676939D01*
X60960278Y-60544482D01*
X60752380Y-60752380D01*
X60960278Y-60960278D01*
X61123618Y-60796939D01*
X61133074Y-60833682D01*
X60983378Y-60983378D01*
X61191276Y-61191276D01*
X61218180Y-61164372D01*
X61227636Y-61201115D01*
X61214375Y-61214375D01*
X61236826Y-61236826D01*
X61252836Y-61299036D01*
X61191276Y-61237475D01*
X60983378Y-61445373D01*
X61191276Y-61653271D01*
X61312742Y-61531805D01*
X61322198Y-61568548D01*
X61214375Y-61676371D01*
X61396928Y-61858923D01*
X61416760Y-61935981D01*
X61214375Y-62138366D01*
X61403037Y-62327027D01*
X61395016Y-62365206D01*
X61191276Y-62161466D01*
X60983378Y-62369364D01*
X61191276Y-62577262D01*
X61392805Y-62375733D01*
X61380517Y-62434220D01*
X61214375Y-62600361D01*
X61322828Y-62708814D01*
X61314807Y-62746993D01*
X61191276Y-62623461D01*
X60983378Y-62831359D01*
X61106755Y-62954736D01*
X61058678Y-62952858D01*
X60960278Y-62854459D01*
X60869272Y-62945465D01*
X60848408Y-62944650D01*
X60856816Y-62911721D01*
X60858699Y-62909837D01*
X60867277Y-62903319D01*
X60867603Y-62900935D01*
X60937178Y-62831359D01*
X60889506Y-62783687D01*
X60894270Y-62765029D01*
X60887658Y-62753884D01*
X60889410Y-62741046D01*
X60877840Y-62725821D01*
X60960278Y-62808259D01*
X61168176Y-62600361D01*
X60960278Y-62392463D01*
X60769492Y-62583249D01*
X60760737Y-62571731D01*
X60765810Y-62540731D01*
X60937178Y-62369364D01*
X60814010Y-62246196D01*
X60820507Y-62206493D01*
X60960278Y-62346264D01*
X61168176Y-62138366D01*
X60960278Y-61930468D01*
X60847168Y-62043578D01*
X60856207Y-61988338D01*
X60937178Y-61907368D01*
X60983378Y-61907368D01*
X61191276Y-62115266D01*
X61399174Y-61907368D01*
X61191276Y-61699471D01*
X60983378Y-61907368D01*
X60937178Y-61907368D01*
X60878981Y-61849171D01*
X60883930Y-61818934D01*
X60870062Y-61799640D01*
X60869760Y-61793751D01*
X60960278Y-61884269D01*
X61168176Y-61676371D01*
X60960278Y-61468473D01*
X60858305Y-61570445D01*
X60856051Y-61526500D01*
X60937178Y-61445373D01*
X60847278Y-61355473D01*
X60844780Y-61306776D01*
X60960278Y-61422273D01*
X61168176Y-61214375D01*
X60960278Y-61006478D01*
X60835762Y-61130992D01*
X60834474Y-61105870D01*
X60839760Y-61095342D01*
X60847786Y-61079352D01*
X60846147Y-61074409D01*
X60937178Y-60983378D01*
X60755826Y-60802026D01*
X60739364Y-60752380D01*
X60731101Y-60727460D01*
X60937178Y-60521383D01*
X60729280Y-60313485D01*
X60627559Y-60415206D01*
X60627032Y-60413619D01*
X60616054Y-60380511D01*
X60706181Y-60290385D01*
X60526630Y-60110834D01*
X60518546Y-60086454D01*
X60509571Y-60059387D01*
X60521383Y-60059387D01*
X60729280Y-60267285D01*
X60937178Y-60059387D01*
X60729280Y-59851489D01*
X60521383Y-60059387D01*
X60509571Y-60059387D01*
X60501007Y-60033562D01*
X60706181Y-59828390D01*
X60498283Y-59620492D01*
X60397466Y-59721309D01*
X60385961Y-59686613D01*
X60475183Y-59597392D01*
X60297435Y-59419644D01*
X60279778Y-59366394D01*
X60290385Y-59366394D01*
X60498283Y-59574292D01*
X60706181Y-59366394D01*
X60498283Y-59158496D01*
X60290385Y-59366394D01*
X60279778Y-59366394D01*
X60270915Y-59339665D01*
X60475183Y-59135397D01*
X60267285Y-58927499D01*
X60167373Y-59027411D01*
X60155868Y-58992715D01*
X60244185Y-58904399D01*
X60290385Y-58904399D01*
X60498283Y-59112297D01*
X60706181Y-58904399D01*
X60498283Y-58696501D01*
X60290385Y-58904399D01*
X60244185Y-58904399D01*
X60068240Y-58728454D01*
X60049985Y-58673401D01*
X60059387Y-58673401D01*
X60267285Y-58881299D01*
X60475183Y-58673401D01*
X60267285Y-58465504D01*
X60059387Y-58673401D01*
X60049985Y-58673401D01*
X60040822Y-58645767D01*
X60244185Y-58442404D01*
X60203743Y-58401962D01*
X60232084Y-58384103D01*
X60267285Y-58419304D01*
X60422431Y-58264157D01*
X60547345Y-58185444D01*
X60521383Y-58211406D01*
G37*
X57748623Y-58107163D02*
X58889026Y-58459574D01*
X58607278Y-61751008D01*
X58737848Y-62149546D01*
X58737847Y-63145902D01*
X58847771Y-63613160D01*
X58847771Y-64162891D01*
X58607274Y-64369031D01*
X58882148Y-65296674D01*
X58634757Y-65860144D01*
X57789579Y-65592151D01*
X57817065Y-64946231D01*
X58064436Y-64355283D01*
X57817065Y-63681892D01*
X57947626Y-61915922D01*
X57748623Y-58107163D01*
G36*
X58188306Y-58650302D02*
G01*
X58349864Y-58488743D01*
X58383827Y-58500979D01*
X58211406Y-58673401D01*
X58419304Y-58881299D01*
X58627202Y-58673401D01*
X58494731Y-58540931D01*
X58566947Y-58566947D01*
X58650302Y-58650302D01*
X58675063Y-58625540D01*
X58666927Y-58713127D01*
X58650302Y-58696501D01*
X58442404Y-58904399D01*
X58631589Y-59093584D01*
X58623026Y-59185772D01*
X58442404Y-59366394D01*
X58592324Y-59516314D01*
X58588397Y-59558587D01*
X58419304Y-59389494D01*
X58211406Y-59597392D01*
X58419304Y-59805290D01*
X58580451Y-59644143D01*
X58575720Y-59695073D01*
X58442404Y-59828390D01*
X58553059Y-59939045D01*
X58549132Y-59981318D01*
X58419304Y-59851489D01*
X58211406Y-60059387D01*
X58419304Y-60267285D01*
X58533145Y-60153444D01*
X58528414Y-60204375D01*
X58442404Y-60290385D01*
X58513794Y-60361775D01*
X58509867Y-60404048D01*
X58419304Y-60313485D01*
X58211406Y-60521383D01*
X58419304Y-60729280D01*
X58485832Y-60662752D01*
X58485817Y-60662973D01*
X58481108Y-60713676D01*
X58442404Y-60752380D01*
X58477068Y-60787044D01*
X58474024Y-60830200D01*
X58419304Y-60775480D01*
X58211406Y-60983378D01*
X58419304Y-61191276D01*
X58450782Y-61159798D01*
X58447276Y-61209503D01*
X58442404Y-61214375D01*
X58446634Y-61218606D01*
X58443591Y-61261762D01*
X58419304Y-61237475D01*
X58211406Y-61445373D01*
X58416201Y-61650168D01*
X58412879Y-61697289D01*
X58404047Y-61714728D01*
X58211406Y-61907368D01*
X58419304Y-62115266D01*
X58494082Y-62040488D01*
X58505483Y-62075287D01*
X58442404Y-62138366D01*
X58540151Y-62236113D01*
X58540151Y-62282312D01*
X58419304Y-62161466D01*
X58211406Y-62369364D01*
X58419304Y-62577262D01*
X58540151Y-62456414D01*
X58540151Y-62502614D01*
X58442404Y-62600361D01*
X58540151Y-62698108D01*
X58540151Y-62744308D01*
X58419304Y-62623461D01*
X58211406Y-62831359D01*
X58419304Y-63039257D01*
X58540151Y-62918410D01*
X58540151Y-62964610D01*
X58442404Y-63062357D01*
X58537462Y-63157414D01*
X58540151Y-63168843D01*
X58540151Y-63206303D01*
X58419304Y-63085456D01*
X58211406Y-63293354D01*
X58419304Y-63501252D01*
X58580442Y-63340114D01*
X58589241Y-63377515D01*
X58442404Y-63524352D01*
X58650075Y-63732023D01*
X58650075Y-63778676D01*
X58442404Y-63986347D01*
X58584352Y-64128295D01*
X58559475Y-64149618D01*
X58419304Y-64009447D01*
X58252114Y-64176637D01*
X58207154Y-64175498D01*
X58207153Y-64175495D01*
X58207127Y-64175423D01*
X58396204Y-63986347D01*
X58188306Y-63778449D01*
X58099211Y-63867545D01*
X58087220Y-63833336D01*
X58165207Y-63755350D01*
X58211406Y-63755350D01*
X58419304Y-63963247D01*
X58627202Y-63755350D01*
X58419304Y-63547452D01*
X58211406Y-63755350D01*
X58165207Y-63755350D01*
X58020563Y-63610706D01*
X58023743Y-63567686D01*
X58188306Y-63732250D01*
X58396204Y-63524352D01*
X58188306Y-63316454D01*
X58030663Y-63474098D01*
X58034351Y-63424209D01*
X58165207Y-63293354D01*
X58052368Y-63180516D01*
X58055548Y-63137496D01*
X58188306Y-63270254D01*
X58396204Y-63062357D01*
X58188306Y-62854459D01*
X58067546Y-62975218D01*
X58071234Y-62925330D01*
X58165207Y-62831359D01*
X58084172Y-62750325D01*
X58087353Y-62707306D01*
X58188306Y-62808259D01*
X58396204Y-62600361D01*
X58188306Y-62392463D01*
X58104429Y-62476341D01*
X58108117Y-62426452D01*
X58165207Y-62369364D01*
X58115977Y-62320134D01*
X58119158Y-62277115D01*
X58188306Y-62346264D01*
X58396204Y-62138366D01*
X58188306Y-61930468D01*
X58147856Y-61970919D01*
X58145960Y-61926615D01*
X58165207Y-61907368D01*
X58147782Y-61889944D01*
X58150822Y-61848832D01*
X58142204Y-61838838D01*
X58142174Y-61838137D01*
X58188306Y-61884269D01*
X58396204Y-61676371D01*
X58188306Y-61468473D01*
X58128901Y-61527877D01*
X58127005Y-61483574D01*
X58165207Y-61445373D01*
X58123591Y-61403757D01*
X58121526Y-61355493D01*
X58188306Y-61422273D01*
X58396204Y-61214375D01*
X58188306Y-61006478D01*
X58109947Y-61084837D01*
X58108051Y-61040532D01*
X58165207Y-60983378D01*
X58102943Y-60921115D01*
X58100878Y-60872849D01*
X58188306Y-60960278D01*
X58396204Y-60752380D01*
X58188306Y-60544482D01*
X58090993Y-60641795D01*
X58089098Y-60597490D01*
X58165207Y-60521383D01*
X58082294Y-60438470D01*
X58080230Y-60390207D01*
X58188306Y-60498283D01*
X58396204Y-60290385D01*
X58188306Y-60082487D01*
X58072039Y-60198753D01*
X58070144Y-60154449D01*
X58165207Y-60059387D01*
X58061646Y-59955827D01*
X58059582Y-59907563D01*
X58188306Y-60036287D01*
X58396204Y-59828390D01*
X58188306Y-59620492D01*
X58053085Y-59755712D01*
X58051190Y-59711408D01*
X58165207Y-59597392D01*
X58040998Y-59473183D01*
X58038934Y-59424918D01*
X58188306Y-59574292D01*
X58396204Y-59366394D01*
X58188306Y-59158496D01*
X58034132Y-59312671D01*
X58032236Y-59268366D01*
X58165207Y-59135397D01*
X58211406Y-59135397D01*
X58419304Y-59343295D01*
X58627202Y-59135397D01*
X58419304Y-58927499D01*
X58211406Y-59135397D01*
X58165207Y-59135397D01*
X58020350Y-58990540D01*
X58018286Y-58942275D01*
X58188306Y-59112297D01*
X58396204Y-58904399D01*
X58188306Y-58696501D01*
X58015178Y-58869630D01*
X58013282Y-58825325D01*
X58165207Y-58673401D01*
X57999702Y-58507897D01*
X57999694Y-58507719D01*
X57997638Y-58459632D01*
X58188306Y-58650302D01*
G37*
G36*
X58044187Y-58378624D02*
G01*
X57996224Y-58426589D01*
X57994329Y-58382284D01*
X58010223Y-58366388D01*
X58044187Y-58378624D01*
G37*
D14*
X59541803Y-44709794D02*
X59699852Y-44462408D01*
X59960954Y-44462408D01*
X60368186Y-44719484D01*
X61130432Y-45431293D01*
X61438331Y-45431289D01*
X61953679Y-45225148D01*
X61816257Y-45685532D01*
X61390229Y-46118437D01*
X61115362Y-46716248D01*
X60840500Y-46784972D01*
X60840500Y-46310826D01*
X60751184Y-46675021D01*
X60529210Y-46805579D01*
X60551909Y-45926033D01*
X60352639Y-45170176D01*
X60022818Y-44840345D01*
X59541803Y-44709794D01*
G36*
X61018550Y-46505432D02*
G01*
X61027691Y-46514572D01*
X61030600Y-46518927D01*
X61030600Y-46529197D01*
X61023337Y-46536460D01*
X61013067Y-46536460D01*
X61008712Y-46533551D01*
X60999572Y-46524410D01*
X60996663Y-46520056D01*
X60996663Y-46509786D01*
X61003926Y-46502523D01*
X61014196Y-46502523D01*
X61018550Y-46505432D01*
G37*
G36*
X61018550Y-46237022D02*
G01*
X61112232Y-46330703D01*
X61115141Y-46335058D01*
X61115141Y-46345328D01*
X61107878Y-46352591D01*
X61097608Y-46352591D01*
X61093253Y-46349682D01*
X60999572Y-46256000D01*
X60996663Y-46251646D01*
X60996663Y-46241376D01*
X61003926Y-46234113D01*
X61014196Y-46234113D01*
X61018550Y-46237022D01*
G37*
G36*
X60653100Y-45603162D02*
G01*
X61196774Y-46146835D01*
X61199683Y-46151189D01*
X61199683Y-46161459D01*
X61192419Y-46168723D01*
X61182149Y-46168723D01*
X61177795Y-46165814D01*
X60634122Y-45622140D01*
X60631213Y-45617786D01*
X60631213Y-45607516D01*
X60638476Y-45600253D01*
X60648746Y-45600253D01*
X60653100Y-45603162D01*
G37*
G36*
X60734982Y-45953454D02*
G01*
X60914305Y-46132776D01*
X60917214Y-46137130D01*
X60917214Y-46147400D01*
X60909950Y-46154664D01*
X60899680Y-46154664D01*
X60895326Y-46151755D01*
X60716004Y-45972432D01*
X60713095Y-45968078D01*
X60713095Y-45957808D01*
X60720358Y-45950545D01*
X60730628Y-45950545D01*
X60734982Y-45953454D01*
G37*
G36*
X60557003Y-45238655D02*
G01*
X61288662Y-45970313D01*
X61291571Y-45974667D01*
X61291571Y-45984937D01*
X61284307Y-45992201D01*
X61274037Y-45992201D01*
X61269683Y-45989292D01*
X60538025Y-45257633D01*
X60535116Y-45253279D01*
X60535116Y-45243009D01*
X60542379Y-45235746D01*
X60552649Y-45235746D01*
X60557003Y-45238655D01*
G37*
G36*
X61177433Y-45590675D02*
G01*
X61427333Y-45840574D01*
X61430242Y-45844928D01*
X61430242Y-45855198D01*
X61422978Y-45862462D01*
X61412708Y-45862462D01*
X61408354Y-45859553D01*
X61158455Y-45609653D01*
X61155546Y-45605299D01*
X61155546Y-45595029D01*
X61162809Y-45587766D01*
X61173079Y-45587766D01*
X61177433Y-45590675D01*
G37*
G36*
X61455458Y-45600290D02*
G01*
X61560462Y-45705294D01*
X61563371Y-45709648D01*
X61563371Y-45719918D01*
X61556108Y-45727181D01*
X61545838Y-45727181D01*
X61541484Y-45724272D01*
X61436480Y-45619268D01*
X61433571Y-45614914D01*
X61433571Y-45604644D01*
X61440834Y-45597381D01*
X61451104Y-45597381D01*
X61455458Y-45600290D01*
G37*
G36*
X61647179Y-45523601D02*
G01*
X61684269Y-45560690D01*
X61687178Y-45565044D01*
X61687178Y-45575314D01*
X61679914Y-45582578D01*
X61669644Y-45582578D01*
X61665290Y-45579669D01*
X61628201Y-45542579D01*
X61625292Y-45538225D01*
X61625292Y-45527955D01*
X61632555Y-45520692D01*
X61642825Y-45520692D01*
X61647179Y-45523601D01*
G37*
D15*
X63196061Y-57456171D02*
X63678417Y-57088712D01*
X64001376Y-56810413D01*
X64351826Y-56315687D01*
X64667909Y-55601051D01*
X65774220Y-55339934D01*
X67141634Y-54213008D01*
X67492071Y-54659649D01*
X67966214Y-55019116D01*
X68392241Y-54845195D01*
X67636376Y-57181483D01*
X66642290Y-58885607D01*
X64729757Y-60956075D01*
X62826369Y-62541224D01*
X61623855Y-62541224D01*
X61658214Y-62073966D01*
X61177202Y-60204930D01*
X61562007Y-59888840D01*
X62365981Y-58493928D01*
X62503389Y-57875505D01*
X63196061Y-57456171D01*
G36*
X61852529Y-62151825D02*
G01*
X62035149Y-62334446D01*
X62038640Y-62339670D01*
X62038640Y-62351995D01*
X62029925Y-62360710D01*
X62017600Y-62360710D01*
X62012376Y-62357219D01*
X61829755Y-62174599D01*
X61826265Y-62169374D01*
X61826265Y-62157050D01*
X61834980Y-62148335D01*
X61847304Y-62148335D01*
X61852529Y-62151825D01*
G37*
G36*
X61823300Y-61800526D02*
G01*
X62357220Y-62334447D01*
X62360710Y-62339671D01*
X62360710Y-62351996D01*
X62351996Y-62360710D01*
X62339671Y-62360710D01*
X62334447Y-62357220D01*
X61800526Y-61823300D01*
X61797036Y-61818075D01*
X61797036Y-61805751D01*
X61805751Y-61797036D01*
X61818075Y-61797036D01*
X61823300Y-61800526D01*
G37*
G36*
X61753292Y-61408448D02*
G01*
X62679290Y-62334447D01*
X62682780Y-62339671D01*
X62682780Y-62351995D01*
X62674065Y-62360710D01*
X62661741Y-62360710D01*
X62656517Y-62357220D01*
X61730518Y-61431222D01*
X61727028Y-61425997D01*
X61727028Y-61413673D01*
X61735743Y-61404958D01*
X61748067Y-61404958D01*
X61753292Y-61408448D01*
G37*
G36*
X61638539Y-60971625D02*
G01*
X62895313Y-62228400D01*
X62898803Y-62233624D01*
X62898803Y-62245949D01*
X62890089Y-62254663D01*
X62877764Y-62254663D01*
X62872540Y-62251173D01*
X61615765Y-60994399D01*
X61612275Y-60989174D01*
X61612275Y-60976850D01*
X61620990Y-60968135D01*
X61633314Y-60968135D01*
X61638539Y-60971625D01*
G37*
G36*
X61492129Y-60503145D02*
G01*
X63071444Y-62082461D01*
X63074934Y-62087685D01*
X63074934Y-62100010D01*
X63066220Y-62108724D01*
X63053895Y-62108724D01*
X63048671Y-62105234D01*
X61469355Y-60525919D01*
X61465865Y-60520694D01*
X61465865Y-60508370D01*
X61474580Y-60499655D01*
X61486904Y-60499655D01*
X61492129Y-60503145D01*
G37*
G36*
X61508437Y-60197383D02*
G01*
X63247576Y-61936522D01*
X63251066Y-61941747D01*
X63251066Y-61954071D01*
X63242351Y-61962786D01*
X63230027Y-61962786D01*
X63224802Y-61959296D01*
X61485663Y-60220157D01*
X61482173Y-60214932D01*
X61482173Y-60202608D01*
X61490888Y-60193893D01*
X61503212Y-60193893D01*
X61508437Y-60197383D01*
G37*
G36*
X61685492Y-60052368D02*
G01*
X63423708Y-61790585D01*
X63427198Y-61795809D01*
X63427198Y-61808134D01*
X63418484Y-61816848D01*
X63406159Y-61816848D01*
X63400935Y-61813358D01*
X61662718Y-60075142D01*
X61659228Y-60069917D01*
X61659228Y-60057593D01*
X61667943Y-60048878D01*
X61680267Y-60048878D01*
X61685492Y-60052368D01*
G37*
G36*
X61815271Y-59860077D02*
G01*
X63599840Y-61644647D01*
X63603330Y-61649871D01*
X63603330Y-61662196D01*
X63594616Y-61670910D01*
X63582291Y-61670910D01*
X63577067Y-61667420D01*
X61792497Y-59882851D01*
X61789007Y-59877626D01*
X61789007Y-59865302D01*
X61797722Y-59856587D01*
X61810046Y-59856587D01*
X61815271Y-59860077D01*
G37*
G36*
X61939752Y-59662488D02*
G01*
X63775971Y-61498708D01*
X63779462Y-61503932D01*
X63779462Y-61516257D01*
X63770747Y-61524972D01*
X63758422Y-61524972D01*
X63753198Y-61521481D01*
X61916978Y-59685262D01*
X61913488Y-59680037D01*
X61913488Y-59667713D01*
X61922203Y-59658998D01*
X61934527Y-59658998D01*
X61939752Y-59662488D01*
G37*
G36*
X62064232Y-59464898D02*
G01*
X63952103Y-61352770D01*
X63955593Y-61357994D01*
X63955593Y-61370319D01*
X63946879Y-61379033D01*
X63934554Y-61379033D01*
X63929330Y-61375543D01*
X62041458Y-59487672D01*
X62037968Y-59482447D01*
X62037968Y-59470123D01*
X62046683Y-59461408D01*
X62059007Y-59461408D01*
X62064232Y-59464898D01*
G37*
G36*
X62188711Y-59267307D02*
G01*
X64128234Y-61206831D01*
X64131725Y-61212055D01*
X64131725Y-61224380D01*
X64123010Y-61233095D01*
X64110685Y-61233095D01*
X64105461Y-61229604D01*
X62165937Y-59290081D01*
X62162447Y-59284856D01*
X62162447Y-59272532D01*
X62171162Y-59263817D01*
X62183486Y-59263817D01*
X62188711Y-59267307D01*
G37*
G36*
X62298063Y-59054589D02*
G01*
X64304366Y-61060893D01*
X64307857Y-61066117D01*
X64307857Y-61078442D01*
X64299142Y-61087157D01*
X64286817Y-61087157D01*
X64281593Y-61083666D01*
X62275289Y-59077363D01*
X62271799Y-59072138D01*
X62271799Y-59059814D01*
X62280514Y-59051099D01*
X62292838Y-59051099D01*
X62298063Y-59054589D01*
G37*
G36*
X62408842Y-58843298D02*
G01*
X64480498Y-60914955D01*
X64483989Y-60920179D01*
X64483989Y-60932504D01*
X64475274Y-60941219D01*
X64462949Y-60941219D01*
X64457725Y-60937728D01*
X62386068Y-58866072D01*
X62382578Y-58860847D01*
X62382578Y-58848523D01*
X62391293Y-58839808D01*
X62403617Y-58839808D01*
X62408842Y-58843298D01*
G37*
G36*
X62519621Y-58632007D02*
G01*
X64601880Y-60714267D01*
X64605370Y-60719491D01*
X64605370Y-60731815D01*
X64596655Y-60740530D01*
X64584331Y-60740530D01*
X64579107Y-60737040D01*
X62496847Y-58654781D01*
X62493357Y-58649556D01*
X62493357Y-58637232D01*
X62502072Y-58628517D01*
X62514396Y-58628517D01*
X62519621Y-58632007D01*
G37*
G36*
X62598376Y-58388692D02*
G01*
X64674256Y-60464573D01*
X64677746Y-60469797D01*
X64677746Y-60482122D01*
X64669032Y-60490836D01*
X64656707Y-60490836D01*
X64651483Y-60487346D01*
X62575602Y-58411466D01*
X62572112Y-58406241D01*
X62572112Y-58393917D01*
X62580827Y-58385202D01*
X62593151Y-58385202D01*
X62598376Y-58388692D01*
G37*
G36*
X65134443Y-60280619D02*
G01*
X65172034Y-60318211D01*
X65175524Y-60323435D01*
X65175524Y-60335760D01*
X65166810Y-60344474D01*
X65154485Y-60344474D01*
X65149261Y-60340984D01*
X65111669Y-60303393D01*
X65108179Y-60298168D01*
X65108179Y-60285844D01*
X65116894Y-60277129D01*
X65129218Y-60277129D01*
X65134443Y-60280619D01*
G37*
G36*
X62656927Y-58125173D02*
G01*
X64746631Y-60214878D01*
X64750122Y-60220102D01*
X64750122Y-60232427D01*
X64741407Y-60241142D01*
X64729082Y-60241142D01*
X64723858Y-60237651D01*
X62634153Y-58147947D01*
X62630663Y-58142722D01*
X62630663Y-58130398D01*
X62639378Y-58121683D01*
X62651702Y-58121683D01*
X62656927Y-58125173D01*
G37*
G36*
X65211814Y-60035920D02*
G01*
X65319649Y-60143756D01*
X65323139Y-60148980D01*
X65323139Y-60161305D01*
X65314425Y-60170019D01*
X65302100Y-60170019D01*
X65296876Y-60166529D01*
X65189040Y-60058694D01*
X65185550Y-60053469D01*
X65185550Y-60041145D01*
X65194265Y-60032430D01*
X65206589Y-60032430D01*
X65211814Y-60035920D01*
G37*
G36*
X65324613Y-59826649D02*
G01*
X65467264Y-59969300D01*
X65470754Y-59974525D01*
X65470754Y-59986849D01*
X65462039Y-59995564D01*
X65449715Y-59995564D01*
X65444490Y-59992074D01*
X65301839Y-59849423D01*
X65298349Y-59844198D01*
X65298349Y-59831874D01*
X65307064Y-59823159D01*
X65319388Y-59823159D01*
X65324613Y-59826649D01*
G37*
G36*
X62784510Y-57930686D02*
G01*
X64810561Y-59956738D01*
X64814051Y-59961962D01*
X64814051Y-59974287D01*
X64805337Y-59983001D01*
X64793012Y-59983001D01*
X64787788Y-59979511D01*
X62761736Y-57953460D01*
X62758246Y-57948235D01*
X62758246Y-57935911D01*
X62766961Y-57927196D01*
X62779285Y-57927196D01*
X62784510Y-57930686D01*
G37*
G36*
X65048884Y-59228850D02*
G01*
X65614879Y-59794846D01*
X65618370Y-59800070D01*
X65618370Y-59812395D01*
X65609655Y-59821110D01*
X65597330Y-59821110D01*
X65592106Y-59817619D01*
X65026110Y-59251624D01*
X65022620Y-59246399D01*
X65022620Y-59234075D01*
X65031335Y-59225360D01*
X65043659Y-59225360D01*
X65048884Y-59228850D01*
G37*
G36*
X62986211Y-57810317D02*
G01*
X64923359Y-59747465D01*
X64926849Y-59752690D01*
X64926849Y-59765014D01*
X64918134Y-59773729D01*
X64905810Y-59773729D01*
X64900585Y-59770239D01*
X62963437Y-57833091D01*
X62959947Y-57827866D01*
X62959947Y-57815542D01*
X62968662Y-57806827D01*
X62980986Y-57806827D01*
X62986211Y-57810317D01*
G37*
G36*
X65611070Y-59468966D02*
G01*
X65762494Y-59620391D01*
X65765985Y-59625615D01*
X65765985Y-59637940D01*
X65757270Y-59646655D01*
X65744945Y-59646655D01*
X65739721Y-59643164D01*
X65588296Y-59491740D01*
X65584806Y-59486515D01*
X65584806Y-59474191D01*
X65593521Y-59465476D01*
X65605845Y-59465476D01*
X65611070Y-59468966D01*
G37*
G36*
X64353627Y-58855663D02*
G01*
X65036156Y-59538193D01*
X65039647Y-59543417D01*
X65039647Y-59555742D01*
X65030932Y-59564457D01*
X65018607Y-59564457D01*
X65013383Y-59560966D01*
X64330853Y-58878437D01*
X64327363Y-58873212D01*
X64327363Y-58860888D01*
X64336078Y-58852173D01*
X64348402Y-58852173D01*
X64353627Y-58855663D01*
G37*
G36*
X65802042Y-59337868D02*
G01*
X65910109Y-59445936D01*
X65913600Y-59451160D01*
X65913600Y-59463485D01*
X65904885Y-59472200D01*
X65892560Y-59472200D01*
X65887336Y-59468709D01*
X65779268Y-59360642D01*
X65775778Y-59355417D01*
X65775778Y-59343093D01*
X65784493Y-59334378D01*
X65796817Y-59334378D01*
X65802042Y-59337868D01*
G37*
G36*
X66034154Y-59247910D02*
G01*
X66057726Y-59271483D01*
X66061216Y-59276707D01*
X66061216Y-59289032D01*
X66052502Y-59297746D01*
X66040177Y-59297746D01*
X66034953Y-59294256D01*
X66011380Y-59270684D01*
X66007890Y-59265459D01*
X66007890Y-59253135D01*
X66016605Y-59244420D01*
X66028929Y-59244420D01*
X66034154Y-59247910D01*
G37*
G36*
X63575691Y-57433587D02*
G01*
X65330010Y-59187907D01*
X65333501Y-59193131D01*
X65333501Y-59205456D01*
X65324786Y-59214171D01*
X65312461Y-59214171D01*
X65307237Y-59210680D01*
X63552917Y-57456361D01*
X63549427Y-57451136D01*
X63549427Y-57438812D01*
X63558142Y-57430097D01*
X63570466Y-57430097D01*
X63575691Y-57433587D01*
G37*
G36*
X63748687Y-57284513D02*
G01*
X65520983Y-59056809D01*
X65524473Y-59062034D01*
X65524473Y-59074358D01*
X65515758Y-59083073D01*
X65503434Y-59083073D01*
X65498209Y-59079583D01*
X63725913Y-57307287D01*
X63722423Y-57302062D01*
X63722423Y-57289738D01*
X63731138Y-57281023D01*
X63743462Y-57281023D01*
X63748687Y-57284513D01*
G37*
G36*
X63921683Y-57135439D02*
G01*
X65711955Y-58925712D01*
X65715446Y-58930936D01*
X65715446Y-58943261D01*
X65706731Y-58951976D01*
X65694406Y-58951976D01*
X65689182Y-58948485D01*
X63898909Y-57158213D01*
X63895419Y-57152988D01*
X63895419Y-57140664D01*
X63904134Y-57131949D01*
X63916458Y-57131949D01*
X63921683Y-57135439D01*
G37*
G36*
X64094678Y-56986364D02*
G01*
X65968235Y-58859922D01*
X65971725Y-58865146D01*
X65971725Y-58877471D01*
X65963011Y-58886185D01*
X65950686Y-58886185D01*
X65945462Y-58882695D01*
X64071904Y-57009138D01*
X64068414Y-57003913D01*
X64068414Y-56991589D01*
X64077129Y-56982874D01*
X64089453Y-56982874D01*
X64094678Y-56986364D01*
G37*
G36*
X64242756Y-56812372D02*
G01*
X66216923Y-58786540D01*
X66220413Y-58791764D01*
X66220413Y-58804089D01*
X66211699Y-58812803D01*
X66199374Y-58812803D01*
X66194150Y-58809313D01*
X64219982Y-56835146D01*
X64216492Y-56829921D01*
X64216492Y-56817597D01*
X64225207Y-56808882D01*
X64237531Y-56808882D01*
X64242756Y-56812372D01*
G37*
G36*
X64376301Y-56623847D02*
G01*
X66465609Y-58713156D01*
X66469100Y-58718380D01*
X66469100Y-58730705D01*
X66460385Y-58739420D01*
X66448060Y-58739420D01*
X66442836Y-58735929D01*
X64353527Y-56646621D01*
X64350037Y-56641396D01*
X64350037Y-56629072D01*
X64358752Y-56620357D01*
X64371076Y-56620357D01*
X64376301Y-56623847D01*
G37*
G36*
X64516132Y-56441608D02*
G01*
X66636574Y-58562051D01*
X66640064Y-58567275D01*
X66640064Y-58579600D01*
X66631350Y-58588314D01*
X66619025Y-58588314D01*
X66613801Y-58584824D01*
X64493358Y-56464382D01*
X64489868Y-56459157D01*
X64489868Y-56446833D01*
X64498583Y-56438118D01*
X64510907Y-56438118D01*
X64516132Y-56441608D01*
G37*
G36*
X64614898Y-56218304D02*
G01*
X66752875Y-58356282D01*
X66756365Y-58361506D01*
X66756365Y-58373831D01*
X66747651Y-58382545D01*
X66735326Y-58382545D01*
X66730102Y-58379055D01*
X64592124Y-56241078D01*
X64588634Y-56235853D01*
X64588634Y-56223529D01*
X64597349Y-56214814D01*
X64609673Y-56214814D01*
X64614898Y-56218304D01*
G37*
G36*
X64713665Y-55995001D02*
G01*
X66869178Y-58150515D01*
X66872668Y-58155739D01*
X66872668Y-58168064D01*
X66863954Y-58176778D01*
X66851629Y-58176778D01*
X66846405Y-58173288D01*
X64690891Y-56017775D01*
X64687401Y-56012550D01*
X64687401Y-56000226D01*
X64696116Y-55991511D01*
X64708440Y-55991511D01*
X64713665Y-55995001D01*
G37*
G36*
X64812432Y-55771698D02*
G01*
X66985480Y-57944746D01*
X66988970Y-57949971D01*
X66988970Y-57962295D01*
X66980255Y-57971010D01*
X66967931Y-57971010D01*
X66962706Y-57967520D01*
X64789658Y-55794472D01*
X64786168Y-55789247D01*
X64786168Y-55776923D01*
X64794883Y-55768208D01*
X64807207Y-55768208D01*
X64812432Y-55771698D01*
G37*
G36*
X65055248Y-55692444D02*
G01*
X67101781Y-57738978D01*
X67105272Y-57744202D01*
X67105272Y-57756527D01*
X67096557Y-57765242D01*
X67084232Y-57765242D01*
X67079008Y-57761751D01*
X65032474Y-55715218D01*
X65028984Y-55709993D01*
X65028984Y-55697669D01*
X65037699Y-55688954D01*
X65050023Y-55688954D01*
X65055248Y-55692444D01*
G37*
G36*
X65317581Y-55632707D02*
G01*
X67218085Y-57533212D01*
X67221575Y-57538436D01*
X67221575Y-57550761D01*
X67212861Y-57559475D01*
X67200536Y-57559475D01*
X67195312Y-57555985D01*
X65294807Y-55655481D01*
X65291317Y-55650256D01*
X65291317Y-55637932D01*
X65300032Y-55629217D01*
X65312356Y-55629217D01*
X65317581Y-55632707D01*
G37*
G36*
X65581094Y-55574150D02*
G01*
X67334387Y-57327444D01*
X67337877Y-57332668D01*
X67337877Y-57344993D01*
X67329163Y-57353707D01*
X67316838Y-57353707D01*
X67311614Y-57350217D01*
X65558320Y-55596924D01*
X65554830Y-55591699D01*
X65554830Y-55579375D01*
X65563545Y-55570660D01*
X65575869Y-55570660D01*
X65581094Y-55574150D01*
G37*
G36*
X65847114Y-55518100D02*
G01*
X67450689Y-57121676D01*
X67454179Y-57126900D01*
X67454179Y-57139225D01*
X67445465Y-57147939D01*
X67433140Y-57147939D01*
X67427916Y-57144449D01*
X65824340Y-55540874D01*
X65820850Y-55535649D01*
X65820850Y-55523325D01*
X65829565Y-55514610D01*
X65841889Y-55514610D01*
X65847114Y-55518100D01*
G37*
G36*
X66053353Y-55402269D02*
G01*
X67540153Y-56889070D01*
X67543644Y-56894294D01*
X67543644Y-56906619D01*
X67534929Y-56915334D01*
X67522604Y-56915334D01*
X67517380Y-56911843D01*
X66030579Y-55425043D01*
X66027089Y-55419818D01*
X66027089Y-55407494D01*
X66035804Y-55398779D01*
X66048128Y-55398779D01*
X66053353Y-55402269D01*
G37*
G36*
X66259593Y-55286439D02*
G01*
X67624505Y-56651352D01*
X67627995Y-56656576D01*
X67627995Y-56668901D01*
X67619281Y-56677615D01*
X67606956Y-56677615D01*
X67601732Y-56674125D01*
X66236819Y-55309213D01*
X66233329Y-55303988D01*
X66233329Y-55291664D01*
X66242044Y-55282949D01*
X66254368Y-55282949D01*
X66259593Y-55286439D01*
G37*
G36*
X66457700Y-55162476D02*
G01*
X67708859Y-56413635D01*
X67712349Y-56418860D01*
X67712349Y-56431184D01*
X67703634Y-56439899D01*
X67691310Y-56439899D01*
X67686085Y-56436409D01*
X66434926Y-55185250D01*
X66431436Y-55180025D01*
X66431436Y-55167701D01*
X66440151Y-55158986D01*
X66452475Y-55158986D01*
X66457700Y-55162476D01*
G37*
G36*
X66621852Y-55004558D02*
G01*
X67793211Y-56175918D01*
X67796701Y-56181142D01*
X67796701Y-56193467D01*
X67787987Y-56202181D01*
X67775662Y-56202181D01*
X67770438Y-56198691D01*
X66599078Y-55027332D01*
X66595588Y-55022107D01*
X66595588Y-55009783D01*
X66604303Y-55001068D01*
X66616627Y-55001068D01*
X66621852Y-55004558D01*
G37*
G36*
X66789637Y-54850273D02*
G01*
X67877563Y-55938200D01*
X67881053Y-55943424D01*
X67881053Y-55955749D01*
X67872339Y-55964463D01*
X67860014Y-55964463D01*
X67854790Y-55960973D01*
X66766863Y-54873047D01*
X66763373Y-54867822D01*
X66763373Y-54855498D01*
X66772088Y-54846783D01*
X66784412Y-54846783D01*
X66789637Y-54850273D01*
G37*
G36*
X66957421Y-54695987D02*
G01*
X67961915Y-55700481D01*
X67965405Y-55705706D01*
X67965405Y-55718030D01*
X67956690Y-55726745D01*
X67944366Y-55726745D01*
X67939141Y-55723255D01*
X66934647Y-54718761D01*
X66931157Y-54713536D01*
X66931157Y-54701212D01*
X66939872Y-54692497D01*
X66952196Y-54692497D01*
X66957421Y-54695987D01*
G37*
G36*
X67418297Y-54834793D02*
G01*
X68046267Y-55462764D01*
X68049757Y-55467988D01*
X68049757Y-55480313D01*
X68041043Y-55489027D01*
X68028718Y-55489027D01*
X68023494Y-55485537D01*
X67395523Y-54857567D01*
X67392033Y-54852342D01*
X67392033Y-54840018D01*
X67400748Y-54831303D01*
X67413072Y-54831303D01*
X67418297Y-54834793D01*
G37*
G36*
X68037839Y-55132265D02*
G01*
X68130619Y-55225046D01*
X68134110Y-55230270D01*
X68134110Y-55242595D01*
X68125395Y-55251310D01*
X68113070Y-55251310D01*
X68107846Y-55247819D01*
X68015065Y-55155039D01*
X68011575Y-55149814D01*
X68011575Y-55137490D01*
X68020290Y-55128775D01*
X68032614Y-55128775D01*
X68037839Y-55132265D01*
G37*
G36*
X67116378Y-54532874D02*
G01*
X67325060Y-54741557D01*
X67328551Y-54746781D01*
X67328551Y-54759106D01*
X67319836Y-54767821D01*
X67307511Y-54767821D01*
X67302287Y-54764330D01*
X67093604Y-54555648D01*
X67090114Y-54550423D01*
X67090114Y-54538099D01*
X67098829Y-54529384D01*
X67111153Y-54529384D01*
X67116378Y-54532874D01*
G37*
D16*
X57164285Y-48468471D02*
X57975118Y-48001210D01*
X58263715Y-46077203D01*
X59191364Y-46537601D01*
X59308183Y-46405033D01*
X59576161Y-46530716D01*
X59576161Y-46166531D01*
X59802924Y-46166530D01*
X60022818Y-46420778D01*
X59857888Y-46997977D01*
X59857888Y-47520230D01*
X60139625Y-47891267D01*
X60510676Y-48200469D01*
X60551909Y-45926033D01*
X60352639Y-45170176D01*
X60022818Y-44840345D01*
X59541803Y-44709794D01*
X58744713Y-44696048D01*
X58552317Y-44922801D01*
X58133156Y-44922801D01*
X57841423Y-45256136D01*
X57494093Y-46111557D01*
X57164285Y-47911881D01*
X57164285Y-48468471D01*
G36*
X59541803Y-44709794D02*
G01*
X60022818Y-44840345D01*
X60352639Y-45170176D01*
X60551909Y-45926033D01*
X60510676Y-48200469D01*
X60139625Y-47891267D01*
X59857888Y-47520230D01*
X59857888Y-46997977D01*
X60022818Y-46420778D01*
X59802924Y-46166530D01*
X59576161Y-46166531D01*
X59576161Y-46530716D01*
X59308183Y-46405033D01*
X59191364Y-46537601D01*
X58263715Y-46077203D01*
X57975118Y-48001210D01*
X57164285Y-48468471D01*
X57164285Y-47911881D01*
X57494093Y-46111557D01*
X57841423Y-45256136D01*
X58133156Y-44922801D01*
X58552317Y-44922801D01*
X58744713Y-44696048D01*
X59541803Y-44709794D01*
G37*
D17*
X51557171Y-64671373D02*
X51625884Y-64946231D01*
X51625884Y-64946231D02*
X52106891Y-65221099D01*
X51832021Y-64396512D02*
X51557171Y-64671373D01*
X52106891Y-65221099D02*
X52862730Y-65633375D01*
X52519171Y-63915518D02*
X51832021Y-64396512D01*
X52862730Y-65633375D02*
X54030900Y-65908243D01*
X54030900Y-65908243D02*
X57672762Y-65908243D01*
X55680049Y-63984232D02*
X52519171Y-63915518D01*
X56745129Y-56040840D02*
X57947626Y-51148335D01*
X56745129Y-56831034D02*
X56745129Y-56040840D01*
X56745129Y-56831034D02*
X57782708Y-58061026D01*
X56848186Y-54357311D02*
X56848186Y-55491108D01*
X56916920Y-63778084D02*
X55680049Y-63984232D01*
X56916920Y-63778084D02*
X57810195Y-63640662D01*
X57164285Y-47911881D02*
X57164285Y-48468471D01*
X57164285Y-48468471D02*
X56848186Y-54357311D01*
X57164285Y-48468471D02*
X57975118Y-48001210D01*
X57672762Y-65908243D02*
X59184487Y-66045671D01*
X57789579Y-65592151D02*
X57817065Y-64946231D01*
X57817065Y-63681892D02*
X57947626Y-61915922D01*
X57817065Y-64946231D02*
X58064436Y-64355283D01*
X57947626Y-51148335D02*
X58140023Y-50344386D01*
X57947626Y-61915922D02*
X57782708Y-58061026D01*
X57975118Y-48001210D02*
X58263715Y-46077203D01*
X58043824Y-64307187D02*
X57810195Y-63640662D01*
X58140023Y-50344386D02*
X58462985Y-51065872D01*
X58263715Y-46077203D02*
X58462985Y-47004856D01*
X58394272Y-48001210D02*
X57892658Y-48001210D01*
X58462985Y-47004856D02*
X58710356Y-47286589D01*
X58462985Y-51065872D02*
X58902767Y-51608729D01*
X58607274Y-64369031D02*
X58882148Y-65296674D01*
X58607278Y-61751008D02*
X58737848Y-62149546D01*
X58634757Y-65860144D02*
X57789579Y-65592151D01*
X58682872Y-46303964D02*
X58263715Y-46077203D01*
X58682871Y-60679051D02*
X58607278Y-61751008D01*
X58710356Y-47286589D02*
X58799689Y-47664512D01*
X58737848Y-62149546D02*
X58737847Y-63145902D01*
X58737847Y-63145902D02*
X58847771Y-63613160D01*
X58744713Y-44696048D02*
X58552317Y-44922801D01*
X58847771Y-63613160D02*
X58847771Y-64162891D01*
X58847771Y-64162891D02*
X58607274Y-64369031D01*
X58882148Y-65296674D02*
X58634757Y-65860144D01*
X58889026Y-58459574D02*
X57782708Y-58061026D01*
X58889026Y-58459574D02*
X58682871Y-60679051D01*
X58889026Y-58459574D02*
X59761687Y-58432093D01*
X58902766Y-46001622D02*
X59260071Y-46372678D01*
X58902767Y-51608729D02*
X59596773Y-51436936D01*
X58909640Y-63434504D02*
X60352639Y-63503244D01*
X59184487Y-66045671D02*
X60833633Y-66114384D01*
X59191364Y-46537601D02*
X58682872Y-46303964D01*
X59301296Y-46372678D02*
X59205102Y-45871064D01*
X59308183Y-46420778D02*
X59191364Y-46537601D01*
X59328790Y-44696048D02*
X58744713Y-44696048D01*
X59328790Y-44696048D02*
X59541803Y-44709794D01*
X59541803Y-44709794D02*
X60022818Y-44840345D01*
X59555549Y-46565078D02*
X59301296Y-46372678D01*
X59576161Y-46166531D02*
X59576161Y-46530716D01*
X59596773Y-51436936D02*
X60139625Y-50612372D01*
X59617386Y-47375903D02*
X59857887Y-47162895D01*
X59699852Y-44462408D02*
X59541803Y-44709794D01*
X59761687Y-58432093D02*
X60764925Y-57799911D01*
X59802924Y-46166530D02*
X59576161Y-46166531D01*
X59857888Y-46997977D02*
X60022818Y-46420778D01*
X59857888Y-47520230D02*
X59857888Y-46997977D01*
X59960954Y-44462408D02*
X59734207Y-44462409D01*
X59960954Y-44462408D02*
X60428232Y-44757886D01*
X60022818Y-44840345D02*
X60352639Y-45170176D01*
X60022818Y-46420778D02*
X59802924Y-46166530D01*
X60139625Y-47891267D02*
X59857888Y-47520230D01*
X60139625Y-50612372D02*
X60139625Y-51643090D01*
X60139625Y-51643090D02*
X60441963Y-52673816D01*
X60352639Y-45170176D02*
X60551909Y-45926033D01*
X60352639Y-63503244D02*
X60448843Y-63503244D01*
X60428232Y-44757886D02*
X61170345Y-45431289D01*
X60428232Y-64190373D02*
X60764925Y-64341537D01*
X60441963Y-52673816D02*
X60813017Y-53594584D01*
X60510676Y-48200469D02*
X60139625Y-47891267D01*
X60517545Y-63441380D02*
X60428232Y-64190373D01*
X60551909Y-45926033D02*
X60510676Y-48200469D01*
X60551911Y-62623680D02*
X60675604Y-61867821D01*
X60558779Y-46805579D02*
X60751184Y-46675021D01*
X60634363Y-61063848D02*
X59761687Y-58432093D01*
X60675604Y-61867821D02*
X60634363Y-61063848D01*
X60682461Y-62795466D02*
X60517545Y-63441380D01*
X60682461Y-62795466D02*
X60551911Y-62623680D01*
X60703079Y-48386022D02*
X60558779Y-46805579D01*
X60751184Y-46675021D02*
X60840500Y-46310826D01*
X60764925Y-57799911D02*
X61177202Y-60204930D01*
X60764925Y-57799911D02*
X61314655Y-57057799D01*
X60764925Y-64341537D02*
X61960559Y-64733219D01*
X60813017Y-53594584D02*
X61108513Y-51148336D01*
X60833633Y-66114384D02*
X62070509Y-66114384D01*
X60840500Y-46310826D02*
X60840500Y-46784972D01*
X60840500Y-46784972D02*
X61115362Y-46716248D01*
X61108513Y-51148336D02*
X61190952Y-48908253D01*
X61115362Y-46716248D02*
X61390229Y-46118437D01*
X61177202Y-60204930D02*
X61520795Y-61304354D01*
X61190952Y-48908253D02*
X60703079Y-48386022D01*
X61245931Y-55573563D02*
X64881595Y-59120239D01*
X61314655Y-57057799D02*
X60813017Y-53594584D01*
X61390229Y-46118437D02*
X61816257Y-45685532D01*
X61438331Y-45431289D02*
X61170345Y-45431289D01*
X61486427Y-63681892D02*
X61486427Y-62891665D01*
X61520795Y-61304354D02*
X61658214Y-62073966D01*
X61562007Y-59888840D02*
X61177202Y-60232404D01*
X61623855Y-62541224D02*
X62826369Y-62541224D01*
X61658214Y-62073966D02*
X61486427Y-62891665D01*
X61816257Y-45685532D02*
X61953679Y-45225148D01*
X61857491Y-63970485D02*
X61486427Y-63681892D01*
X61953679Y-45225148D02*
X61438331Y-45431289D01*
X61960559Y-64733219D02*
X62551504Y-64396512D01*
X61994907Y-59201685D02*
X61562007Y-59888840D01*
X62365981Y-58493928D02*
X61994907Y-59201685D01*
X62503389Y-57875505D02*
X62365981Y-58493928D01*
X62551504Y-63571936D02*
X63032492Y-63503244D01*
X62551504Y-64396512D02*
X61857491Y-63970485D01*
X62585855Y-63571936D02*
X61486427Y-63681892D01*
X62826369Y-62541224D02*
X65231370Y-60548504D01*
X62963796Y-65976945D02*
X62070509Y-66114384D01*
X62963796Y-65976945D02*
X63857087Y-65976945D01*
X63355466Y-57367008D02*
X62503389Y-57875505D01*
X63857087Y-65976945D02*
X65918512Y-65976945D01*
X64001376Y-56810413D02*
X63355466Y-57367008D01*
X64200654Y-63571934D02*
X63032492Y-63503244D01*
X64351826Y-56315687D02*
X64001376Y-56810413D01*
X64667909Y-55601051D02*
X64351826Y-56315687D01*
X65004617Y-59998780D02*
X64729757Y-60947038D01*
X65032096Y-55504846D02*
X64667909Y-55601051D01*
X65171460Y-59689241D02*
X65004617Y-59998780D01*
X65231370Y-60548504D02*
X66743097Y-58761919D01*
X65450607Y-59345690D02*
X65760476Y-59132974D01*
X65712368Y-64121646D02*
X64200654Y-63571934D01*
X65760476Y-59132974D02*
X66598786Y-58885606D01*
X65774220Y-55339934D02*
X65032096Y-55504846D01*
X65918512Y-65976945D02*
X67155383Y-65427240D01*
X66275835Y-55058211D02*
X65774220Y-55339934D01*
X66743097Y-58761919D02*
X67636376Y-57181483D01*
X66873652Y-54508493D02*
X66275835Y-55058211D01*
X66880529Y-64327812D02*
X65712368Y-64121646D01*
X67141634Y-54213008D02*
X66873652Y-54508493D01*
X67155383Y-64465235D02*
X66880529Y-64327812D01*
X67155383Y-65427240D02*
X67567671Y-64877520D01*
X67492071Y-54659649D02*
X67141634Y-54213008D01*
X67567671Y-64877520D02*
X67155383Y-64465235D01*
X67636376Y-57181483D02*
X68392241Y-55051335D01*
X67966214Y-54948263D02*
X67492071Y-54659649D01*
X67966214Y-54948263D02*
X68151757Y-54948260D01*
X68392241Y-54845195D02*
X68151757Y-54948260D01*
X68392241Y-55051335D02*
X68392241Y-54845195D01*
D18*
X57204404Y-29072712D02*
X58004404Y-29072712D01*
X58004404Y-29072712D02*
X58004404Y-29263188D01*
X58004404Y-29263188D02*
X57966309Y-29377474D01*
X57966309Y-29377474D02*
X57890119Y-29453664D01*
X57890119Y-29453664D02*
X57813928Y-29491759D01*
X57813928Y-29491759D02*
X57661547Y-29529855D01*
X57661547Y-29529855D02*
X57547261Y-29529855D01*
X57547261Y-29529855D02*
X57394880Y-29491759D01*
X57394880Y-29491759D02*
X57318690Y-29453664D01*
X57318690Y-29453664D02*
X57242500Y-29377474D01*
X57242500Y-29377474D02*
X57204404Y-29263188D01*
X57204404Y-29263188D02*
X57204404Y-29072712D01*
X57623452Y-30139378D02*
X57585357Y-30253664D01*
X57585357Y-30253664D02*
X57547261Y-30291759D01*
X57547261Y-30291759D02*
X57471071Y-30329855D01*
X57471071Y-30329855D02*
X57356785Y-30329855D01*
X57356785Y-30329855D02*
X57280595Y-30291759D01*
X57280595Y-30291759D02*
X57242500Y-30253664D01*
X57242500Y-30253664D02*
X57204404Y-30177474D01*
X57204404Y-30177474D02*
X57204404Y-29872712D01*
X57204404Y-29872712D02*
X58004404Y-29872712D01*
X58004404Y-29872712D02*
X58004404Y-30139378D01*
X58004404Y-30139378D02*
X57966309Y-30215569D01*
X57966309Y-30215569D02*
X57928214Y-30253664D01*
X57928214Y-30253664D02*
X57852023Y-30291759D01*
X57852023Y-30291759D02*
X57775833Y-30291759D01*
X57775833Y-30291759D02*
X57699642Y-30253664D01*
X57699642Y-30253664D02*
X57661547Y-30215569D01*
X57661547Y-30215569D02*
X57623452Y-30139378D01*
X57623452Y-30139378D02*
X57623452Y-29872712D01*
X57966309Y-31091759D02*
X58004404Y-31015569D01*
X58004404Y-31015569D02*
X58004404Y-30901283D01*
X58004404Y-30901283D02*
X57966309Y-30786997D01*
X57966309Y-30786997D02*
X57890119Y-30710807D01*
X57890119Y-30710807D02*
X57813928Y-30672712D01*
X57813928Y-30672712D02*
X57661547Y-30634616D01*
X57661547Y-30634616D02*
X57547261Y-30634616D01*
X57547261Y-30634616D02*
X57394880Y-30672712D01*
X57394880Y-30672712D02*
X57318690Y-30710807D01*
X57318690Y-30710807D02*
X57242500Y-30786997D01*
X57242500Y-30786997D02*
X57204404Y-30901283D01*
X57204404Y-30901283D02*
X57204404Y-30977474D01*
X57204404Y-30977474D02*
X57242500Y-31091759D01*
X57242500Y-31091759D02*
X57280595Y-31129855D01*
X57280595Y-31129855D02*
X57547261Y-31129855D01*
X57547261Y-31129855D02*
X57547261Y-30977474D01*
X57128214Y-31282236D02*
X57128214Y-31891759D01*
X57204404Y-32539379D02*
X57585357Y-32272712D01*
X57204404Y-32082236D02*
X58004404Y-32082236D01*
X58004404Y-32082236D02*
X58004404Y-32386998D01*
X58004404Y-32386998D02*
X57966309Y-32463188D01*
X57966309Y-32463188D02*
X57928214Y-32501283D01*
X57928214Y-32501283D02*
X57852023Y-32539379D01*
X57852023Y-32539379D02*
X57737738Y-32539379D01*
X57737738Y-32539379D02*
X57661547Y-32501283D01*
X57661547Y-32501283D02*
X57623452Y-32463188D01*
X57623452Y-32463188D02*
X57585357Y-32386998D01*
X57585357Y-32386998D02*
X57585357Y-32082236D01*
X58004404Y-32806045D02*
X57204404Y-33339379D01*
X58004404Y-33339379D02*
X57204404Y-32806045D01*
X59304404Y-29072712D02*
X60104404Y-29072712D01*
X60104404Y-29072712D02*
X60104404Y-29263188D01*
X60104404Y-29263188D02*
X60066309Y-29377474D01*
X60066309Y-29377474D02*
X59990119Y-29453664D01*
X59990119Y-29453664D02*
X59913928Y-29491759D01*
X59913928Y-29491759D02*
X59761547Y-29529855D01*
X59761547Y-29529855D02*
X59647261Y-29529855D01*
X59647261Y-29529855D02*
X59494880Y-29491759D01*
X59494880Y-29491759D02*
X59418690Y-29453664D01*
X59418690Y-29453664D02*
X59342500Y-29377474D01*
X59342500Y-29377474D02*
X59304404Y-29263188D01*
X59304404Y-29263188D02*
X59304404Y-29072712D01*
X59723452Y-30139378D02*
X59685357Y-30253664D01*
X59685357Y-30253664D02*
X59647261Y-30291759D01*
X59647261Y-30291759D02*
X59571071Y-30329855D01*
X59571071Y-30329855D02*
X59456785Y-30329855D01*
X59456785Y-30329855D02*
X59380595Y-30291759D01*
X59380595Y-30291759D02*
X59342500Y-30253664D01*
X59342500Y-30253664D02*
X59304404Y-30177474D01*
X59304404Y-30177474D02*
X59304404Y-29872712D01*
X59304404Y-29872712D02*
X60104404Y-29872712D01*
X60104404Y-29872712D02*
X60104404Y-30139378D01*
X60104404Y-30139378D02*
X60066309Y-30215569D01*
X60066309Y-30215569D02*
X60028214Y-30253664D01*
X60028214Y-30253664D02*
X59952023Y-30291759D01*
X59952023Y-30291759D02*
X59875833Y-30291759D01*
X59875833Y-30291759D02*
X59799642Y-30253664D01*
X59799642Y-30253664D02*
X59761547Y-30215569D01*
X59761547Y-30215569D02*
X59723452Y-30139378D01*
X59723452Y-30139378D02*
X59723452Y-29872712D01*
X60066309Y-31091759D02*
X60104404Y-31015569D01*
X60104404Y-31015569D02*
X60104404Y-30901283D01*
X60104404Y-30901283D02*
X60066309Y-30786997D01*
X60066309Y-30786997D02*
X59990119Y-30710807D01*
X59990119Y-30710807D02*
X59913928Y-30672712D01*
X59913928Y-30672712D02*
X59761547Y-30634616D01*
X59761547Y-30634616D02*
X59647261Y-30634616D01*
X59647261Y-30634616D02*
X59494880Y-30672712D01*
X59494880Y-30672712D02*
X59418690Y-30710807D01*
X59418690Y-30710807D02*
X59342500Y-30786997D01*
X59342500Y-30786997D02*
X59304404Y-30901283D01*
X59304404Y-30901283D02*
X59304404Y-30977474D01*
X59304404Y-30977474D02*
X59342500Y-31091759D01*
X59342500Y-31091759D02*
X59380595Y-31129855D01*
X59380595Y-31129855D02*
X59647261Y-31129855D01*
X59647261Y-31129855D02*
X59647261Y-30977474D01*
X59228214Y-31282236D02*
X59228214Y-31891759D01*
X60104404Y-31967950D02*
X60104404Y-32425093D01*
X59304404Y-32196521D02*
X60104404Y-32196521D01*
X60104404Y-32615569D02*
X59304404Y-33148903D01*
X60104404Y-33148903D02*
X59304404Y-32615569D01*
X65604404Y-28872712D02*
X66404404Y-28872712D01*
X66404404Y-28872712D02*
X65604404Y-29329855D01*
X65604404Y-29329855D02*
X66404404Y-29329855D01*
X65604404Y-30167950D02*
X65985357Y-29901283D01*
X65604404Y-29710807D02*
X66404404Y-29710807D01*
X66404404Y-29710807D02*
X66404404Y-30015569D01*
X66404404Y-30015569D02*
X66366309Y-30091759D01*
X66366309Y-30091759D02*
X66328214Y-30129854D01*
X66328214Y-30129854D02*
X66252023Y-30167950D01*
X66252023Y-30167950D02*
X66137738Y-30167950D01*
X66137738Y-30167950D02*
X66061547Y-30129854D01*
X66061547Y-30129854D02*
X66023452Y-30091759D01*
X66023452Y-30091759D02*
X65985357Y-30015569D01*
X65985357Y-30015569D02*
X65985357Y-29710807D01*
X65642500Y-30472711D02*
X65604404Y-30586997D01*
X65604404Y-30586997D02*
X65604404Y-30777473D01*
X65604404Y-30777473D02*
X65642500Y-30853664D01*
X65642500Y-30853664D02*
X65680595Y-30891759D01*
X65680595Y-30891759D02*
X65756785Y-30929854D01*
X65756785Y-30929854D02*
X65832976Y-30929854D01*
X65832976Y-30929854D02*
X65909166Y-30891759D01*
X65909166Y-30891759D02*
X65947261Y-30853664D01*
X65947261Y-30853664D02*
X65985357Y-30777473D01*
X65985357Y-30777473D02*
X66023452Y-30625092D01*
X66023452Y-30625092D02*
X66061547Y-30548902D01*
X66061547Y-30548902D02*
X66099642Y-30510807D01*
X66099642Y-30510807D02*
X66175833Y-30472711D01*
X66175833Y-30472711D02*
X66252023Y-30472711D01*
X66252023Y-30472711D02*
X66328214Y-30510807D01*
X66328214Y-30510807D02*
X66366309Y-30548902D01*
X66366309Y-30548902D02*
X66404404Y-30625092D01*
X66404404Y-30625092D02*
X66404404Y-30815569D01*
X66404404Y-30815569D02*
X66366309Y-30929854D01*
X66404404Y-31158426D02*
X66404404Y-31615569D01*
X65604404Y-31386997D02*
X66404404Y-31386997D01*
X69004404Y-28896521D02*
X69004404Y-29391759D01*
X69004404Y-29391759D02*
X68699642Y-29125093D01*
X68699642Y-29125093D02*
X68699642Y-29239378D01*
X68699642Y-29239378D02*
X68661547Y-29315569D01*
X68661547Y-29315569D02*
X68623452Y-29353664D01*
X68623452Y-29353664D02*
X68547261Y-29391759D01*
X68547261Y-29391759D02*
X68356785Y-29391759D01*
X68356785Y-29391759D02*
X68280595Y-29353664D01*
X68280595Y-29353664D02*
X68242500Y-29315569D01*
X68242500Y-29315569D02*
X68204404Y-29239378D01*
X68204404Y-29239378D02*
X68204404Y-29010807D01*
X68204404Y-29010807D02*
X68242500Y-28934616D01*
X68242500Y-28934616D02*
X68280595Y-28896521D01*
X69004404Y-29620331D02*
X68204404Y-29886998D01*
X68204404Y-29886998D02*
X69004404Y-30153664D01*
X69004404Y-30344140D02*
X69004404Y-30839378D01*
X69004404Y-30839378D02*
X68699642Y-30572712D01*
X68699642Y-30572712D02*
X68699642Y-30686997D01*
X68699642Y-30686997D02*
X68661547Y-30763188D01*
X68661547Y-30763188D02*
X68623452Y-30801283D01*
X68623452Y-30801283D02*
X68547261Y-30839378D01*
X68547261Y-30839378D02*
X68356785Y-30839378D01*
X68356785Y-30839378D02*
X68280595Y-30801283D01*
X68280595Y-30801283D02*
X68242500Y-30763188D01*
X68242500Y-30763188D02*
X68204404Y-30686997D01*
X68204404Y-30686997D02*
X68204404Y-30458426D01*
X68204404Y-30458426D02*
X68242500Y-30382235D01*
X68242500Y-30382235D02*
X68280595Y-30344140D01*
X71466309Y-29391759D02*
X71504404Y-29315569D01*
X71504404Y-29315569D02*
X71504404Y-29201283D01*
X71504404Y-29201283D02*
X71466309Y-29086997D01*
X71466309Y-29086997D02*
X71390119Y-29010807D01*
X71390119Y-29010807D02*
X71313928Y-28972712D01*
X71313928Y-28972712D02*
X71161547Y-28934616D01*
X71161547Y-28934616D02*
X71047261Y-28934616D01*
X71047261Y-28934616D02*
X70894880Y-28972712D01*
X70894880Y-28972712D02*
X70818690Y-29010807D01*
X70818690Y-29010807D02*
X70742500Y-29086997D01*
X70742500Y-29086997D02*
X70704404Y-29201283D01*
X70704404Y-29201283D02*
X70704404Y-29277474D01*
X70704404Y-29277474D02*
X70742500Y-29391759D01*
X70742500Y-29391759D02*
X70780595Y-29429855D01*
X70780595Y-29429855D02*
X71047261Y-29429855D01*
X71047261Y-29429855D02*
X71047261Y-29277474D01*
X70704404Y-29772712D02*
X71504404Y-29772712D01*
X71504404Y-29772712D02*
X70704404Y-30229855D01*
X70704404Y-30229855D02*
X71504404Y-30229855D01*
X70704404Y-30610807D02*
X71504404Y-30610807D01*
X71504404Y-30610807D02*
X71504404Y-30801283D01*
X71504404Y-30801283D02*
X71466309Y-30915569D01*
X71466309Y-30915569D02*
X71390119Y-30991759D01*
X71390119Y-30991759D02*
X71313928Y-31029854D01*
X71313928Y-31029854D02*
X71161547Y-31067950D01*
X71161547Y-31067950D02*
X71047261Y-31067950D01*
X71047261Y-31067950D02*
X70894880Y-31029854D01*
X70894880Y-31029854D02*
X70818690Y-30991759D01*
X70818690Y-30991759D02*
X70742500Y-30915569D01*
X70742500Y-30915569D02*
X70704404Y-30801283D01*
X70704404Y-30801283D02*
X70704404Y-30610807D01*
X73542500Y-29034616D02*
X73504404Y-29148902D01*
X73504404Y-29148902D02*
X73504404Y-29339378D01*
X73504404Y-29339378D02*
X73542500Y-29415569D01*
X73542500Y-29415569D02*
X73580595Y-29453664D01*
X73580595Y-29453664D02*
X73656785Y-29491759D01*
X73656785Y-29491759D02*
X73732976Y-29491759D01*
X73732976Y-29491759D02*
X73809166Y-29453664D01*
X73809166Y-29453664D02*
X73847261Y-29415569D01*
X73847261Y-29415569D02*
X73885357Y-29339378D01*
X73885357Y-29339378D02*
X73923452Y-29186997D01*
X73923452Y-29186997D02*
X73961547Y-29110807D01*
X73961547Y-29110807D02*
X73999642Y-29072712D01*
X73999642Y-29072712D02*
X74075833Y-29034616D01*
X74075833Y-29034616D02*
X74152023Y-29034616D01*
X74152023Y-29034616D02*
X74228214Y-29072712D01*
X74228214Y-29072712D02*
X74266309Y-29110807D01*
X74266309Y-29110807D02*
X74304404Y-29186997D01*
X74304404Y-29186997D02*
X74304404Y-29377474D01*
X74304404Y-29377474D02*
X74266309Y-29491759D01*
X74304404Y-29758426D02*
X73504404Y-29948902D01*
X73504404Y-29948902D02*
X74075833Y-30101283D01*
X74075833Y-30101283D02*
X73504404Y-30253664D01*
X73504404Y-30253664D02*
X74304404Y-30444141D01*
X73580595Y-31206046D02*
X73542500Y-31167950D01*
X73542500Y-31167950D02*
X73504404Y-31053665D01*
X73504404Y-31053665D02*
X73504404Y-30977474D01*
X73504404Y-30977474D02*
X73542500Y-30863188D01*
X73542500Y-30863188D02*
X73618690Y-30786998D01*
X73618690Y-30786998D02*
X73694880Y-30748903D01*
X73694880Y-30748903D02*
X73847261Y-30710807D01*
X73847261Y-30710807D02*
X73961547Y-30710807D01*
X73961547Y-30710807D02*
X74113928Y-30748903D01*
X74113928Y-30748903D02*
X74190119Y-30786998D01*
X74190119Y-30786998D02*
X74266309Y-30863188D01*
X74266309Y-30863188D02*
X74304404Y-30977474D01*
X74304404Y-30977474D02*
X74304404Y-31053665D01*
X74304404Y-31053665D02*
X74266309Y-31167950D01*
X74266309Y-31167950D02*
X74228214Y-31206046D01*
X73504404Y-31929855D02*
X73504404Y-31548903D01*
X73504404Y-31548903D02*
X74304404Y-31548903D01*
X73504404Y-32196522D02*
X74304404Y-32196522D01*
X73504404Y-32653665D02*
X73961547Y-32310807D01*
X74304404Y-32653665D02*
X73847261Y-32196522D01*
X76142500Y-29034616D02*
X76104404Y-29148902D01*
X76104404Y-29148902D02*
X76104404Y-29339378D01*
X76104404Y-29339378D02*
X76142500Y-29415569D01*
X76142500Y-29415569D02*
X76180595Y-29453664D01*
X76180595Y-29453664D02*
X76256785Y-29491759D01*
X76256785Y-29491759D02*
X76332976Y-29491759D01*
X76332976Y-29491759D02*
X76409166Y-29453664D01*
X76409166Y-29453664D02*
X76447261Y-29415569D01*
X76447261Y-29415569D02*
X76485357Y-29339378D01*
X76485357Y-29339378D02*
X76523452Y-29186997D01*
X76523452Y-29186997D02*
X76561547Y-29110807D01*
X76561547Y-29110807D02*
X76599642Y-29072712D01*
X76599642Y-29072712D02*
X76675833Y-29034616D01*
X76675833Y-29034616D02*
X76752023Y-29034616D01*
X76752023Y-29034616D02*
X76828214Y-29072712D01*
X76828214Y-29072712D02*
X76866309Y-29110807D01*
X76866309Y-29110807D02*
X76904404Y-29186997D01*
X76904404Y-29186997D02*
X76904404Y-29377474D01*
X76904404Y-29377474D02*
X76866309Y-29491759D01*
X76904404Y-29758426D02*
X76104404Y-29948902D01*
X76104404Y-29948902D02*
X76675833Y-30101283D01*
X76675833Y-30101283D02*
X76104404Y-30253664D01*
X76104404Y-30253664D02*
X76904404Y-30444141D01*
X76104404Y-30748903D02*
X76904404Y-30748903D01*
X76904404Y-30748903D02*
X76904404Y-30939379D01*
X76904404Y-30939379D02*
X76866309Y-31053665D01*
X76866309Y-31053665D02*
X76790119Y-31129855D01*
X76790119Y-31129855D02*
X76713928Y-31167950D01*
X76713928Y-31167950D02*
X76561547Y-31206046D01*
X76561547Y-31206046D02*
X76447261Y-31206046D01*
X76447261Y-31206046D02*
X76294880Y-31167950D01*
X76294880Y-31167950D02*
X76218690Y-31129855D01*
X76218690Y-31129855D02*
X76142500Y-31053665D01*
X76142500Y-31053665D02*
X76104404Y-30939379D01*
X76104404Y-30939379D02*
X76104404Y-30748903D01*
X76104404Y-31548903D02*
X76904404Y-31548903D01*
X76904404Y-32082236D02*
X76904404Y-32234617D01*
X76904404Y-32234617D02*
X76866309Y-32310807D01*
X76866309Y-32310807D02*
X76790119Y-32386998D01*
X76790119Y-32386998D02*
X76637738Y-32425093D01*
X76637738Y-32425093D02*
X76371071Y-32425093D01*
X76371071Y-32425093D02*
X76218690Y-32386998D01*
X76218690Y-32386998D02*
X76142500Y-32310807D01*
X76142500Y-32310807D02*
X76104404Y-32234617D01*
X76104404Y-32234617D02*
X76104404Y-32082236D01*
X76104404Y-32082236D02*
X76142500Y-32006045D01*
X76142500Y-32006045D02*
X76218690Y-31929855D01*
X76218690Y-31929855D02*
X76371071Y-31891759D01*
X76371071Y-31891759D02*
X76637738Y-31891759D01*
X76637738Y-31891759D02*
X76790119Y-31929855D01*
X76790119Y-31929855D02*
X76866309Y-32006045D01*
X76866309Y-32006045D02*
X76904404Y-32082236D01*
X36027287Y-28176500D02*
X35884430Y-28128880D01*
X35884430Y-28128880D02*
X35646335Y-28128880D01*
X35646335Y-28128880D02*
X35551097Y-28176500D01*
X35551097Y-28176500D02*
X35503478Y-28224119D01*
X35503478Y-28224119D02*
X35455859Y-28319357D01*
X35455859Y-28319357D02*
X35455859Y-28414595D01*
X35455859Y-28414595D02*
X35503478Y-28509833D01*
X35503478Y-28509833D02*
X35551097Y-28557452D01*
X35551097Y-28557452D02*
X35646335Y-28605071D01*
X35646335Y-28605071D02*
X35836811Y-28652690D01*
X35836811Y-28652690D02*
X35932049Y-28700309D01*
X35932049Y-28700309D02*
X35979668Y-28747928D01*
X35979668Y-28747928D02*
X36027287Y-28843166D01*
X36027287Y-28843166D02*
X36027287Y-28938404D01*
X36027287Y-28938404D02*
X35979668Y-29033642D01*
X35979668Y-29033642D02*
X35932049Y-29081261D01*
X35932049Y-29081261D02*
X35836811Y-29128880D01*
X35836811Y-29128880D02*
X35598716Y-29128880D01*
X35598716Y-29128880D02*
X35455859Y-29081261D01*
X34836811Y-29128880D02*
X34646335Y-29128880D01*
X34646335Y-29128880D02*
X34551097Y-29081261D01*
X34551097Y-29081261D02*
X34455859Y-28986023D01*
X34455859Y-28986023D02*
X34408240Y-28795547D01*
X34408240Y-28795547D02*
X34408240Y-28462214D01*
X34408240Y-28462214D02*
X34455859Y-28271738D01*
X34455859Y-28271738D02*
X34551097Y-28176500D01*
X34551097Y-28176500D02*
X34646335Y-28128880D01*
X34646335Y-28128880D02*
X34836811Y-28128880D01*
X34836811Y-28128880D02*
X34932049Y-28176500D01*
X34932049Y-28176500D02*
X35027287Y-28271738D01*
X35027287Y-28271738D02*
X35074906Y-28462214D01*
X35074906Y-28462214D02*
X35074906Y-28795547D01*
X35074906Y-28795547D02*
X35027287Y-28986023D01*
X35027287Y-28986023D02*
X34932049Y-29081261D01*
X34932049Y-29081261D02*
X34836811Y-29128880D01*
X33503478Y-28128880D02*
X33979668Y-28128880D01*
X33979668Y-28128880D02*
X33979668Y-29128880D01*
X33217763Y-28414595D02*
X32741573Y-28414595D01*
X33313001Y-28128880D02*
X32979668Y-29128880D01*
X32979668Y-29128880D02*
X32646335Y-28128880D01*
X31741573Y-28128880D02*
X32074906Y-28605071D01*
X32313001Y-28128880D02*
X32313001Y-29128880D01*
X32313001Y-29128880D02*
X31932049Y-29128880D01*
X31932049Y-29128880D02*
X31836811Y-29081261D01*
X31836811Y-29081261D02*
X31789192Y-29033642D01*
X31789192Y-29033642D02*
X31741573Y-28938404D01*
X31741573Y-28938404D02*
X31741573Y-28795547D01*
X31741573Y-28795547D02*
X31789192Y-28700309D01*
X31789192Y-28700309D02*
X31836811Y-28652690D01*
X31836811Y-28652690D02*
X31932049Y-28605071D01*
X31932049Y-28605071D02*
X32313001Y-28605071D01*
X45246335Y-28652690D02*
X45103478Y-28605071D01*
X45103478Y-28605071D02*
X45055859Y-28557452D01*
X45055859Y-28557452D02*
X45008240Y-28462214D01*
X45008240Y-28462214D02*
X45008240Y-28319357D01*
X45008240Y-28319357D02*
X45055859Y-28224119D01*
X45055859Y-28224119D02*
X45103478Y-28176500D01*
X45103478Y-28176500D02*
X45198716Y-28128880D01*
X45198716Y-28128880D02*
X45579668Y-28128880D01*
X45579668Y-28128880D02*
X45579668Y-29128880D01*
X45579668Y-29128880D02*
X45246335Y-29128880D01*
X45246335Y-29128880D02*
X45151097Y-29081261D01*
X45151097Y-29081261D02*
X45103478Y-29033642D01*
X45103478Y-29033642D02*
X45055859Y-28938404D01*
X45055859Y-28938404D02*
X45055859Y-28843166D01*
X45055859Y-28843166D02*
X45103478Y-28747928D01*
X45103478Y-28747928D02*
X45151097Y-28700309D01*
X45151097Y-28700309D02*
X45246335Y-28652690D01*
X45246335Y-28652690D02*
X45579668Y-28652690D01*
X44627287Y-28414595D02*
X44151097Y-28414595D01*
X44722525Y-28128880D02*
X44389192Y-29128880D01*
X44389192Y-29128880D02*
X44055859Y-28128880D01*
X43865382Y-29128880D02*
X43293954Y-29128880D01*
X43579668Y-28128880D02*
X43579668Y-29128880D01*
X43103477Y-29128880D02*
X42532049Y-29128880D01*
X42817763Y-28128880D02*
X42817763Y-29128880D01*
X42198715Y-28652690D02*
X41865382Y-28652690D01*
X41722525Y-28128880D02*
X42198715Y-28128880D01*
X42198715Y-28128880D02*
X42198715Y-29128880D01*
X42198715Y-29128880D02*
X41722525Y-29128880D01*
X40722525Y-28128880D02*
X41055858Y-28605071D01*
X41293953Y-28128880D02*
X41293953Y-29128880D01*
X41293953Y-29128880D02*
X40913001Y-29128880D01*
X40913001Y-29128880D02*
X40817763Y-29081261D01*
X40817763Y-29081261D02*
X40770144Y-29033642D01*
X40770144Y-29033642D02*
X40722525Y-28938404D01*
X40722525Y-28938404D02*
X40722525Y-28795547D01*
X40722525Y-28795547D02*
X40770144Y-28700309D01*
X40770144Y-28700309D02*
X40817763Y-28652690D01*
X40817763Y-28652690D02*
X40913001Y-28605071D01*
X40913001Y-28605071D02*
X41293953Y-28605071D01*
X40103477Y-28605071D02*
X40103477Y-28128880D01*
X40436810Y-29128880D02*
X40103477Y-28605071D01*
X40103477Y-28605071D02*
X39770144Y-29128880D01*
D19*
X51236779Y-81369819D02*
X51236779Y-80369819D01*
X51808207Y-81369819D02*
X51379636Y-80798390D01*
X51808207Y-80369819D02*
X51236779Y-80941247D01*
X52236779Y-80846009D02*
X52570112Y-80846009D01*
X52712969Y-81369819D02*
X52236779Y-81369819D01*
X52236779Y-81369819D02*
X52236779Y-80369819D01*
X52236779Y-80369819D02*
X52712969Y-80369819D01*
X53141541Y-80846009D02*
X53474874Y-80846009D01*
X53617731Y-81369819D02*
X53141541Y-81369819D01*
X53141541Y-81369819D02*
X53141541Y-80369819D01*
X53141541Y-80369819D02*
X53617731Y-80369819D01*
X54046303Y-81369819D02*
X54046303Y-80369819D01*
X54046303Y-80369819D02*
X54427255Y-80369819D01*
X54427255Y-80369819D02*
X54522493Y-80417438D01*
X54522493Y-80417438D02*
X54570112Y-80465057D01*
X54570112Y-80465057D02*
X54617731Y-80560295D01*
X54617731Y-80560295D02*
X54617731Y-80703152D01*
X54617731Y-80703152D02*
X54570112Y-80798390D01*
X54570112Y-80798390D02*
X54522493Y-80846009D01*
X54522493Y-80846009D02*
X54427255Y-80893628D01*
X54427255Y-80893628D02*
X54046303Y-80893628D01*
X55998684Y-80369819D02*
X56189160Y-80369819D01*
X56189160Y-80369819D02*
X56284398Y-80417438D01*
X56284398Y-80417438D02*
X56379636Y-80512676D01*
X56379636Y-80512676D02*
X56427255Y-80703152D01*
X56427255Y-80703152D02*
X56427255Y-81036485D01*
X56427255Y-81036485D02*
X56379636Y-81226961D01*
X56379636Y-81226961D02*
X56284398Y-81322200D01*
X56284398Y-81322200D02*
X56189160Y-81369819D01*
X56189160Y-81369819D02*
X55998684Y-81369819D01*
X55998684Y-81369819D02*
X55903446Y-81322200D01*
X55903446Y-81322200D02*
X55808208Y-81226961D01*
X55808208Y-81226961D02*
X55760589Y-81036485D01*
X55760589Y-81036485D02*
X55760589Y-80703152D01*
X55760589Y-80703152D02*
X55808208Y-80512676D01*
X55808208Y-80512676D02*
X55903446Y-80417438D01*
X55903446Y-80417438D02*
X55998684Y-80369819D01*
X56855827Y-80369819D02*
X56855827Y-81179342D01*
X56855827Y-81179342D02*
X56903446Y-81274580D01*
X56903446Y-81274580D02*
X56951065Y-81322200D01*
X56951065Y-81322200D02*
X57046303Y-81369819D01*
X57046303Y-81369819D02*
X57236779Y-81369819D01*
X57236779Y-81369819D02*
X57332017Y-81322200D01*
X57332017Y-81322200D02*
X57379636Y-81274580D01*
X57379636Y-81274580D02*
X57427255Y-81179342D01*
X57427255Y-81179342D02*
X57427255Y-80369819D01*
X57760589Y-80369819D02*
X58332017Y-80369819D01*
X58046303Y-81369819D02*
X58046303Y-80369819D01*
D20*
X73822054Y-40179600D02*
X73964911Y-40227219D01*
X73964911Y-40227219D02*
X74203006Y-40227219D01*
X74203006Y-40227219D02*
X74298244Y-40179600D01*
X74298244Y-40179600D02*
X74345863Y-40131980D01*
X74345863Y-40131980D02*
X74393482Y-40036742D01*
X74393482Y-40036742D02*
X74393482Y-39941504D01*
X74393482Y-39941504D02*
X74345863Y-39846266D01*
X74345863Y-39846266D02*
X74298244Y-39798647D01*
X74298244Y-39798647D02*
X74203006Y-39751028D01*
X74203006Y-39751028D02*
X74012530Y-39703409D01*
X74012530Y-39703409D02*
X73917292Y-39655790D01*
X73917292Y-39655790D02*
X73869673Y-39608171D01*
X73869673Y-39608171D02*
X73822054Y-39512933D01*
X73822054Y-39512933D02*
X73822054Y-39417695D01*
X73822054Y-39417695D02*
X73869673Y-39322457D01*
X73869673Y-39322457D02*
X73917292Y-39274838D01*
X73917292Y-39274838D02*
X74012530Y-39227219D01*
X74012530Y-39227219D02*
X74250625Y-39227219D01*
X74250625Y-39227219D02*
X74393482Y-39274838D01*
X74679197Y-39227219D02*
X75250625Y-39227219D01*
X74964911Y-40227219D02*
X74964911Y-39227219D01*
X75536340Y-39941504D02*
X76012530Y-39941504D01*
X75441102Y-40227219D02*
X75774435Y-39227219D01*
X75774435Y-39227219D02*
X76107768Y-40227219D01*
X76298245Y-39227219D02*
X76869673Y-39227219D01*
X76583959Y-40227219D02*
X76583959Y-39227219D01*
X77203007Y-39227219D02*
X77203007Y-40036742D01*
X77203007Y-40036742D02*
X77250626Y-40131980D01*
X77250626Y-40131980D02*
X77298245Y-40179600D01*
X77298245Y-40179600D02*
X77393483Y-40227219D01*
X77393483Y-40227219D02*
X77583959Y-40227219D01*
X77583959Y-40227219D02*
X77679197Y-40179600D01*
X77679197Y-40179600D02*
X77726816Y-40131980D01*
X77726816Y-40131980D02*
X77774435Y-40036742D01*
X77774435Y-40036742D02*
X77774435Y-39227219D01*
X78203007Y-40179600D02*
X78345864Y-40227219D01*
X78345864Y-40227219D02*
X78583959Y-40227219D01*
X78583959Y-40227219D02*
X78679197Y-40179600D01*
X78679197Y-40179600D02*
X78726816Y-40131980D01*
X78726816Y-40131980D02*
X78774435Y-40036742D01*
X78774435Y-40036742D02*
X78774435Y-39941504D01*
X78774435Y-39941504D02*
X78726816Y-39846266D01*
X78726816Y-39846266D02*
X78679197Y-39798647D01*
X78679197Y-39798647D02*
X78583959Y-39751028D01*
X78583959Y-39751028D02*
X78393483Y-39703409D01*
X78393483Y-39703409D02*
X78298245Y-39655790D01*
X78298245Y-39655790D02*
X78250626Y-39608171D01*
X78250626Y-39608171D02*
X78203007Y-39512933D01*
X78203007Y-39512933D02*
X78203007Y-39417695D01*
X78203007Y-39417695D02*
X78250626Y-39322457D01*
X78250626Y-39322457D02*
X78298245Y-39274838D01*
X78298245Y-39274838D02*
X78393483Y-39227219D01*
X78393483Y-39227219D02*
X78631578Y-39227219D01*
X78631578Y-39227219D02*
X78774435Y-39274838D01*
X47436730Y-33215898D02*
X47484350Y-33263517D01*
X47484350Y-33263517D02*
X47531969Y-33406374D01*
X47531969Y-33406374D02*
X47531969Y-33501612D01*
X47531969Y-33501612D02*
X47484350Y-33644469D01*
X47484350Y-33644469D02*
X47389111Y-33739707D01*
X47389111Y-33739707D02*
X47293873Y-33787326D01*
X47293873Y-33787326D02*
X47103397Y-33834945D01*
X47103397Y-33834945D02*
X46960540Y-33834945D01*
X46960540Y-33834945D02*
X46770064Y-33787326D01*
X46770064Y-33787326D02*
X46674826Y-33739707D01*
X46674826Y-33739707D02*
X46579588Y-33644469D01*
X46579588Y-33644469D02*
X46531969Y-33501612D01*
X46531969Y-33501612D02*
X46531969Y-33406374D01*
X46531969Y-33406374D02*
X46579588Y-33263517D01*
X46579588Y-33263517D02*
X46627207Y-33215898D01*
X47531969Y-32787326D02*
X46531969Y-32787326D01*
X47008159Y-32787326D02*
X47008159Y-32215898D01*
X47531969Y-32215898D02*
X46531969Y-32215898D01*
X47531969Y-31168279D02*
X47055778Y-31501612D01*
X47531969Y-31739707D02*
X46531969Y-31739707D01*
X46531969Y-31739707D02*
X46531969Y-31358755D01*
X46531969Y-31358755D02*
X46579588Y-31263517D01*
X46579588Y-31263517D02*
X46627207Y-31215898D01*
X46627207Y-31215898D02*
X46722445Y-31168279D01*
X46722445Y-31168279D02*
X46865302Y-31168279D01*
X46865302Y-31168279D02*
X46960540Y-31215898D01*
X46960540Y-31215898D02*
X47008159Y-31263517D01*
X47008159Y-31263517D02*
X47055778Y-31358755D01*
X47055778Y-31358755D02*
X47055778Y-31739707D01*
X46579588Y-30215898D02*
X46531969Y-30311136D01*
X46531969Y-30311136D02*
X46531969Y-30453993D01*
X46531969Y-30453993D02*
X46579588Y-30596850D01*
X46579588Y-30596850D02*
X46674826Y-30692088D01*
X46674826Y-30692088D02*
X46770064Y-30739707D01*
X46770064Y-30739707D02*
X46960540Y-30787326D01*
X46960540Y-30787326D02*
X47103397Y-30787326D01*
X47103397Y-30787326D02*
X47293873Y-30739707D01*
X47293873Y-30739707D02*
X47389111Y-30692088D01*
X47389111Y-30692088D02*
X47484350Y-30596850D01*
X47484350Y-30596850D02*
X47531969Y-30453993D01*
X47531969Y-30453993D02*
X47531969Y-30358755D01*
X47531969Y-30358755D02*
X47484350Y-30215898D01*
X47484350Y-30215898D02*
X47436730Y-30168279D01*
X47436730Y-30168279D02*
X47103397Y-30168279D01*
X47103397Y-30168279D02*
X47103397Y-30358755D01*
X51867219Y-33630326D02*
X50867219Y-33630326D01*
X50867219Y-33630326D02*
X50867219Y-33392231D01*
X50867219Y-33392231D02*
X50914838Y-33249374D01*
X50914838Y-33249374D02*
X51010076Y-33154136D01*
X51010076Y-33154136D02*
X51105314Y-33106517D01*
X51105314Y-33106517D02*
X51295790Y-33058898D01*
X51295790Y-33058898D02*
X51438647Y-33058898D01*
X51438647Y-33058898D02*
X51629123Y-33106517D01*
X51629123Y-33106517D02*
X51724361Y-33154136D01*
X51724361Y-33154136D02*
X51819600Y-33249374D01*
X51819600Y-33249374D02*
X51867219Y-33392231D01*
X51867219Y-33392231D02*
X51867219Y-33630326D01*
X50867219Y-32439850D02*
X50867219Y-32249374D01*
X50867219Y-32249374D02*
X50914838Y-32154136D01*
X50914838Y-32154136D02*
X51010076Y-32058898D01*
X51010076Y-32058898D02*
X51200552Y-32011279D01*
X51200552Y-32011279D02*
X51533885Y-32011279D01*
X51533885Y-32011279D02*
X51724361Y-32058898D01*
X51724361Y-32058898D02*
X51819600Y-32154136D01*
X51819600Y-32154136D02*
X51867219Y-32249374D01*
X51867219Y-32249374D02*
X51867219Y-32439850D01*
X51867219Y-32439850D02*
X51819600Y-32535088D01*
X51819600Y-32535088D02*
X51724361Y-32630326D01*
X51724361Y-32630326D02*
X51533885Y-32677945D01*
X51533885Y-32677945D02*
X51200552Y-32677945D01*
X51200552Y-32677945D02*
X51010076Y-32630326D01*
X51010076Y-32630326D02*
X50914838Y-32535088D01*
X50914838Y-32535088D02*
X50867219Y-32439850D01*
X51867219Y-31582707D02*
X50867219Y-31582707D01*
X50867219Y-31582707D02*
X51867219Y-31011279D01*
X51867219Y-31011279D02*
X50867219Y-31011279D01*
X51343409Y-30535088D02*
X51343409Y-30201755D01*
X51867219Y-30058898D02*
X51867219Y-30535088D01*
X51867219Y-30535088D02*
X50867219Y-30535088D01*
X50867219Y-30535088D02*
X50867219Y-30058898D01*
D18*
G36*
X34879535Y-57060000D02*
G01*
X35051727Y-56180847D01*
X35070721Y-56064938D01*
X35076273Y-55976660D01*
X35065694Y-55891899D01*
X35037098Y-55831051D01*
X34991643Y-55787803D01*
X34925721Y-55759809D01*
X34831786Y-55749270D01*
X34722269Y-55763606D01*
X34622199Y-55806343D01*
X34528436Y-55880062D01*
X34452871Y-55974082D01*
X34394292Y-56090593D01*
X34353558Y-56234092D01*
X34192358Y-57060000D01*
X33946406Y-57060000D01*
X34173307Y-55900090D01*
X34226552Y-55582819D01*
X34458827Y-55582819D01*
X34444417Y-55689553D01*
X34420481Y-55837442D01*
X34424633Y-55837442D01*
X34505796Y-55737583D01*
X34581283Y-55666942D01*
X34652023Y-55620066D01*
X34730315Y-55587171D01*
X34820008Y-55566593D01*
X34923255Y-55559371D01*
X35054465Y-55571976D01*
X35153240Y-55606117D01*
X35227215Y-55658900D01*
X35281841Y-55731375D01*
X35316469Y-55825116D01*
X35329064Y-55946496D01*
X35322736Y-56039217D01*
X35300366Y-56169979D01*
X35126831Y-57060000D01*
X34879535Y-57060000D01*
G37*
G36*
X36048237Y-55761849D02*
G01*
X35795568Y-57060000D01*
X35549616Y-57060000D01*
X35802407Y-55761849D01*
X35594678Y-55761849D01*
X35630216Y-55582819D01*
X35837944Y-55582819D01*
X35869330Y-55416734D01*
X35908713Y-55275566D01*
X35952006Y-55188855D01*
X36011476Y-55122613D01*
X36087927Y-55074549D01*
X36179645Y-55046337D01*
X36305181Y-55035715D01*
X36402156Y-55040211D01*
X36474563Y-55052079D01*
X36439026Y-55239291D01*
X36377599Y-55231109D01*
X36314706Y-55228300D01*
X36236072Y-55240218D01*
X36182815Y-55272386D01*
X36145465Y-55330096D01*
X36109787Y-55450806D01*
X36083775Y-55582819D01*
X36372103Y-55582819D01*
X36336566Y-55761849D01*
X36048237Y-55761849D01*
G37*
G36*
X37253710Y-55570050D02*
G01*
X37371756Y-55599795D01*
X37468861Y-55646337D01*
X37548621Y-55709092D01*
X37612834Y-55788166D01*
X37659916Y-55882551D01*
X37689691Y-55995320D01*
X37700296Y-56130533D01*
X37687012Y-56309147D01*
X37645586Y-56500317D01*
X37602511Y-56625264D01*
X37550201Y-56732997D01*
X37489148Y-56825526D01*
X37415612Y-56907509D01*
X37332838Y-56973643D01*
X37239898Y-57025073D01*
X37139549Y-57061140D01*
X37028127Y-57083503D01*
X36903820Y-57091263D01*
X36771623Y-57080267D01*
X36659213Y-57049077D01*
X36562989Y-56999119D01*
X36480303Y-56930062D01*
X36414050Y-56845170D01*
X36365708Y-56745783D01*
X36335340Y-56629089D01*
X36324912Y-56495432D01*
X36577267Y-56495432D01*
X36588440Y-56627716D01*
X36618618Y-56728067D01*
X36664706Y-56803667D01*
X36729780Y-56861221D01*
X36812643Y-56896783D01*
X36918841Y-56909546D01*
X37051185Y-56896602D01*
X37145010Y-56862407D01*
X37223195Y-56803815D01*
X37294609Y-56714884D01*
X37350798Y-56605563D01*
X37399145Y-56458551D01*
X37430883Y-56299997D01*
X37446284Y-56130533D01*
X37434817Y-55999987D01*
X37404123Y-55903475D01*
X37357554Y-55832927D01*
X37295176Y-55782883D01*
X37213770Y-55751263D01*
X37107397Y-55739745D01*
X36987855Y-55751259D01*
X36890833Y-55783459D01*
X36811618Y-55834755D01*
X36746261Y-55904419D01*
X36688354Y-55998495D01*
X36638695Y-56122351D01*
X36592194Y-56314608D01*
X36577267Y-56495432D01*
X36324912Y-56495432D01*
X36324598Y-56491402D01*
X36338976Y-56307512D01*
X36373133Y-56143485D01*
X36425715Y-55996688D01*
X36499984Y-55860965D01*
X36588197Y-55753385D01*
X36690718Y-55670136D01*
X36808348Y-55610215D01*
X36946615Y-55572654D01*
X37110083Y-55559371D01*
X37253710Y-55570050D01*
G37*
G36*
X38769347Y-55775526D02*
G01*
X38708591Y-55762250D01*
X38646371Y-55757819D01*
X38579263Y-55766459D01*
X38514785Y-55792709D01*
X38451204Y-55838696D01*
X38387473Y-55908517D01*
X38320732Y-56013910D01*
X38268252Y-56139256D01*
X38231036Y-56287948D01*
X38080704Y-57060000D01*
X37834752Y-57060000D01*
X38056158Y-55923904D01*
X38090352Y-55737180D01*
X38114898Y-55582819D01*
X38347173Y-55582819D01*
X38299302Y-55881406D01*
X38304797Y-55881406D01*
X38370716Y-55762124D01*
X38429646Y-55679520D01*
X38482362Y-55625439D01*
X38543955Y-55584260D01*
X38610753Y-55559847D01*
X38684595Y-55551556D01*
X38747685Y-55556230D01*
X38814410Y-55570729D01*
X38769347Y-55775526D01*
G37*
G36*
X39622121Y-57060000D02*
G01*
X39791503Y-56195868D01*
X39819028Y-56038045D01*
X39825697Y-55958953D01*
X39819214Y-55892826D01*
X39801487Y-55842055D01*
X39773796Y-55803126D01*
X39735513Y-55775019D01*
X39680893Y-55756342D01*
X39604291Y-55749270D01*
X39504592Y-55763811D01*
X39413462Y-55807496D01*
X39327686Y-55884092D01*
X39259888Y-55979705D01*
X39207855Y-56095943D01*
X39172592Y-56236779D01*
X39011392Y-57060000D01*
X38766782Y-57060000D01*
X38993684Y-55900090D01*
X39046929Y-55582819D01*
X39279204Y-55582819D01*
X39264794Y-55689553D01*
X39240858Y-55837442D01*
X39245010Y-55837442D01*
X39316956Y-55737661D01*
X39383369Y-55667401D01*
X39445045Y-55620799D01*
X39514453Y-55587368D01*
X39593711Y-55566625D01*
X39684891Y-55559371D01*
X39792351Y-55569323D01*
X39878281Y-55596929D01*
X39947208Y-55640460D01*
X40001771Y-55700521D01*
X40040678Y-55777517D01*
X40063346Y-55875666D01*
X40145099Y-55761392D01*
X40219195Y-55681514D01*
X40286706Y-55628981D01*
X40362691Y-55590666D01*
X40446120Y-55567376D01*
X40538764Y-55559371D01*
X40657838Y-55571649D01*
X40750339Y-55605473D01*
X40822330Y-55658900D01*
X40875330Y-55731150D01*
X40909070Y-55824882D01*
X40921371Y-55946496D01*
X40915042Y-56039217D01*
X40892672Y-56169979D01*
X40719138Y-57060000D01*
X40475994Y-57060000D01*
X40645376Y-56195868D01*
X40672901Y-56038045D01*
X40679570Y-55958953D01*
X40673087Y-55892826D01*
X40655360Y-55842055D01*
X40627669Y-55803126D01*
X40589386Y-55775019D01*
X40534766Y-55756342D01*
X40458164Y-55749270D01*
X40358351Y-55763641D01*
X40267420Y-55806719D01*
X40182170Y-55882016D01*
X40114763Y-55976271D01*
X40062505Y-56091764D01*
X40026465Y-56232627D01*
X39865265Y-57060000D01*
X39622121Y-57060000D01*
G37*
G36*
X42108029Y-55565136D02*
G01*
X42229036Y-55602659D01*
X42325401Y-55661465D01*
X42384979Y-55721157D01*
X42426904Y-55789007D01*
X42452525Y-55866654D01*
X42461444Y-55956632D01*
X42455597Y-56048866D01*
X42435432Y-56172177D01*
X42334316Y-56691193D01*
X42319295Y-56811971D01*
X42331742Y-56867950D01*
X42366103Y-56899981D01*
X42429937Y-56912233D01*
X42511880Y-56902707D01*
X42492707Y-57055725D01*
X42402958Y-57072240D01*
X42317829Y-57077585D01*
X42234582Y-57070595D01*
X42174827Y-57052167D01*
X42132693Y-57024706D01*
X42101598Y-56985679D01*
X42081882Y-56934468D01*
X42074685Y-56867292D01*
X42081524Y-56779364D01*
X42073342Y-56779364D01*
X41991321Y-56889747D01*
X41913190Y-56968655D01*
X41838258Y-57021898D01*
X41754604Y-57059431D01*
X41657633Y-57082969D01*
X41544678Y-57091263D01*
X41421845Y-57077668D01*
X41319771Y-57039012D01*
X41233879Y-56975858D01*
X41167796Y-56892483D01*
X41128100Y-56795854D01*
X41114323Y-56681912D01*
X41115397Y-56671043D01*
X41375174Y-56671043D01*
X41382899Y-56737213D01*
X41404976Y-56792481D01*
X41441364Y-56839326D01*
X41489039Y-56874813D01*
X41545404Y-56896458D01*
X41612944Y-56904050D01*
X41740317Y-56889439D01*
X41852058Y-56846898D01*
X41949909Y-56780444D01*
X42028279Y-56697299D01*
X42086414Y-56600626D01*
X42119870Y-56498729D01*
X42156751Y-56326416D01*
X41884787Y-56331912D01*
X41731031Y-56342441D01*
X41629309Y-56361587D01*
X41543006Y-56392282D01*
X41485083Y-56426434D01*
X41439524Y-56470609D01*
X41404483Y-56525596D01*
X41382971Y-56589648D01*
X41375174Y-56671043D01*
X41115397Y-56671043D01*
X41126570Y-56558009D01*
X41161172Y-56455244D01*
X41216916Y-56369245D01*
X41295307Y-56297229D01*
X41386695Y-56245240D01*
X41508261Y-56203354D01*
X41667369Y-56174087D01*
X41872575Y-56161186D01*
X42189480Y-56157034D01*
X42215491Y-55982889D01*
X42206480Y-55902949D01*
X42181899Y-55843131D01*
X42143073Y-55798485D01*
X42091578Y-55766648D01*
X42025903Y-55746210D01*
X41942184Y-55738768D01*
X41834818Y-55746378D01*
X41754888Y-55766632D01*
X41696231Y-55796775D01*
X41647248Y-55840618D01*
X41607168Y-55898611D01*
X41576064Y-55973607D01*
X41332920Y-55934040D01*
X41386058Y-55808699D01*
X41457149Y-55713179D01*
X41546632Y-55642414D01*
X41652213Y-55594457D01*
X41786352Y-55563054D01*
X41955861Y-55551556D01*
X42108029Y-55565136D01*
G37*
G36*
X42982536Y-57091263D02*
G01*
X42908001Y-57082885D01*
X42848262Y-57059389D01*
X42799965Y-57021409D01*
X42763936Y-56971251D01*
X42741668Y-56910631D01*
X42733775Y-56836639D01*
X42738467Y-56758310D01*
X42754291Y-56658586D01*
X42926482Y-55761849D01*
X42755635Y-55761849D01*
X42791172Y-55582819D01*
X42964706Y-55582819D01*
X43108199Y-55254556D01*
X43272086Y-55254556D01*
X43207972Y-55582819D01*
X43481158Y-55582819D01*
X43445621Y-55761849D01*
X43172435Y-55761849D01*
X43001587Y-56645275D01*
X42985223Y-56775334D01*
X42993554Y-56829914D01*
X43015765Y-56865536D01*
X43052080Y-56887552D01*
X43108199Y-56895868D01*
X43167895Y-56891510D01*
X43244853Y-56876695D01*
X43218841Y-57058412D01*
X43087099Y-57083734D01*
X42982536Y-57091263D01*
G37*
G36*
X43776570Y-55270676D02*
G01*
X43822976Y-55035715D01*
X44068928Y-55035715D01*
X44022522Y-55270676D01*
X43776570Y-55270676D01*
G37*
G36*
X43429501Y-57060000D02*
G01*
X43716486Y-55582819D01*
X43962316Y-55582819D01*
X43674110Y-57060000D01*
X43429501Y-57060000D01*
G37*
G36*
X45026494Y-55570050D02*
G01*
X45144540Y-55599795D01*
X45241645Y-55646337D01*
X45321406Y-55709092D01*
X45385618Y-55788166D01*
X45432700Y-55882551D01*
X45462476Y-55995320D01*
X45473080Y-56130533D01*
X45459796Y-56309147D01*
X45418370Y-56500317D01*
X45375295Y-56625264D01*
X45322985Y-56732997D01*
X45261933Y-56825526D01*
X45188397Y-56907509D01*
X45105623Y-56973643D01*
X45012683Y-57025073D01*
X44912333Y-57061140D01*
X44800911Y-57083503D01*
X44676605Y-57091263D01*
X44544407Y-57080267D01*
X44431997Y-57049077D01*
X44335773Y-56999119D01*
X44253087Y-56930062D01*
X44186834Y-56845170D01*
X44138493Y-56745783D01*
X44108125Y-56629089D01*
X44097697Y-56495432D01*
X44350052Y-56495432D01*
X44361224Y-56627716D01*
X44391402Y-56728067D01*
X44437491Y-56803667D01*
X44502565Y-56861221D01*
X44585427Y-56896783D01*
X44691625Y-56909546D01*
X44823970Y-56896602D01*
X44917794Y-56862407D01*
X44995979Y-56803815D01*
X45067393Y-56714884D01*
X45123582Y-56605563D01*
X45171929Y-56458551D01*
X45203667Y-56299997D01*
X45219068Y-56130533D01*
X45207601Y-55999987D01*
X45176907Y-55903475D01*
X45130338Y-55832927D01*
X45067961Y-55782883D01*
X44986555Y-55751263D01*
X44880181Y-55739745D01*
X44760640Y-55751259D01*
X44663617Y-55783459D01*
X44584403Y-55834755D01*
X44519045Y-55904419D01*
X44461138Y-55998495D01*
X44411479Y-56122351D01*
X44364978Y-56314608D01*
X44350052Y-56495432D01*
X44097697Y-56495432D01*
X44097383Y-56491402D01*
X44111760Y-56307512D01*
X44145918Y-56143485D01*
X44198499Y-55996688D01*
X44272769Y-55860965D01*
X44360982Y-55753385D01*
X44463503Y-55670136D01*
X44581132Y-55610215D01*
X44719399Y-55572654D01*
X44882868Y-55559371D01*
X45026494Y-55570050D01*
G37*
G36*
X46540666Y-57060000D02*
G01*
X46712857Y-56180847D01*
X46731851Y-56064938D01*
X46737404Y-55976660D01*
X46726825Y-55891899D01*
X46698228Y-55831051D01*
X46652774Y-55787803D01*
X46586851Y-55759809D01*
X46492916Y-55749270D01*
X46383399Y-55763606D01*
X46283330Y-55806343D01*
X46189567Y-55880062D01*
X46114001Y-55974082D01*
X46055423Y-56090593D01*
X46014689Y-56234092D01*
X45853489Y-57060000D01*
X45607536Y-57060000D01*
X45834438Y-55900090D01*
X45887683Y-55582819D01*
X46119958Y-55582819D01*
X46105547Y-55689553D01*
X46081612Y-55837442D01*
X46085764Y-55837442D01*
X46166927Y-55737583D01*
X46242413Y-55666942D01*
X46313154Y-55620066D01*
X46391445Y-55587171D01*
X46481139Y-55566593D01*
X46584385Y-55559371D01*
X46715596Y-55571976D01*
X46814371Y-55606117D01*
X46888346Y-55658900D01*
X46942971Y-55731375D01*
X46977599Y-55825116D01*
X46990195Y-55946496D01*
X46983866Y-56039217D01*
X46961496Y-56169979D01*
X46787962Y-57060000D01*
X46540666Y-57060000D01*
G37*
G36*
X35820702Y-58770050D02*
G01*
X35938748Y-58799795D01*
X36035853Y-58846337D01*
X36115614Y-58909092D01*
X36179826Y-58988166D01*
X36226908Y-59082551D01*
X36256684Y-59195320D01*
X36267288Y-59330533D01*
X36254004Y-59509147D01*
X36212578Y-59700317D01*
X36169503Y-59825264D01*
X36117193Y-59932997D01*
X36056140Y-60025526D01*
X35982605Y-60107509D01*
X35899831Y-60173643D01*
X35806891Y-60225073D01*
X35706541Y-60261140D01*
X35595119Y-60283503D01*
X35470812Y-60291263D01*
X35338615Y-60280267D01*
X35226205Y-60249077D01*
X35129981Y-60199119D01*
X35047295Y-60130062D01*
X34981042Y-60045170D01*
X34932701Y-59945783D01*
X34902333Y-59829089D01*
X34891905Y-59695432D01*
X35144260Y-59695432D01*
X35155432Y-59827716D01*
X35185610Y-59928067D01*
X35231699Y-60003667D01*
X35296772Y-60061221D01*
X35379635Y-60096783D01*
X35485833Y-60109546D01*
X35618178Y-60096602D01*
X35712002Y-60062407D01*
X35790187Y-60003815D01*
X35861601Y-59914884D01*
X35917790Y-59805563D01*
X35966137Y-59658551D01*
X35997875Y-59499997D01*
X36013276Y-59330533D01*
X36001809Y-59199987D01*
X35971115Y-59103475D01*
X35924546Y-59032927D01*
X35862169Y-58982883D01*
X35780763Y-58951263D01*
X35674389Y-58939745D01*
X35554848Y-58951259D01*
X35457825Y-58983459D01*
X35378611Y-59034755D01*
X35313253Y-59104419D01*
X35255346Y-59198495D01*
X35205687Y-59322351D01*
X35159186Y-59514608D01*
X35144260Y-59695432D01*
X34891905Y-59695432D01*
X34891591Y-59691402D01*
X34905968Y-59507512D01*
X34940126Y-59343485D01*
X34992707Y-59196688D01*
X35066977Y-59060965D01*
X35155190Y-58953385D01*
X35257711Y-58870136D01*
X35375340Y-58810215D01*
X35513607Y-58772654D01*
X35677076Y-58759371D01*
X35820702Y-58770050D01*
G37*
G36*
X36400401Y-60260000D02*
G01*
X36793876Y-58235715D01*
X37039829Y-58235715D01*
X36645010Y-60260000D01*
X36400401Y-60260000D01*
G37*
G36*
X37021755Y-60260000D02*
G01*
X37415230Y-58235715D01*
X37661182Y-58235715D01*
X37266364Y-60260000D01*
X37021755Y-60260000D01*
G37*
G36*
X38599006Y-58761564D02*
G01*
X38715814Y-58789573D01*
X38813237Y-58833544D01*
X38894487Y-58892850D01*
X38960977Y-58968342D01*
X39009243Y-59057950D01*
X39039556Y-59164515D01*
X39050314Y-59291943D01*
X39042089Y-59434673D01*
X39017585Y-59573189D01*
X37947801Y-59573189D01*
X37935467Y-59728649D01*
X37946822Y-59847338D01*
X37977880Y-59938836D01*
X38026325Y-60009284D01*
X38093165Y-60061325D01*
X38182150Y-60094622D01*
X38300244Y-60106859D01*
X38386715Y-60099392D01*
X38466390Y-60077458D01*
X38540701Y-60041036D01*
X38607333Y-59991838D01*
X38663085Y-59932301D01*
X38708740Y-59861395D01*
X38897295Y-59947613D01*
X38822389Y-60059380D01*
X38738070Y-60145456D01*
X38643771Y-60209197D01*
X38538341Y-60253461D01*
X38415390Y-60281387D01*
X38271545Y-60291263D01*
X38135016Y-60280583D01*
X38020872Y-60250567D01*
X37925088Y-60203064D01*
X37844609Y-60138244D01*
X37780220Y-60057542D01*
X37732929Y-59961188D01*
X37702990Y-59846047D01*
X37692323Y-59708011D01*
X37703643Y-59526223D01*
X37731885Y-59384633D01*
X37980652Y-59384633D01*
X38800331Y-59384633D01*
X38805826Y-59285593D01*
X38794858Y-59175114D01*
X38764790Y-59089879D01*
X38717655Y-59024131D01*
X38653436Y-58975312D01*
X38570803Y-58944465D01*
X38464253Y-58933272D01*
X38346894Y-58946780D01*
X38245417Y-58985887D01*
X38156140Y-59050997D01*
X38083838Y-59136287D01*
X38025007Y-59245815D01*
X37980652Y-59384633D01*
X37731885Y-59384633D01*
X37736362Y-59362187D01*
X37789288Y-59213419D01*
X37864577Y-59075620D01*
X37955500Y-58963203D01*
X38062595Y-58873066D01*
X38184783Y-58805625D01*
X38315918Y-58765269D01*
X38458757Y-58751556D01*
X38599006Y-58761564D01*
G37*
G36*
X39794155Y-60097212D02*
G01*
X39898784Y-60084848D01*
X39987859Y-60049219D01*
X40065028Y-59989972D01*
X40132134Y-59903471D01*
X40188974Y-59783237D01*
X40402076Y-59850160D01*
X40335666Y-59990831D01*
X40256183Y-60099976D01*
X40163822Y-60182577D01*
X40057200Y-60241733D01*
X39933486Y-60278392D01*
X39788660Y-60291263D01*
X39658324Y-60280783D01*
X39550290Y-60251414D01*
X39460428Y-60205011D01*
X39385659Y-60141664D01*
X39326465Y-60063291D01*
X39282717Y-59969400D01*
X39254905Y-59856894D01*
X39244975Y-59721810D01*
X39256264Y-59540837D01*
X39289434Y-59371264D01*
X39344016Y-59211343D01*
X39420970Y-59061699D01*
X39508481Y-58947658D01*
X39606332Y-58863419D01*
X39720013Y-58802651D01*
X39852283Y-58764852D01*
X40007379Y-58751556D01*
X40122809Y-58759699D01*
X40220285Y-58782621D01*
X40302806Y-58818808D01*
X40372766Y-58867815D01*
X40431684Y-58930201D01*
X40475842Y-59002789D01*
X40505841Y-59087327D01*
X40521022Y-59186308D01*
X40279221Y-59220502D01*
X40265471Y-59135081D01*
X40237800Y-59068198D01*
X40197278Y-59015949D01*
X40144108Y-58976927D01*
X40079149Y-58952744D01*
X39999075Y-58944141D01*
X39887788Y-58955263D01*
X39796277Y-58986590D01*
X39720394Y-59036953D01*
X39658675Y-59105240D01*
X39603181Y-59201183D01*
X39555041Y-59331755D01*
X39510744Y-59534017D01*
X39496301Y-59730237D01*
X39506691Y-59854518D01*
X39534356Y-59945695D01*
X39575949Y-60011640D01*
X39631016Y-60057856D01*
X39702076Y-60086753D01*
X39794155Y-60097212D01*
G37*
G36*
X40928175Y-60291263D02*
G01*
X40853639Y-60282885D01*
X40793900Y-60259389D01*
X40745603Y-60221409D01*
X40709575Y-60171251D01*
X40687306Y-60110631D01*
X40679413Y-60036639D01*
X40684106Y-59958310D01*
X40699930Y-59858586D01*
X40872121Y-58961849D01*
X40701273Y-58961849D01*
X40736810Y-58782819D01*
X40910345Y-58782819D01*
X41053838Y-58454556D01*
X41217725Y-58454556D01*
X41153611Y-58782819D01*
X41426796Y-58782819D01*
X41391259Y-58961849D01*
X41118073Y-58961849D01*
X40947226Y-59845275D01*
X40930861Y-59975334D01*
X40939192Y-60029914D01*
X40961403Y-60065536D01*
X40997718Y-60087552D01*
X41053838Y-60095868D01*
X41113534Y-60091510D01*
X41190491Y-60076695D01*
X41164480Y-60258412D01*
X41032737Y-60283734D01*
X40928175Y-60291263D01*
G37*
G36*
X41722208Y-58470676D02*
G01*
X41768614Y-58235715D01*
X42014567Y-58235715D01*
X41968161Y-58470676D01*
X41722208Y-58470676D01*
G37*
G36*
X41375139Y-60260000D02*
G01*
X41662124Y-58782819D01*
X41907955Y-58782819D01*
X41619748Y-60260000D01*
X41375139Y-60260000D01*
G37*
G36*
X42972133Y-58770050D02*
G01*
X43090179Y-58799795D01*
X43187284Y-58846337D01*
X43267044Y-58909092D01*
X43331256Y-58988166D01*
X43378339Y-59082551D01*
X43408114Y-59195320D01*
X43418719Y-59330533D01*
X43405435Y-59509147D01*
X43364009Y-59700317D01*
X43320934Y-59825264D01*
X43268624Y-59932997D01*
X43207571Y-60025526D01*
X43134035Y-60107509D01*
X43051261Y-60173643D01*
X42958321Y-60225073D01*
X42857971Y-60261140D01*
X42746550Y-60283503D01*
X42622243Y-60291263D01*
X42490046Y-60280267D01*
X42377635Y-60249077D01*
X42281412Y-60199119D01*
X42198726Y-60130062D01*
X42132472Y-60045170D01*
X42084131Y-59945783D01*
X42053763Y-59829089D01*
X42043335Y-59695432D01*
X42295690Y-59695432D01*
X42306863Y-59827716D01*
X42337041Y-59928067D01*
X42383129Y-60003667D01*
X42448203Y-60061221D01*
X42531066Y-60096783D01*
X42637264Y-60109546D01*
X42769608Y-60096602D01*
X42863433Y-60062407D01*
X42941618Y-60003815D01*
X43013032Y-59914884D01*
X43069221Y-59805563D01*
X43117568Y-59658551D01*
X43149306Y-59499997D01*
X43164706Y-59330533D01*
X43153240Y-59199987D01*
X43122545Y-59103475D01*
X43075977Y-59032927D01*
X43013599Y-58982883D01*
X42932193Y-58951263D01*
X42825819Y-58939745D01*
X42706278Y-58951259D01*
X42609256Y-58983459D01*
X42530041Y-59034755D01*
X42464683Y-59104419D01*
X42406777Y-59198495D01*
X42357117Y-59322351D01*
X42310617Y-59514608D01*
X42295690Y-59695432D01*
X42043335Y-59695432D01*
X42043021Y-59691402D01*
X42057399Y-59507512D01*
X42091556Y-59343485D01*
X42144138Y-59196688D01*
X42218407Y-59060965D01*
X42306620Y-58953385D01*
X42409141Y-58870136D01*
X42526771Y-58810215D01*
X42665038Y-58772654D01*
X42828506Y-58759371D01*
X42972133Y-58770050D01*
G37*
G36*
X44486304Y-60260000D02*
G01*
X44658496Y-59380847D01*
X44677490Y-59264938D01*
X44683042Y-59176660D01*
X44672463Y-59091899D01*
X44643867Y-59031051D01*
X44598412Y-58987803D01*
X44532490Y-58959809D01*
X44438555Y-58949270D01*
X44329038Y-58963606D01*
X44228968Y-59006343D01*
X44135205Y-59080062D01*
X44059640Y-59174082D01*
X44001061Y-59290593D01*
X43960327Y-59434092D01*
X43799127Y-60260000D01*
X43553175Y-60260000D01*
X43780076Y-59100090D01*
X43833321Y-58782819D01*
X44065596Y-58782819D01*
X44051186Y-58889553D01*
X44027250Y-59037442D01*
X44031402Y-59037442D01*
X44112565Y-58937583D01*
X44188052Y-58866942D01*
X44258792Y-58820066D01*
X44337084Y-58787171D01*
X44426777Y-58766593D01*
X44530024Y-58759371D01*
X44661234Y-58771976D01*
X44760009Y-58806117D01*
X44833984Y-58858900D01*
X44888610Y-58931375D01*
X44923238Y-59025116D01*
X44935833Y-59146496D01*
X44929505Y-59239217D01*
X44907135Y-59369979D01*
X44733600Y-60260000D01*
X44486304Y-60260000D01*
G37*
G36*
X36081001Y-62375526D02*
G01*
X36020245Y-62362250D01*
X35958025Y-62357819D01*
X35890917Y-62366459D01*
X35826439Y-62392709D01*
X35762857Y-62438696D01*
X35699127Y-62508517D01*
X35632386Y-62613910D01*
X35579905Y-62739256D01*
X35542690Y-62887948D01*
X35392358Y-63660000D01*
X35146406Y-63660000D01*
X35367812Y-62523904D01*
X35402006Y-62337180D01*
X35426552Y-62182819D01*
X35658827Y-62182819D01*
X35610956Y-62481406D01*
X35616451Y-62481406D01*
X35682370Y-62362124D01*
X35741300Y-62279520D01*
X35794016Y-62225439D01*
X35855609Y-62184260D01*
X35922407Y-62159847D01*
X35996249Y-62151556D01*
X36059339Y-62156230D01*
X36126064Y-62170729D01*
X36081001Y-62375526D01*
G37*
G36*
X37013032Y-62375526D02*
G01*
X36952275Y-62362250D01*
X36890055Y-62357819D01*
X36822948Y-62366459D01*
X36758470Y-62392709D01*
X36694888Y-62438696D01*
X36631158Y-62508517D01*
X36564417Y-62613910D01*
X36511936Y-62739256D01*
X36474720Y-62887948D01*
X36324389Y-63660000D01*
X36078436Y-63660000D01*
X36299842Y-62523904D01*
X36334036Y-62337180D01*
X36358583Y-62182819D01*
X36590858Y-62182819D01*
X36542986Y-62481406D01*
X36548482Y-62481406D01*
X36614401Y-62362124D01*
X36673331Y-62279520D01*
X36726046Y-62225439D01*
X36787640Y-62184260D01*
X36854437Y-62159847D01*
X36928279Y-62151556D01*
X36991369Y-62156230D01*
X37058094Y-62170729D01*
X37013032Y-62375526D01*
G37*
G36*
X38020660Y-62165136D02*
G01*
X38141667Y-62202659D01*
X38238032Y-62261465D01*
X38297609Y-62321157D01*
X38339534Y-62389007D01*
X38365155Y-62466654D01*
X38374075Y-62556632D01*
X38368228Y-62648866D01*
X38348063Y-62772177D01*
X38246946Y-63291193D01*
X38231926Y-63411971D01*
X38244373Y-63467950D01*
X38278734Y-63499981D01*
X38342568Y-63512233D01*
X38424511Y-63502707D01*
X38405338Y-63655725D01*
X38315589Y-63672240D01*
X38230460Y-63677585D01*
X38147213Y-63670595D01*
X38087458Y-63652167D01*
X38045324Y-63624706D01*
X38014229Y-63585679D01*
X37994513Y-63534468D01*
X37987316Y-63467292D01*
X37994155Y-63379364D01*
X37985973Y-63379364D01*
X37903952Y-63489747D01*
X37825821Y-63568655D01*
X37750889Y-63621898D01*
X37667235Y-63659431D01*
X37570263Y-63682969D01*
X37457309Y-63691263D01*
X37334476Y-63677668D01*
X37232402Y-63639012D01*
X37146510Y-63575858D01*
X37080427Y-63492483D01*
X37040731Y-63395854D01*
X37026953Y-63281912D01*
X37028027Y-63271043D01*
X37287805Y-63271043D01*
X37295530Y-63337213D01*
X37317607Y-63392481D01*
X37353995Y-63439326D01*
X37401670Y-63474813D01*
X37458035Y-63496458D01*
X37525575Y-63504050D01*
X37652948Y-63489439D01*
X37764689Y-63446898D01*
X37862540Y-63380444D01*
X37940910Y-63297299D01*
X37999045Y-63200626D01*
X38032501Y-63098729D01*
X38069382Y-62926416D01*
X37797418Y-62931912D01*
X37643662Y-62942441D01*
X37541939Y-62961587D01*
X37455637Y-62992282D01*
X37397714Y-63026434D01*
X37352155Y-63070609D01*
X37317114Y-63125596D01*
X37295602Y-63189648D01*
X37287805Y-63271043D01*
X37028027Y-63271043D01*
X37039201Y-63158009D01*
X37073803Y-63055244D01*
X37129547Y-62969245D01*
X37207937Y-62897229D01*
X37299325Y-62845240D01*
X37420892Y-62803354D01*
X37580000Y-62774087D01*
X37785205Y-62761186D01*
X38102110Y-62757034D01*
X38128122Y-62582889D01*
X38119111Y-62502949D01*
X38094530Y-62443131D01*
X38055704Y-62398485D01*
X38004209Y-62366648D01*
X37938533Y-62346210D01*
X37854815Y-62338768D01*
X37747449Y-62346378D01*
X37667518Y-62366632D01*
X37608862Y-62396775D01*
X37559879Y-62440618D01*
X37519799Y-62498611D01*
X37488695Y-62573607D01*
X37245551Y-62534040D01*
X37298689Y-62408699D01*
X37369780Y-62313179D01*
X37459263Y-62242414D01*
X37564844Y-62194457D01*
X37698983Y-62163054D01*
X37868492Y-62151556D01*
X38020660Y-62165136D01*
G37*
G36*
X38541259Y-64238367D02*
G01*
X38445151Y-64233380D01*
X38360886Y-64219193D01*
X38403262Y-64036256D01*
X38508408Y-64047124D01*
X38591718Y-64037432D01*
X38667290Y-64008813D01*
X38737264Y-63960296D01*
X38830744Y-63860058D01*
X38932048Y-63708115D01*
X38968928Y-63644368D01*
X38672418Y-62182819D01*
X38922400Y-62182819D01*
X39075418Y-62999689D01*
X39113642Y-63232575D01*
X39132815Y-63393042D01*
X39168353Y-63319281D01*
X39787264Y-62182819D01*
X40059106Y-62182819D01*
X39203890Y-63660732D01*
X39055549Y-63901018D01*
X38960013Y-64028318D01*
X38863141Y-64122540D01*
X38767306Y-64185976D01*
X38662055Y-64224930D01*
X38541259Y-64238367D01*
G37*
G36*
X36300960Y-52261564D02*
G01*
X36417768Y-52289573D01*
X36515191Y-52333544D01*
X36596441Y-52392850D01*
X36662931Y-52468342D01*
X36711197Y-52557950D01*
X36741510Y-52664515D01*
X36752267Y-52791943D01*
X36744043Y-52934673D01*
X36719539Y-53073189D01*
X35649755Y-53073189D01*
X35637421Y-53228649D01*
X35648776Y-53347338D01*
X35679834Y-53438836D01*
X35728279Y-53509284D01*
X35795119Y-53561325D01*
X35884104Y-53594622D01*
X36002198Y-53606859D01*
X36088669Y-53599392D01*
X36168344Y-53577458D01*
X36242655Y-53541036D01*
X36309287Y-53491838D01*
X36365039Y-53432301D01*
X36410694Y-53361395D01*
X36599249Y-53447613D01*
X36524343Y-53559380D01*
X36440024Y-53645456D01*
X36345725Y-53709197D01*
X36240295Y-53753461D01*
X36117344Y-53781387D01*
X35973499Y-53791263D01*
X35836970Y-53780583D01*
X35722826Y-53750567D01*
X35627042Y-53703064D01*
X35546563Y-53638244D01*
X35482174Y-53557542D01*
X35434883Y-53461188D01*
X35404944Y-53346047D01*
X35394277Y-53208011D01*
X35405597Y-53026223D01*
X35433839Y-52884633D01*
X35682606Y-52884633D01*
X36502285Y-52884633D01*
X36507780Y-52785593D01*
X36496812Y-52675114D01*
X36466744Y-52589879D01*
X36419609Y-52524131D01*
X36355390Y-52475312D01*
X36272757Y-52444465D01*
X36166207Y-52433272D01*
X36048848Y-52446780D01*
X35947370Y-52485887D01*
X35858094Y-52550997D01*
X35785792Y-52636287D01*
X35726961Y-52745815D01*
X35682606Y-52884633D01*
X35433839Y-52884633D01*
X35438316Y-52862187D01*
X35491242Y-52713419D01*
X35566531Y-52575620D01*
X35657454Y-52463203D01*
X35764549Y-52373066D01*
X35886737Y-52305625D01*
X36017872Y-52265269D01*
X36160711Y-52251556D01*
X36300960Y-52261564D01*
G37*
G36*
X37911937Y-52265136D02*
G01*
X38032944Y-52302659D01*
X38129309Y-52361465D01*
X38188886Y-52421157D01*
X38230811Y-52489007D01*
X38256432Y-52566654D01*
X38265352Y-52656632D01*
X38259505Y-52748866D01*
X38239340Y-52872177D01*
X38138224Y-53391193D01*
X38123203Y-53511971D01*
X38135650Y-53567950D01*
X38170011Y-53599981D01*
X38233845Y-53612233D01*
X38315788Y-53602707D01*
X38296615Y-53755725D01*
X38206866Y-53772240D01*
X38121737Y-53777585D01*
X38038490Y-53770595D01*
X37978735Y-53752167D01*
X37936601Y-53724706D01*
X37905506Y-53685679D01*
X37885790Y-53634468D01*
X37878593Y-53567292D01*
X37885432Y-53479364D01*
X37877250Y-53479364D01*
X37795229Y-53589747D01*
X37717098Y-53668655D01*
X37642166Y-53721898D01*
X37558512Y-53759431D01*
X37461540Y-53782969D01*
X37348586Y-53791263D01*
X37225753Y-53777668D01*
X37123679Y-53739012D01*
X37037787Y-53675858D01*
X36971704Y-53592483D01*
X36932008Y-53495854D01*
X36918230Y-53381912D01*
X36919304Y-53371043D01*
X37179082Y-53371043D01*
X37186807Y-53437213D01*
X37208884Y-53492481D01*
X37245272Y-53539326D01*
X37292947Y-53574813D01*
X37349312Y-53596458D01*
X37416852Y-53604050D01*
X37544225Y-53589439D01*
X37655966Y-53546898D01*
X37753817Y-53480444D01*
X37832187Y-53397299D01*
X37890322Y-53300626D01*
X37923778Y-53198729D01*
X37960659Y-53026416D01*
X37688695Y-53031912D01*
X37534939Y-53042441D01*
X37433217Y-53061587D01*
X37346914Y-53092282D01*
X37288991Y-53126434D01*
X37243432Y-53170609D01*
X37208391Y-53225596D01*
X37186879Y-53289648D01*
X37179082Y-53371043D01*
X36919304Y-53371043D01*
X36930478Y-53258009D01*
X36965080Y-53155244D01*
X37020824Y-53069245D01*
X37099214Y-52997229D01*
X37190602Y-52945240D01*
X37312169Y-52903354D01*
X37471277Y-52874087D01*
X37676482Y-52861186D01*
X37993387Y-52857034D01*
X38019399Y-52682889D01*
X38010388Y-52602949D01*
X37985807Y-52543131D01*
X37946981Y-52498485D01*
X37895486Y-52466648D01*
X37829810Y-52446210D01*
X37746092Y-52438768D01*
X37638726Y-52446378D01*
X37558795Y-52466632D01*
X37500139Y-52496775D01*
X37451156Y-52540618D01*
X37411076Y-52598611D01*
X37379972Y-52673607D01*
X37136828Y-52634040D01*
X37189966Y-52508699D01*
X37261057Y-52413179D01*
X37350540Y-52342414D01*
X37456121Y-52294457D01*
X37590260Y-52263054D01*
X37759769Y-52251556D01*
X37911937Y-52265136D01*
G37*
G36*
X38786444Y-53791263D02*
G01*
X38711909Y-53782885D01*
X38652170Y-53759389D01*
X38603872Y-53721409D01*
X38567844Y-53671251D01*
X38545575Y-53610631D01*
X38537683Y-53536639D01*
X38542375Y-53458310D01*
X38558199Y-53358586D01*
X38730390Y-52461849D01*
X38559542Y-52461849D01*
X38595080Y-52282819D01*
X38768614Y-52282819D01*
X38912107Y-51954556D01*
X39075994Y-51954556D01*
X39011880Y-52282819D01*
X39285066Y-52282819D01*
X39249528Y-52461849D01*
X38976343Y-52461849D01*
X38805495Y-53345275D01*
X38789131Y-53475334D01*
X38797462Y-53529914D01*
X38819673Y-53565536D01*
X38855988Y-53587552D01*
X38912107Y-53595868D01*
X38971803Y-53591510D01*
X39048761Y-53576695D01*
X39022749Y-53758412D01*
X38891007Y-53783734D01*
X38786444Y-53791263D01*
G37*
G36*
X39711636Y-52537442D02*
G01*
X39792876Y-52437578D01*
X39868401Y-52366938D01*
X39939148Y-52320066D01*
X40017362Y-52287175D01*
X40107011Y-52266596D01*
X40210258Y-52259371D01*
X40341468Y-52271976D01*
X40440243Y-52306117D01*
X40514218Y-52358900D01*
X40568844Y-52431375D01*
X40603472Y-52525116D01*
X40616067Y-52646496D01*
X40609738Y-52739217D01*
X40587369Y-52869979D01*
X40413834Y-53760000D01*
X40166538Y-53760000D01*
X40338729Y-52880847D01*
X40357724Y-52764938D01*
X40363276Y-52676660D01*
X40352697Y-52591899D01*
X40324100Y-52531051D01*
X40278646Y-52487803D01*
X40212723Y-52459809D01*
X40118789Y-52449270D01*
X40009272Y-52463606D01*
X39909202Y-52506343D01*
X39815439Y-52580062D01*
X39739874Y-52674082D01*
X39681295Y-52790593D01*
X39640561Y-52934092D01*
X39479361Y-53760000D01*
X39234752Y-53760000D01*
X39628227Y-51735715D01*
X39874180Y-51735715D01*
X39771720Y-52262913D01*
X39707484Y-52537442D01*
X39711636Y-52537442D01*
G37*
G36*
X41744644Y-52261564D02*
G01*
X41861452Y-52289573D01*
X41958876Y-52333544D01*
X42040125Y-52392850D01*
X42106616Y-52468342D01*
X42154882Y-52557950D01*
X42185194Y-52664515D01*
X42195952Y-52791943D01*
X42187727Y-52934673D01*
X42163224Y-53073189D01*
X41093440Y-53073189D01*
X41081106Y-53228649D01*
X41092460Y-53347338D01*
X41123519Y-53438836D01*
X41171964Y-53509284D01*
X41238803Y-53561325D01*
X41327789Y-53594622D01*
X41445882Y-53606859D01*
X41532353Y-53599392D01*
X41612029Y-53577458D01*
X41686339Y-53541036D01*
X41752972Y-53491838D01*
X41808723Y-53432301D01*
X41854378Y-53361395D01*
X42042934Y-53447613D01*
X41968027Y-53559380D01*
X41883708Y-53645456D01*
X41789410Y-53709197D01*
X41683980Y-53753461D01*
X41561028Y-53781387D01*
X41417184Y-53791263D01*
X41280655Y-53780583D01*
X41166510Y-53750567D01*
X41070726Y-53703064D01*
X40990247Y-53638244D01*
X40925859Y-53557542D01*
X40878568Y-53461188D01*
X40848629Y-53346047D01*
X40837962Y-53208011D01*
X40849281Y-53026223D01*
X40877524Y-52884633D01*
X41126290Y-52884633D01*
X41945969Y-52884633D01*
X41951465Y-52785593D01*
X41940497Y-52675114D01*
X41910429Y-52589879D01*
X41863293Y-52524131D01*
X41799075Y-52475312D01*
X41716441Y-52444465D01*
X41609891Y-52433272D01*
X41492532Y-52446780D01*
X41391055Y-52485887D01*
X41301779Y-52550997D01*
X41229477Y-52636287D01*
X41170645Y-52745815D01*
X41126290Y-52884633D01*
X40877524Y-52884633D01*
X40882001Y-52862187D01*
X40934926Y-52713419D01*
X41010215Y-52575620D01*
X41101139Y-52463203D01*
X41208234Y-52373066D01*
X41330421Y-52305625D01*
X41461557Y-52265269D01*
X41604396Y-52251556D01*
X41744644Y-52261564D01*
G37*
G36*
X43280024Y-52475526D02*
G01*
X43219268Y-52462250D01*
X43157048Y-52457819D01*
X43089940Y-52466459D01*
X43025462Y-52492709D01*
X42961880Y-52538696D01*
X42898150Y-52608517D01*
X42831409Y-52713910D01*
X42778928Y-52839256D01*
X42741713Y-52987948D01*
X42591381Y-53760000D01*
X42345429Y-53760000D01*
X42566835Y-52623904D01*
X42601029Y-52437180D01*
X42625575Y-52282819D01*
X42857850Y-52282819D01*
X42809979Y-52581406D01*
X42815474Y-52581406D01*
X42881393Y-52462124D01*
X42940323Y-52379520D01*
X42993039Y-52325439D01*
X43054632Y-52284260D01*
X43121430Y-52259847D01*
X43195272Y-52251556D01*
X43258362Y-52256230D01*
X43325087Y-52270729D01*
X43280024Y-52475526D01*
G37*
D19*
G36*
X53330358Y-61836459D02*
G01*
X53413055Y-61853016D01*
X53477717Y-61878038D01*
X53527719Y-61910349D01*
X53565618Y-61949706D01*
X53592956Y-61996835D01*
X53610100Y-62053348D01*
X53616198Y-62121573D01*
X53609962Y-62187932D01*
X53592418Y-62242694D01*
X53564357Y-62288208D01*
X53527158Y-62327928D01*
X53484417Y-62361439D01*
X53435580Y-62389019D01*
X53719818Y-62830000D01*
X53474781Y-62830000D01*
X53252215Y-62446416D01*
X53133208Y-62446416D01*
X53133208Y-62830000D01*
X52919007Y-62830000D01*
X52919007Y-62281186D01*
X53133208Y-62281186D01*
X53221379Y-62281186D01*
X53277419Y-62276718D01*
X53320330Y-62264628D01*
X53352965Y-62246198D01*
X53377624Y-62219514D01*
X53393356Y-62182446D01*
X53399188Y-62131404D01*
X53394003Y-62088625D01*
X53379645Y-62055827D01*
X53356507Y-62030593D01*
X53326040Y-62013311D01*
X53282433Y-62001516D01*
X53221379Y-61997009D01*
X53133208Y-61997009D01*
X53133208Y-62281186D01*
X52919007Y-62281186D01*
X52919007Y-61830375D01*
X53225593Y-61830375D01*
X53330358Y-61836459D01*
G37*
G36*
X54226020Y-62057799D02*
G01*
X54292952Y-62075305D01*
X54349732Y-62103133D01*
X54398019Y-62141235D01*
X54436666Y-62188603D01*
X54465145Y-62245858D01*
X54483253Y-62315031D01*
X54489733Y-62398789D01*
X54489733Y-62501004D01*
X53998377Y-62501004D01*
X54006751Y-62556787D01*
X54024883Y-62601512D01*
X54052233Y-62637475D01*
X54088366Y-62664094D01*
X54135141Y-62681016D01*
X54195725Y-62687178D01*
X54265399Y-62683532D01*
X54325968Y-62673196D01*
X54384614Y-62656000D01*
X54446379Y-62631186D01*
X54446379Y-62789394D01*
X54388779Y-62813660D01*
X54327311Y-62830671D01*
X54260857Y-62840343D01*
X54173377Y-62843982D01*
X54098721Y-62838978D01*
X54032140Y-62824565D01*
X53972426Y-62801301D01*
X53918309Y-62768018D01*
X53872601Y-62725190D01*
X53834551Y-62671852D01*
X53807552Y-62611936D01*
X53790335Y-62539960D01*
X53784176Y-62453377D01*
X53788885Y-62371214D01*
X53791096Y-62359588D01*
X54003934Y-62359588D01*
X54292323Y-62359588D01*
X54287457Y-62315029D01*
X54275420Y-62277691D01*
X54256664Y-62246198D01*
X54230748Y-62221903D01*
X54196845Y-62206831D01*
X54152372Y-62201379D01*
X54112020Y-62206038D01*
X54078196Y-62219361D01*
X54049424Y-62241313D01*
X54027663Y-62270327D01*
X54012213Y-62308872D01*
X54003934Y-62359588D01*
X53791096Y-62359588D01*
X53802086Y-62301809D01*
X53822705Y-62243240D01*
X53850132Y-62193870D01*
X53884255Y-62152409D01*
X53937263Y-62108912D01*
X53997642Y-62077684D01*
X54066822Y-62058357D01*
X54146755Y-62051598D01*
X54226020Y-62057799D01*
G37*
G36*
X54816530Y-62830000D02*
G01*
X54525331Y-62065580D01*
X54746554Y-62065580D01*
X54889314Y-62516392D01*
X54906838Y-62577330D01*
X54920150Y-62642421D01*
X54925706Y-62642421D01*
X54939017Y-62578735D01*
X54957946Y-62517796D01*
X55103515Y-62065580D01*
X55324738Y-62065580D01*
X55033539Y-62830000D01*
X54816530Y-62830000D01*
G37*
G36*
X56107903Y-62191610D02*
G01*
X56167782Y-62195689D01*
X56221617Y-62207480D01*
X56270324Y-62226598D01*
X56314735Y-62253631D01*
X56352063Y-62287516D01*
X56382981Y-62328813D01*
X56405273Y-62375292D01*
X56419331Y-62430215D01*
X56424319Y-62495387D01*
X56417456Y-62575428D01*
X56397992Y-62643294D01*
X56366778Y-62701248D01*
X56323508Y-62750926D01*
X56270944Y-62789438D01*
X56205664Y-62818431D01*
X56124936Y-62837190D01*
X56025348Y-62843982D01*
X55948269Y-62840396D01*
X55877643Y-62830000D01*
X55811208Y-62812352D01*
X55756498Y-62789394D01*
X55756498Y-62607372D01*
X55811483Y-62631302D01*
X55881123Y-62652923D01*
X55953158Y-62667257D01*
X56018326Y-62671791D01*
X56079851Y-62666857D01*
X56126591Y-62653550D01*
X56161819Y-62633323D01*
X56188595Y-62604208D01*
X56205392Y-62565360D01*
X56211523Y-62513583D01*
X56206026Y-62467632D01*
X56190728Y-62431838D01*
X56165970Y-62403753D01*
X56130172Y-62382272D01*
X56080108Y-62367845D01*
X56011304Y-62362397D01*
X55930094Y-62370090D01*
X55860118Y-62384806D01*
X55776099Y-62339987D01*
X55813956Y-61830375D01*
X56355748Y-61830375D01*
X56355748Y-62009588D01*
X55998726Y-62009588D01*
X55980530Y-62205593D01*
X56031638Y-62196495D01*
X56107903Y-62191610D01*
G37*
G36*
X56563660Y-62731997D02*
G01*
X56568241Y-62690679D01*
X56580448Y-62661419D01*
X56599319Y-62641017D01*
X56638044Y-62621260D01*
X56685476Y-62614394D01*
X56731638Y-62621209D01*
X56770167Y-62641017D01*
X56789074Y-62661425D01*
X56801299Y-62690685D01*
X56805887Y-62731997D01*
X56801388Y-62771405D01*
X56789236Y-62800130D01*
X56770167Y-62820901D01*
X56731590Y-62841224D01*
X56685476Y-62848196D01*
X56638093Y-62841172D01*
X56599319Y-62820901D01*
X56580286Y-62800136D01*
X56568153Y-62771411D01*
X56563660Y-62731997D01*
G37*
D21*
G36*
X33271536Y-57882602D02*
G01*
X33096644Y-57900373D01*
X32946667Y-57951340D01*
X32816401Y-58034750D01*
X32702573Y-58153529D01*
X32616097Y-58292593D01*
X32551194Y-58459483D01*
X32509567Y-58659514D01*
X32494661Y-58899080D01*
X32509153Y-59139435D01*
X32549400Y-59337981D01*
X32611722Y-59501591D01*
X32694146Y-59636022D01*
X32803334Y-59748263D01*
X32936470Y-59829311D01*
X33098521Y-59880304D01*
X33296816Y-59898522D01*
X33491656Y-59886850D01*
X33676919Y-59852360D01*
X33858959Y-59800243D01*
X34044382Y-59734757D01*
X34044382Y-60280823D01*
X33801946Y-60362905D01*
X33530456Y-60414107D01*
X33225375Y-60431948D01*
X32983936Y-60418577D01*
X32775127Y-60380725D01*
X32594411Y-60321000D01*
X32437875Y-60240889D01*
X32293704Y-60135813D01*
X32170192Y-60012275D01*
X32065844Y-59868894D01*
X31980102Y-59703433D01*
X31899434Y-59467881D01*
X31848763Y-59200087D01*
X31830992Y-58894867D01*
X31850729Y-58596155D01*
X31907494Y-58330333D01*
X31998970Y-58092529D01*
X32093600Y-57926290D01*
X32206436Y-57781036D01*
X32338165Y-57654871D01*
X32490265Y-57546646D01*
X32654765Y-57462815D01*
X32839112Y-57401166D01*
X33046333Y-57362627D01*
X33279963Y-57349176D01*
X33502763Y-57361120D01*
X33731507Y-57397536D01*
X33955214Y-57459089D01*
X34166198Y-57546646D01*
X33956271Y-58059007D01*
X33801476Y-57992803D01*
X33634787Y-57935176D01*
X33460805Y-57896012D01*
X33271536Y-57882602D01*
G37*
G36*
X33899345Y-57090000D02*
G01*
X32534455Y-57090000D01*
X32534455Y-56728764D01*
X32899720Y-56560786D01*
X32899720Y-54620338D01*
X32534455Y-54452360D01*
X32534455Y-54091125D01*
X33899345Y-54091125D01*
X33899345Y-54452360D01*
X33534080Y-54620338D01*
X33534080Y-56560786D01*
X33899345Y-56728764D01*
X33899345Y-57090000D01*
G37*
D19*
G36*
X34506367Y-63690000D02*
G01*
X33813389Y-63690000D01*
X33582397Y-62984382D01*
X32523970Y-62984382D01*
X32292978Y-63690000D01*
X31600000Y-63690000D01*
X32035242Y-62446742D01*
X32675279Y-62446742D01*
X33435484Y-62446742D01*
X33225375Y-61795713D01*
X33172801Y-61606852D01*
X33103558Y-61348565D01*
X33048970Y-61132227D01*
X33000610Y-61352779D01*
X32939794Y-61596411D01*
X32889419Y-61795713D01*
X32675279Y-62446742D01*
X32035242Y-62446742D01*
X32654213Y-60678668D01*
X33443728Y-60678668D01*
X34506367Y-63690000D01*
G37*
G36*
X35261331Y-50691125D02*
G01*
X34496912Y-53690000D01*
X33774624Y-53690000D01*
X33367227Y-52115000D01*
X33335720Y-51976514D01*
X33293771Y-51774830D01*
X33253838Y-51566919D01*
X33228558Y-51413595D01*
X33205478Y-51566919D01*
X33165544Y-51772815D01*
X33123595Y-51974316D01*
X33090073Y-52119213D01*
X32686889Y-53690000D01*
X31964419Y-53690000D01*
X31200000Y-50691125D01*
X31825750Y-50691125D01*
X32208051Y-52329139D01*
X32262456Y-52572955D01*
X32317044Y-52866962D01*
X32354963Y-53114624D01*
X32392698Y-52864764D01*
X32445272Y-52583396D01*
X32493632Y-52371271D01*
X32930338Y-50691125D01*
X33530992Y-50691125D01*
X33967882Y-52371271D01*
X34016058Y-52581198D01*
X34068449Y-52866962D01*
X34106367Y-53114624D01*
X34144103Y-52864764D01*
X34200889Y-52572955D01*
X34253463Y-52329139D01*
X34635580Y-50691125D01*
X35261331Y-50691125D01*
G37*
G36*
X33068898Y-47540128D02*
G01*
X34455678Y-47540128D01*
X34455678Y-49353051D01*
X34177077Y-49436048D01*
X33884638Y-49500085D01*
X33578013Y-49539665D01*
X33211017Y-49553941D01*
X32894385Y-49533177D01*
X32621627Y-49474309D01*
X32386003Y-49380894D01*
X32181971Y-49254251D01*
X32005464Y-49093390D01*
X31862066Y-48905477D01*
X31746515Y-48683367D01*
X31659603Y-48421591D01*
X31604024Y-48113369D01*
X31584237Y-47750848D01*
X31609535Y-47390095D01*
X31681724Y-47075676D01*
X31797308Y-46800255D01*
X31916314Y-46610317D01*
X32058294Y-46444438D01*
X32224526Y-46300643D01*
X32417288Y-46177924D01*
X32622578Y-46084899D01*
X32854163Y-46015926D01*
X33115835Y-45972560D01*
X33411906Y-45957373D01*
X33689184Y-45972110D01*
X33960720Y-46016144D01*
X34222121Y-46086076D01*
X34450763Y-46173009D01*
X34205635Y-46765847D01*
X34036695Y-46691254D01*
X33838263Y-46628644D01*
X33629058Y-46588442D01*
X33406991Y-46574789D01*
X33195616Y-46592026D01*
X33010141Y-46641549D01*
X32845996Y-46721823D01*
X32700501Y-46832293D01*
X32578441Y-46969285D01*
X32478410Y-47135998D01*
X32408185Y-47318279D01*
X32364145Y-47526613D01*
X32348687Y-47765595D01*
X32373133Y-48096756D01*
X32441652Y-48373179D01*
X32517655Y-48540105D01*
X32615495Y-48676718D01*
X32735720Y-48787140D01*
X32876846Y-48867457D01*
X33049045Y-48918306D01*
X33259957Y-48936525D01*
X33527097Y-48921993D01*
X33730338Y-48887585D01*
X33730338Y-48157543D01*
X33068898Y-48157543D01*
X33068898Y-47540128D01*
G37*
G36*
X36631922Y-46799167D02*
G01*
X36852565Y-46852775D01*
X37050789Y-46939809D01*
X37228752Y-47061587D01*
X37379997Y-47216332D01*
X37506424Y-47407840D01*
X37596162Y-47619798D01*
X37652967Y-47868911D01*
X37673120Y-48162459D01*
X37648336Y-48495468D01*
X37579033Y-48771597D01*
X37470146Y-49000980D01*
X37322845Y-49191484D01*
X37136980Y-49346720D01*
X36920549Y-49459051D01*
X36667565Y-49529203D01*
X36369901Y-49553941D01*
X36122509Y-49535156D01*
X35900977Y-49480819D01*
X35700981Y-49392374D01*
X35521592Y-49268835D01*
X35369508Y-49112438D01*
X35242781Y-48919428D01*
X35153072Y-48705843D01*
X35096379Y-48455868D01*
X35076299Y-48162459D01*
X35830918Y-48162459D01*
X35847426Y-48422145D01*
X35891816Y-48621418D01*
X35958291Y-48772608D01*
X36031275Y-48866901D01*
X36122899Y-48933796D01*
X36236867Y-48975608D01*
X36379518Y-48990595D01*
X36516955Y-48975803D01*
X36627885Y-48934306D01*
X36718166Y-48867458D01*
X36791128Y-48772608D01*
X36857719Y-48621402D01*
X36902181Y-48422129D01*
X36918715Y-48162459D01*
X36901959Y-47899267D01*
X36857313Y-47701413D01*
X36791128Y-47554874D01*
X36718620Y-47463891D01*
X36627914Y-47399172D01*
X36515353Y-47358668D01*
X36374816Y-47344154D01*
X36234163Y-47358672D01*
X36121535Y-47399183D01*
X36030800Y-47463903D01*
X35958291Y-47554874D01*
X35892222Y-47701396D01*
X35847647Y-47899251D01*
X35830918Y-48162459D01*
X35076299Y-48162459D01*
X35101159Y-47829316D01*
X35170566Y-47554140D01*
X35279443Y-47326509D01*
X35426574Y-47138348D01*
X35612103Y-46985538D01*
X35829121Y-46874607D01*
X36083797Y-46805138D01*
X36384433Y-46780594D01*
X36631922Y-46799167D01*
G37*
G36*
X39692285Y-46799167D02*
G01*
X39912927Y-46852775D01*
X40111152Y-46939809D01*
X40289115Y-47061587D01*
X40440359Y-47216332D01*
X40566787Y-47407840D01*
X40656525Y-47619798D01*
X40713330Y-47868911D01*
X40733483Y-48162459D01*
X40708699Y-48495468D01*
X40639395Y-48771597D01*
X40530509Y-49000980D01*
X40383208Y-49191484D01*
X40197343Y-49346720D01*
X39980911Y-49459051D01*
X39727928Y-49529203D01*
X39430264Y-49553941D01*
X39182872Y-49535156D01*
X38961340Y-49480819D01*
X38761344Y-49392374D01*
X38581955Y-49268835D01*
X38429871Y-49112438D01*
X38303144Y-48919428D01*
X38213435Y-48705843D01*
X38156742Y-48455868D01*
X38136662Y-48162459D01*
X38891281Y-48162459D01*
X38907789Y-48422145D01*
X38952179Y-48621418D01*
X39018654Y-48772608D01*
X39091638Y-48866901D01*
X39183262Y-48933796D01*
X39297230Y-48975608D01*
X39439881Y-48990595D01*
X39577318Y-48975803D01*
X39688247Y-48934306D01*
X39778529Y-48867458D01*
X39851491Y-48772608D01*
X39918082Y-48621402D01*
X39962544Y-48422129D01*
X39979077Y-48162459D01*
X39962322Y-47899267D01*
X39917676Y-47701413D01*
X39851491Y-47554874D01*
X39778982Y-47463891D01*
X39688277Y-47399172D01*
X39575716Y-47358668D01*
X39435179Y-47344154D01*
X39294526Y-47358672D01*
X39181898Y-47399183D01*
X39091163Y-47463903D01*
X39018654Y-47554874D01*
X38952585Y-47701396D01*
X38908010Y-47899251D01*
X38891281Y-48162459D01*
X38136662Y-48162459D01*
X38161522Y-47829316D01*
X38230929Y-47554140D01*
X38339806Y-47326509D01*
X38486937Y-47138348D01*
X38672466Y-46985538D01*
X38889484Y-46874607D01*
X39144160Y-46805138D01*
X39444796Y-46780594D01*
X39692285Y-46799167D01*
G37*
G36*
X42828720Y-47378347D02*
G01*
X42196558Y-47378347D01*
X42196558Y-49505001D01*
X41466516Y-49505001D01*
X41466516Y-47378347D01*
X41064737Y-47378347D01*
X41064737Y-47025508D01*
X41466516Y-46829534D01*
X41466516Y-46633559D01*
X41481430Y-46406532D01*
X41521491Y-46233077D01*
X41581494Y-46102057D01*
X41669129Y-45988539D01*
X41777553Y-45900117D01*
X41909756Y-45834916D01*
X42134252Y-45777324D01*
X42412194Y-45756483D01*
X42622369Y-45765534D01*
X42801578Y-45790891D01*
X42966680Y-45829686D01*
X43083465Y-45869110D01*
X42897322Y-46403391D01*
X42715880Y-46356802D01*
X42490627Y-46334789D01*
X42393793Y-46346300D01*
X42321451Y-46377796D01*
X42267511Y-46427968D01*
X42215190Y-46530305D01*
X42196558Y-46663052D01*
X42196558Y-46829534D01*
X42828720Y-46829534D01*
X42828720Y-47378347D01*
G37*
G36*
X42860990Y-46829534D02*
G01*
X43640186Y-46829534D01*
X44144761Y-48358433D01*
X44211012Y-48586251D01*
X44257388Y-48814068D01*
X44277049Y-48814068D01*
X44328554Y-48588815D01*
X44399507Y-48358433D01*
X44894465Y-46829534D01*
X45658914Y-46829534D01*
X44561287Y-49749915D01*
X44432706Y-50041236D01*
X44290903Y-50268038D01*
X44137281Y-50440847D01*
X44002790Y-50541436D01*
X43839990Y-50616178D01*
X43643125Y-50663938D01*
X43404889Y-50681060D01*
X43186902Y-50668665D01*
X43032388Y-50641737D01*
X43032388Y-50058730D01*
X43159760Y-50078177D01*
X43321541Y-50088008D01*
X43466382Y-50072179D01*
X43579965Y-50028254D01*
X43669465Y-49958071D01*
X43778012Y-49815745D01*
X43865439Y-49637289D01*
X43924210Y-49485339D01*
X42860990Y-46829534D01*
G37*
D10*
X40421114Y-27758533D02*
X39659210Y-27758533D01*
X46196115Y-27758533D02*
X45434211Y-27758533D01*
X45815163Y-27377580D02*
X45815163Y-28139485D01*
D19*
X50405595Y-50034819D02*
X50405595Y-50844342D01*
X50405595Y-50844342D02*
X50453214Y-50939580D01*
X50453214Y-50939580D02*
X50500833Y-50987200D01*
X50500833Y-50987200D02*
X50596071Y-51034819D01*
X50596071Y-51034819D02*
X50786547Y-51034819D01*
X50786547Y-51034819D02*
X50881785Y-50987200D01*
X50881785Y-50987200D02*
X50929404Y-50939580D01*
X50929404Y-50939580D02*
X50977023Y-50844342D01*
X50977023Y-50844342D02*
X50977023Y-50034819D01*
X51357976Y-50034819D02*
X51977023Y-50034819D01*
X51977023Y-50034819D02*
X51643690Y-50415771D01*
X51643690Y-50415771D02*
X51786547Y-50415771D01*
X51786547Y-50415771D02*
X51881785Y-50463390D01*
X51881785Y-50463390D02*
X51929404Y-50511009D01*
X51929404Y-50511009D02*
X51977023Y-50606247D01*
X51977023Y-50606247D02*
X51977023Y-50844342D01*
X51977023Y-50844342D02*
X51929404Y-50939580D01*
X51929404Y-50939580D02*
X51881785Y-50987200D01*
X51881785Y-50987200D02*
X51786547Y-51034819D01*
X51786547Y-51034819D02*
X51500833Y-51034819D01*
X51500833Y-51034819D02*
X51405595Y-50987200D01*
X51405595Y-50987200D02*
X51357976Y-50939580D01*
D10*
X30803884Y-27741466D02*
X31565789Y-27741466D01*
X31184836Y-28122419D02*
X31184836Y-27360514D01*
X36028883Y-27741466D02*
X36790788Y-27741466D01*
%TO.C,R15*%
D22*
X69630001Y-56832379D02*
X69630001Y-57167621D01*
X68869999Y-56832379D02*
X68869999Y-57167621D01*
%TO.C,C19*%
X70954613Y-56760000D02*
X71186283Y-56760000D01*
X70954613Y-56040000D02*
X71186283Y-56040000D01*
%TO.C,C20*%
X70954614Y-57957500D02*
X71186284Y-57957500D01*
X70954614Y-57237500D02*
X71186284Y-57237500D01*
%TO.C,C16*%
X71059420Y-50390000D02*
X71340580Y-50390000D01*
X71059420Y-51410000D02*
X71340580Y-51410000D01*
%TO.C,C13*%
X72198299Y-48081268D02*
X72198299Y-47788734D01*
X73218299Y-48081268D02*
X73218299Y-47788734D01*
%TO.C,R9*%
X62265121Y-29219999D02*
X61929879Y-29219999D01*
X62265121Y-29980001D02*
X61929879Y-29980001D01*
%TO.C,J1*%
X64700000Y-25420000D02*
X64700000Y-28180000D01*
X74970000Y-25420000D02*
X64700000Y-25420000D01*
X74970000Y-25420000D02*
X74970000Y-28180000D01*
X74970000Y-28180000D02*
X64700000Y-28180000D01*
X76240000Y-25420000D02*
X77620000Y-25420000D01*
X77620000Y-25420000D02*
X77620000Y-26800000D01*
%TO.C,D3*%
X48829750Y-30397000D02*
X48829750Y-32857000D01*
X50299750Y-30397000D02*
X48829750Y-30397000D01*
X50299750Y-32857000D02*
X50299750Y-30397000D01*
%TO.C,R13*%
X34801509Y-39216502D02*
X34326993Y-39216502D01*
X34801509Y-40261502D02*
X34326993Y-40261502D01*
%TO.C,L2*%
X70810242Y-51940000D02*
X69989758Y-51940000D01*
X70810242Y-53060000D02*
X69989758Y-53060000D01*
%TO.C,L1*%
D19*
X40468001Y-37648001D02*
X40468001Y-41798001D01*
X40468001Y-41798001D02*
X40688001Y-41798001D01*
X40668001Y-37648001D02*
X40468001Y-37648001D01*
X44458001Y-41788001D02*
X44668001Y-41788001D01*
X44668001Y-37638001D02*
X44468001Y-37638001D01*
X44668001Y-41788001D02*
X44668001Y-37638001D01*
D23*
X44598001Y-41718001D02*
G75*
G02*
X44538001Y-41718001I-30000J0D01*
G01*
X44538001Y-41718001D02*
G75*
G02*
X44598001Y-41718001I30000J0D01*
G01*
%TO.C,U5*%
D22*
X37072751Y-38365001D02*
X39792751Y-38365001D01*
X39792751Y-41135001D02*
X37072751Y-41135001D01*
X36542751Y-38750001D02*
X36212751Y-38990001D01*
X36212751Y-38510002D01*
X36542751Y-38750001D01*
G36*
X36542751Y-38750001D02*
G01*
X36212751Y-38990001D01*
X36212751Y-38510002D01*
X36542751Y-38750001D01*
G37*
%TO.C,U1*%
D24*
X53450000Y-46350000D02*
X53570000Y-46350000D01*
X53450000Y-49650000D02*
X53450000Y-46350000D01*
X53570000Y-49650000D02*
X53450000Y-49650000D01*
X56630000Y-46350000D02*
X56750000Y-46350000D01*
X56750000Y-46350000D02*
X56750000Y-49650000D01*
X56750000Y-49650000D02*
X56630000Y-49650000D01*
D23*
X56630000Y-46500000D02*
G75*
G02*
X56570000Y-46500000I-30000J0D01*
G01*
X56570000Y-46500000D02*
G75*
G02*
X56630000Y-46500000I30000J0D01*
G01*
D25*
X57000000Y-45840000D02*
G75*
G02*
X56760000Y-45840000I-120000J0D01*
G01*
X56760000Y-45840000D02*
G75*
G02*
X57000000Y-45840000I120000J0D01*
G01*
%TO.C,R5*%
D22*
X70408629Y-38579999D02*
X70743871Y-38579999D01*
X70408629Y-39340001D02*
X70743871Y-39340001D01*
%TO.C,C10*%
X38648518Y-41645001D02*
X38355984Y-41645001D01*
X38648518Y-42665001D02*
X38355984Y-42665001D01*
%TO.C,C4*%
X60616250Y-36144165D02*
X60616250Y-36375835D01*
X61336250Y-36144165D02*
X61336250Y-36375835D01*
%TO.C,U3*%
D24*
X50242500Y-46715000D02*
X50242500Y-46655000D01*
X50242500Y-49455000D02*
X50242500Y-49395000D01*
X52442500Y-46655000D02*
X50242500Y-46655000D01*
X52442500Y-46715000D02*
X52442500Y-46655000D01*
X52442500Y-49455000D02*
X50242500Y-49455000D01*
X52442500Y-49455000D02*
X52442500Y-49395000D01*
D23*
X50372500Y-49305000D02*
G75*
G02*
X50312500Y-49305000I-30000J0D01*
G01*
X50312500Y-49305000D02*
G75*
G02*
X50372500Y-49305000I30000J0D01*
G01*
D19*
X51412500Y-47035000D02*
G75*
G02*
X51272500Y-47035000I-70000J0D01*
G01*
X51272500Y-47035000D02*
G75*
G02*
X51412500Y-47035000I70000J0D01*
G01*
D11*
G36*
X51265564Y-49143949D02*
G01*
X51165564Y-49143949D01*
X51165564Y-48743950D01*
X51265564Y-48743950D01*
X51265564Y-49143949D01*
G37*
G36*
X51415500Y-48993987D02*
G01*
X51015501Y-48993987D01*
X51015501Y-48893987D01*
X51415500Y-48893987D01*
X51415500Y-48993987D01*
G37*
%TO.C,C2*%
D22*
X56915835Y-38240000D02*
X56684165Y-38240000D01*
X56915835Y-38960000D02*
X56684165Y-38960000D01*
%TO.C,C15*%
X70948299Y-48050836D02*
X70948299Y-47819166D01*
X71668299Y-48050836D02*
X71668299Y-47819166D01*
%TO.C,C14*%
X68392464Y-42975001D02*
X68624134Y-42975001D01*
X68392464Y-43695001D02*
X68624134Y-43695001D01*
%TO.C,R8*%
X62265121Y-30391171D02*
X61929879Y-30391171D01*
X62265121Y-31151173D02*
X61929879Y-31151173D01*
%TO.C,R11*%
X42284749Y-34589379D02*
X42284749Y-34924621D01*
X43044751Y-34589379D02*
X43044751Y-34924621D01*
%TO.C,C1*%
X56083767Y-42990000D02*
X55791233Y-42990000D01*
X56083767Y-44010000D02*
X55791233Y-44010000D01*
%TO.C,C18*%
X68867499Y-54615835D02*
X68867499Y-54384165D01*
X69587499Y-54615835D02*
X69587499Y-54384165D01*
%TO.C,R12*%
X45084749Y-35524621D02*
X45084749Y-35189379D01*
X45844751Y-35524621D02*
X45844751Y-35189379D01*
%TO.C,D1*%
X75278750Y-38795000D02*
X77738750Y-38795000D01*
X77738750Y-37325000D02*
X75278750Y-37325000D01*
X77738750Y-38795000D02*
X77738750Y-37325000D01*
%TO.C,C6*%
X49207500Y-47240835D02*
X49207500Y-47009165D01*
X49927500Y-47240835D02*
X49927500Y-47009165D01*
%TO.C,R1*%
X56040580Y-44690000D02*
X55759420Y-44690000D01*
X56040580Y-45710000D02*
X55759420Y-45710000D01*
%TO.C,D2*%
X44729750Y-30371999D02*
X44729750Y-32831999D01*
X46199750Y-30371999D02*
X44729750Y-30371999D01*
X46199750Y-32831999D02*
X46199750Y-30371999D01*
%TO.C,C5*%
X49207500Y-49264165D02*
X49207500Y-49495835D01*
X49927500Y-49264165D02*
X49927500Y-49495835D01*
%TO.C,C8*%
X36209815Y-29512454D02*
X36502349Y-29512454D01*
X36209815Y-30532454D02*
X36502349Y-30532454D01*
%TO.C,U2*%
X63166250Y-33475000D02*
X67786250Y-33475000D01*
X67786250Y-40245000D02*
X63166250Y-40245000D01*
X62634979Y-33544556D02*
X62394979Y-33214556D01*
X62874979Y-33214556D01*
X62634979Y-33544556D01*
G36*
X62634979Y-33544556D02*
G01*
X62394979Y-33214556D01*
X62874979Y-33214556D01*
X62634979Y-33544556D01*
G37*
%TO.C,C12*%
X68362032Y-41225001D02*
X68654566Y-41225001D01*
X68362032Y-42245001D02*
X68654566Y-42245001D01*
%TO.C,SW1*%
D19*
X49770000Y-25260000D02*
X49770000Y-25690000D01*
X49770000Y-28340000D02*
X49770000Y-27910000D01*
X53830000Y-25260000D02*
X49770000Y-25260000D01*
X53830000Y-25260000D02*
X53830000Y-25690000D01*
X53830000Y-27910000D02*
X53830000Y-28340000D01*
X53830000Y-28340000D02*
X49770000Y-28340000D01*
D24*
X52700000Y-26800000D02*
G75*
G02*
X50900000Y-26800000I-900000J0D01*
G01*
X50900000Y-26800000D02*
G75*
G02*
X52700000Y-26800000I900000J0D01*
G01*
D23*
X54330000Y-25330000D02*
G75*
G02*
X54270000Y-25330000I-30000J0D01*
G01*
X54270000Y-25330000D02*
G75*
G02*
X54330000Y-25330000I30000J0D01*
G01*
%TO.C,C11*%
D22*
X70798299Y-42781268D02*
X70798299Y-42488734D01*
X71818299Y-42781268D02*
X71818299Y-42488734D01*
%TO.C,R6*%
X63808629Y-46479999D02*
X64143871Y-46479999D01*
X63808629Y-47240001D02*
X64143871Y-47240001D01*
%TO.C,C17*%
X70792164Y-49240000D02*
X71007836Y-49240000D01*
X70792164Y-49960000D02*
X71007836Y-49960000D01*
%TO.C,R10*%
X74311129Y-36279999D02*
X74646371Y-36279999D01*
X74311129Y-37040001D02*
X74646371Y-37040001D01*
%TO.C,R14*%
X34326993Y-37616502D02*
X34801509Y-37616502D01*
X34326993Y-38661502D02*
X34801509Y-38661502D01*
%TO.C,R7*%
X70408629Y-37279999D02*
X70743871Y-37279999D01*
X70408629Y-38040001D02*
X70743871Y-38040001D01*
%TO.C,U6*%
D19*
X66378299Y-44280000D02*
X66378299Y-44780000D01*
X66378299Y-48440000D02*
X66378299Y-47940000D01*
X66878299Y-44280000D02*
X66378299Y-44280000D01*
X66878299Y-48440000D02*
X66378299Y-48440000D01*
X70038299Y-44280000D02*
X70538299Y-44280000D01*
X70038299Y-48440000D02*
X70538299Y-48440000D01*
X70538299Y-44280000D02*
X70538299Y-44780000D01*
X70538299Y-48440000D02*
X70538299Y-47940000D01*
D23*
X70488299Y-48360000D02*
G75*
G02*
X70428299Y-48360000I-30000J0D01*
G01*
X70428299Y-48360000D02*
G75*
G02*
X70488299Y-48360000I30000J0D01*
G01*
D19*
X70988299Y-47610000D02*
G75*
G02*
X70848299Y-47610000I-70000J0D01*
G01*
X70848299Y-47610000D02*
G75*
G02*
X70988299Y-47610000I70000J0D01*
G01*
%TO.C,J2*%
D22*
X56545000Y-28280000D02*
X56545000Y-26900000D01*
X57925000Y-28280000D02*
X56545000Y-28280000D01*
X59195000Y-25520000D02*
X61845000Y-25520000D01*
X59195000Y-28280000D02*
X59195000Y-25520000D01*
X59195000Y-28280000D02*
X61845000Y-28280000D01*
X61845000Y-28280000D02*
X61845000Y-25520000D01*
%TO.C,U4*%
D24*
X36388581Y-30904954D02*
X40488581Y-30904954D01*
X36388581Y-36004954D02*
X36388581Y-30904954D01*
X37638581Y-36004954D02*
X36388581Y-36004954D01*
X39238581Y-36004954D02*
X40488581Y-36004954D01*
X40488581Y-30904954D02*
X40488581Y-36004954D01*
X37634935Y-35962727D02*
G75*
G02*
X39238581Y-35954954I803646J-372226D01*
G01*
X41108581Y-36484954D02*
G75*
G02*
X40768579Y-36484954I-170001J0D01*
G01*
X40768579Y-36484954D02*
G75*
G02*
X41108581Y-36484954I170001J0D01*
G01*
D23*
X41418583Y-35904955D02*
G75*
G02*
X41358579Y-35904955I-30002J0D01*
G01*
X41358579Y-35904955D02*
G75*
G02*
X41418583Y-35904955I30002J0D01*
G01*
%TO.C,R3*%
D22*
X67943871Y-32380000D02*
X67608629Y-32380000D01*
X67943871Y-33140000D02*
X67608629Y-33140000D01*
%TO.C,C7*%
X40652349Y-29512454D02*
X40359815Y-29512454D01*
X40652349Y-30532454D02*
X40359815Y-30532454D01*
%TO.C,C9*%
X38675018Y-36814001D02*
X38382484Y-36814001D01*
X38675018Y-37834001D02*
X38382484Y-37834001D01*
%TO.C,C3*%
X59066250Y-36113733D02*
X59066250Y-36406267D01*
X60086250Y-36113733D02*
X60086250Y-36406267D01*
%TO.C,R2*%
X60596249Y-33427621D02*
X60596249Y-33092379D01*
X61356251Y-33427621D02*
X61356251Y-33092379D01*
%TO.C,Y1*%
D19*
X75016250Y-43000000D02*
X75016250Y-44860000D01*
X75246250Y-43230000D02*
X78606250Y-43230000D01*
X75246250Y-47290000D02*
X75246250Y-43230000D01*
X76676250Y-43000000D02*
X75016250Y-43000000D01*
X78606250Y-43230000D02*
X78606250Y-47290000D01*
X78606250Y-47290000D02*
X75246250Y-47290000D01*
D23*
X75706250Y-43660000D02*
G75*
G02*
X75646250Y-43660000I-30000J0D01*
G01*
X75646250Y-43660000D02*
G75*
G02*
X75706250Y-43660000I30000J0D01*
G01*
%TD*%
%LPC*%
D26*
%TO.C,R15*%
X69250000Y-57597500D03*
X69250000Y-56402500D03*
%TD*%
D27*
%TO.C,C19*%
X71637948Y-56400000D03*
X70502948Y-56400000D03*
%TD*%
%TO.C,C20*%
X71637949Y-57597500D03*
X70502949Y-57597500D03*
%TD*%
D28*
%TO.C,C16*%
X70425000Y-50900000D03*
X71975000Y-50900000D03*
%TD*%
D29*
%TO.C,C13*%
X72708299Y-48797502D03*
X72708299Y-47072500D03*
%TD*%
D30*
%TO.C,R9*%
X62695000Y-29600000D03*
X61500000Y-29600000D03*
%TD*%
D31*
%TO.C,J1*%
X76240000Y-26800000D03*
D32*
X73700000Y-26800000D03*
X71160000Y-26800000D03*
X68620000Y-26800000D03*
X66080000Y-26800000D03*
%TD*%
D33*
%TO.C,D3*%
X49564750Y-31182001D03*
X49564750Y-32931999D03*
%TD*%
D34*
%TO.C,R13*%
X35389251Y-39739002D03*
X33739251Y-39739002D03*
%TD*%
D35*
%TO.C,L2*%
X71550000Y-52500000D03*
X69250000Y-52500000D03*
%TD*%
D36*
%TO.C,BT1*%
X31864750Y-25757000D03*
X36664750Y-25757000D03*
%TD*%
D37*
%TO.C,L1*%
X42568001Y-41318001D03*
X42568001Y-38118001D03*
%TD*%
D38*
%TO.C,U5*%
X37220251Y-38750001D03*
X37220251Y-39250002D03*
X37220251Y-39750001D03*
X37220251Y-40250000D03*
X37220251Y-40750001D03*
X39645251Y-40750001D03*
X39645251Y-40250000D03*
X39645251Y-39750001D03*
X39645251Y-39250002D03*
X39645251Y-38750001D03*
D39*
X38432751Y-39750001D03*
%TD*%
D40*
%TO.C,U1*%
X56100000Y-46800000D03*
X55100000Y-46800000D03*
X54100000Y-46800000D03*
X54100000Y-49200000D03*
X55100000Y-49200000D03*
X56100000Y-49200000D03*
%TD*%
D41*
%TO.C,R5*%
X69978750Y-38960000D03*
X71173750Y-38960000D03*
%TD*%
D42*
%TO.C,C10*%
X39364752Y-42155001D03*
X37639750Y-42155001D03*
%TD*%
D43*
%TO.C,C4*%
X60976250Y-35692500D03*
X60976250Y-36827500D03*
%TD*%
D44*
%TO.C,U3*%
X50622500Y-49035000D03*
X50622500Y-48375000D03*
X50622500Y-47735000D03*
X50622500Y-47075000D03*
X52062500Y-47075000D03*
X52062500Y-47735000D03*
X52062500Y-48375000D03*
X52062500Y-49035000D03*
%TD*%
D45*
%TO.C,C2*%
X57367500Y-38600000D03*
X56232500Y-38600000D03*
%TD*%
D46*
%TO.C,C15*%
X71308299Y-48502501D03*
X71308299Y-47367501D03*
%TD*%
D27*
%TO.C,C14*%
X67940799Y-43335001D03*
X69075799Y-43335001D03*
%TD*%
D30*
%TO.C,R8*%
X62695000Y-30771172D03*
X61500000Y-30771172D03*
%TD*%
D47*
%TO.C,SC1*%
X44714750Y-25757000D03*
D36*
X40514750Y-25757000D03*
%TD*%
D26*
%TO.C,R11*%
X42664750Y-34159500D03*
X42664750Y-35354500D03*
%TD*%
D42*
%TO.C,C1*%
X56800000Y-43500000D03*
X55075000Y-43500000D03*
%TD*%
D46*
%TO.C,C18*%
X69227499Y-55067500D03*
X69227499Y-53932500D03*
%TD*%
D48*
%TO.C,R12*%
X45464750Y-35954500D03*
X45464750Y-34759500D03*
%TD*%
D49*
%TO.C,D1*%
X76953749Y-38060000D03*
X75203751Y-38060000D03*
%TD*%
D46*
%TO.C,C6*%
X49567500Y-47692500D03*
X49567500Y-46557500D03*
%TD*%
D50*
%TO.C,R1*%
X56675000Y-45200000D03*
X55125000Y-45200000D03*
%TD*%
D33*
%TO.C,D2*%
X45464750Y-31157000D03*
X45464750Y-32906998D03*
%TD*%
D43*
%TO.C,C5*%
X49567500Y-48812500D03*
X49567500Y-49947500D03*
%TD*%
D51*
%TO.C,C8*%
X35493581Y-30022454D03*
X37218583Y-30022454D03*
%TD*%
D52*
%TO.C,U2*%
X62613750Y-33935000D03*
X62613750Y-34585000D03*
X62613750Y-35235000D03*
X62613750Y-35885000D03*
X62613750Y-36535000D03*
X62613750Y-37185000D03*
X62613750Y-37835000D03*
X62613750Y-38485000D03*
X62613750Y-39135000D03*
X62613750Y-39785000D03*
X68338750Y-39785000D03*
X68338750Y-39135000D03*
X68338750Y-38485000D03*
X68338750Y-37835000D03*
X68338750Y-37185000D03*
X68338750Y-36535000D03*
X68338750Y-35885000D03*
X68338750Y-35235000D03*
X68338750Y-34585000D03*
X68338750Y-33935000D03*
%TD*%
D51*
%TO.C,C12*%
X67645798Y-41735001D03*
X69370800Y-41735001D03*
%TD*%
D53*
%TO.C,SW1*%
X49620000Y-26800000D03*
X53980000Y-26800000D03*
%TD*%
D29*
%TO.C,C11*%
X71308299Y-43497502D03*
X71308299Y-41772500D03*
%TD*%
D41*
%TO.C,R6*%
X63378750Y-46860000D03*
X64573750Y-46860000D03*
%TD*%
D54*
%TO.C,C17*%
X70420000Y-49600000D03*
X71380000Y-49600000D03*
%TD*%
D41*
%TO.C,R10*%
X73881250Y-36660000D03*
X75076250Y-36660000D03*
%TD*%
D55*
%TO.C,R14*%
X33739251Y-38139002D03*
X35389251Y-38139002D03*
%TD*%
D41*
%TO.C,R7*%
X69978750Y-37660000D03*
X71173750Y-37660000D03*
%TD*%
D56*
%TO.C,U6*%
X70368298Y-47610000D03*
X70368299Y-47110000D03*
X70368299Y-46610000D03*
X70368299Y-46110000D03*
X70368299Y-45610000D03*
X70368298Y-45110000D03*
D57*
X69708299Y-44450001D03*
X69208299Y-44450000D03*
X68708299Y-44450000D03*
X68208299Y-44450000D03*
X67708299Y-44450000D03*
X67208299Y-44450001D03*
D56*
X66548300Y-45110000D03*
X66548299Y-45610000D03*
X66548299Y-46110000D03*
X66548299Y-46610000D03*
X66548299Y-47110000D03*
X66548300Y-47610000D03*
D57*
X67208299Y-48269999D03*
X67708299Y-48270000D03*
X68208299Y-48270000D03*
X68708299Y-48270000D03*
X69208299Y-48270000D03*
X69708299Y-48269999D03*
D58*
X68458299Y-46360000D03*
%TD*%
D31*
%TO.C,J2*%
X57925000Y-26900000D03*
D32*
X60465000Y-26900000D03*
%TD*%
D59*
%TO.C,U4*%
X41348581Y-35364954D03*
X41348581Y-34084954D03*
X41348581Y-32814954D03*
X41348581Y-31544954D03*
X35528581Y-31544954D03*
X35528581Y-32814954D03*
X35528581Y-34084954D03*
X35528581Y-35364954D03*
D60*
X38438581Y-33454954D03*
%TD*%
D30*
%TO.C,R3*%
X68373750Y-32760000D03*
X67178750Y-32760000D03*
%TD*%
D42*
%TO.C,C7*%
X41368583Y-30022454D03*
X39643581Y-30022454D03*
%TD*%
%TO.C,C9*%
X39391252Y-37324001D03*
X37666250Y-37324001D03*
%TD*%
D61*
%TO.C,C3*%
X59576250Y-35397500D03*
X59576250Y-37122500D03*
%TD*%
D48*
%TO.C,R2*%
X60976250Y-33857500D03*
X60976250Y-32662500D03*
%TD*%
D62*
%TO.C,Y1*%
X76076250Y-44160000D03*
X76076250Y-46360000D03*
X77776250Y-46360000D03*
X77776250Y-44160000D03*
%TD*%
%LPD*%
M02*
