M48
; DRILL file KiCad 10.0.6 date 2026-10-09T19:07:16
; FORMAT={-:-/ absolute / metric / decimal}
; #@! TF.CreationDate,2026-10-09T19:07:16+07:00
; #@! TF.GenerationSoftware,Kicad,Pcbnew,10.0.6
; #@! TF.FileFunction,Plated,1,4,PTH
FMAT,2
METRIC
; #@! TA.AperFunction,Plated,PTH,ComponentDrill
T1C0.200
; #@! TA.AperFunction,Plated,PTH,ViaDrill
T2C0.300
; #@! TA.AperFunction,Plated,PTH,ComponentDrill
T3C1.000
%
G90
G05
T1
X38.083Y-39.0
X38.083Y-39.75
X38.083Y-40.5
X38.783Y-39.0
X38.783Y-39.75
X38.783Y-40.5
T2
X34.365Y-31.757
X34.365Y-33.657
X36.568Y-37.843
X37.665Y-32.157
X37.665Y-34.757
X38.439Y-33.455
X38.6Y-43.2
X39.265Y-32.157
X39.265Y-34.757
X39.8Y-43.2
X43.465Y-30.957
X48.365Y-30.057
X48.622Y-48.275
X49.0Y-28.6
X49.023Y-45.475
X49.023Y-50.975
X51.922Y-45.575
X53.023Y-49.375
X53.122Y-47.176
X54.736Y-42.235
X55.3Y-38.1
X55.7Y-50.8
X57.036Y-42.335
X58.476Y-35.66
X59.276Y-33.86
X62.076Y-32.66
X62.476Y-46.86
X64.076Y-36.06
X64.576Y-49.76
X65.0Y-37.9
X65.576Y-49.76
X66.076Y-32.86
X66.34Y-41.46
X66.576Y-38.56
X66.7Y-49.7
X67.64Y-45.56
X67.64Y-46.36
X67.64Y-47.26
X67.9Y-31.8
X68.44Y-45.56
X68.458Y-46.36
X68.54Y-47.26
X69.34Y-45.56
X69.34Y-46.36
X69.34Y-47.26
X70.34Y-41.36
X70.34Y-42.06
X70.5Y-39.8
X72.276Y-39.46
X72.494Y-56.438
X72.494Y-57.537
X73.5Y-50.9
X73.576Y-38.06
X74.0Y-48.8
X74.2Y-47.06
X75.094Y-58.5
X75.758Y-47.985
X76.294Y-58.5
X78.058Y-42.585
X78.376Y-38.06
T3
X57.925Y-26.9
X60.465Y-26.9
X66.08Y-26.8
X68.62Y-26.8
X71.16Y-26.8
X73.7Y-26.8
X76.24Y-26.8
M30
